{
classes = (
{
code = "ka-deva kha-deva ga-deva gha-deva nga-deva\012ca-deva cha-deva ja-deva jha-deva nya-deva\012tta-deva ttha-deva dda-deva ddha-deva nna-deva\012ta-deva tha-deva da-deva dha-deva na-deva nnna-deva\012pa-deva pha-deva ba-deva bha-deva ma-deva\012ya-deva ra-deva rra-deva la-deva lla-deva llla-deva va-deva sha-deva\012ssa-deva sa-deva ha-deva\012qa-deva khha-deva ghha-deva za-deva dddha-deva rha-deva fa-deva yya-deva";
name = FullForms;
},
{

glyphs = (
{
color = 4;
glyphname = A;
lastChange = "2014-11-18 14:18:01 +0000";
layers = (
{
anchors = (
{
name = top.cap;
position = "{372, 560}";
}
);
background = {
paths = (
{
closed = 1;
nodes = (
"530 0 LINE",
"429 0 LINE",
"401 145 LINE",
"198 145 LINE",
"115 0 LINE",
"21 0 LINE",
"335 550 LINE",
"430 550 LINE"
);
},
{
closed = 1;
nodes = (
"246 233 LINE",
"386 233 LINE",
"355 439 LINE"
);
}
);
};
layerId = "CFA4B904-E3F1-48B6-A7F6-47DC1FF2A3E1";
name = Bold;
paths = (
{
closed = 1;
nodes = (
"524 0 LINE",
"429 0 LINE",
"401 145 LINE",
"195 145 LINE",
"115 0 LINE",
"13 0 LINE",
"324 550 LINE",
"420 550 LINE"
);
},
{
closed = 1;
nodes = (
"246 233 LINE",
"388 233 LINE",
"355 439 LINE"
);
}
);
width = 537;
}
);
unicode = 0041;
},
{
color = 4;
glyphname = Aogonek;
lastChange = "2014-11-18 18:19:59 +0000";
layers = (
{
anchors = (
{
name = top.cap;
position = "{372, 560}";
}
);
background = {
paths = (
{
closed = 1;
nodes = (
"245 233 LINE",
"385 233 LINE",
"354 439 LINE"
);
},
{
closed = 1;
nodes = (
"197 145 LINE",
"114 0 LINE",
"20 0 LINE",
"334 550 LINE",
"429 550 LINE",
"526 1 LINE",
"391 -38 OFFCURVE",
"361 -53 OFFCURVE",
"356 -80 CURVE SMOOTH",
"349 -112 OFFCURVE",
"361 -137 OFFCURVE",
"398 -137 CURVE SMOOTH",
"421 -137 OFFCURVE",
"450 -126 OFFCURVE",
"471 -119 CURVE",
"482 -160 LINE",
"444 -180 OFFCURVE",
"402 -200 OFFCURVE",
"345 -200 CURVE SMOOTH",
"275 -200 OFFCURVE",
"247 -159 OFFCURVE",
"257 -106 CURVE SMOOTH",
"270 -43 OFFCURVE",
"326 -13 OFFCURVE",
"424 24 CURVE",
"400 145 LINE"
);
}
);
};
layerId = "CFA4B904-E3F1-48B6-A7F6-47DC1FF2A3E1";
name = Bold;
paths = (
{
closed = 1;
nodes = (
"361 -137 OFFCURVE",
"349 -116 OFFCURVE",
"356 -84 CURVE SMOOTH",
"361 -57 OFFCURVE",
"389 -39 OFFCURVE",
"524 0 CURVE",
"420 550 LINE",
"324 550 LINE",
"13 0 LINE",
"115 0 LINE",
"195 145 LINE",
"401 145 LINE",
"424.949 20.9806 LINE",
"326.98 -16.0094 OFFCURVE",
"269.998 -43.011 OFFCURVE",
"257 -106 CURVE SMOOTH",
"247 -159 OFFCURVE",
"275 -200 OFFCURVE",
"345 -200 CURVE SMOOTH",
"402 -200 OFFCURVE",
"444 -180 OFFCURVE",
"482 -160 CURVE",
"471 -119 LINE",
"450 -126 OFFCURVE",
"421 -137 OFFCURVE",
"398 -137 CURVE SMOOTH"
);
},
{
closed = 1;
nodes = (
"246 233 LINE",
"355 439 LINE",
"388 233 LINE"
);
}
);
width = 537;
}
);
unicode = 0104;
},
{
color = 4;
glyphname = Aring;
lastChange = "2014-11-18 18:38:54 +0000";
layers = (
{
background = {
paths = (
{
closed = 1;
nodes = (
"371 573 OFFCURVE",
"348 540 OFFCURVE",
"321 523 CURVE",
"416 0 LINE",
"315 0 LINE",
"287 145 LINE",
"84 145 LINE",
"1 0 LINE",
"-93 0 LINE",
"199 516 LINE",
"178 535 OFFCURVE",
"168 565 OFFCURVE",
"174 596 CURVE SMOOTH",
"186 656 OFFCURVE",
"242 705 OFFCURVE",
"301 705 CURVE SMOOTH",
"355 705 OFFCURVE",
"389 662 OFFCURVE",
"379 610 CURVE SMOOTH"
);
},
{
closed = 1;
nodes = (
"132 233 LINE",
"272 233 LINE",
"241 439 LINE"
);
},
{
closed = 1;
nodes = (
"258 642 OFFCURVE",
"242 626 OFFCURVE",
"239 610 CURVE SMOOTH",
"233 583 OFFCURVE",
"247 562 OFFCURVE",
"273 562 CURVE SMOOTH",
"291 562 OFFCURVE",
"309 577 OFFCURVE",
"313 596 CURVE SMOOTH",
"318 620 OFFCURVE",
"301 642 OFFCURVE",
"279 642 CURVE SMOOTH"
);
}
);
};
layerId = "CFA4B904-E3F1-48B6-A7F6-47DC1FF2A3E1";
name = Bold;
paths = (
{
closed = 1;
nodes = (
"426.456 515.86 LINE",
"463.445 538.126 OFFCURVE",
"486 579.293 OFFCURVE",
"486 620 CURVE SMOOTH",
"486 673 OFFCURVE",
"447 704 OFFCURVE",
"401 704 CURVE SMOOTH",
"314 704 OFFCURVE",
"280 642 OFFCURVE",
"280 588 CURVE SMOOTH",
"280 560.912 OFFCURVE",
"292.079 538.605 OFFCURVE",
"308.789 523.098 CURVE",
"13 0 LINE",
"115 0 LINE",
"195 145 LINE",
"401 145 LINE",
"429 0 LINE",
"524 0 LINE"
);
},
{
closed = 1;
nodes = (
"348 626 OFFCURVE",
"365 642 OFFCURVE",
"386 642 CURVE SMOOTH",
"414 642 OFFCURVE",
"424 620 OFFCURVE",
"419 595 CURVE SMOOTH",
"416 578 OFFCURVE",
"399 562 OFFCURVE",
"380 562 CURVE SMOOTH",
"349 562 OFFCURVE",
"340 584 OFFCURVE",
"345 609 CURVE SMOOTH"
);
},
{
closed = 1;
nodes = (
"246 233 LINE",
"355 439 LINE",
"388 233 LINE"
);
}
);
width = 537;
}
);
unicode = 00C5;
},
{
color = 4;
glyphname = AE;
lastChange = "2014-11-18 19:10:38 +0000";
layers = (
{
background = {
paths = (
{
closed = 1;
nodes = (
"405 233 LINE",
"450 462 LINE",
"403 462 LINE",
"258 233 LINE"
);
},
{
closed = 1;
nodes = (
"203 145 LINE",
"109 0 LINE",
"13 0 LINE",
"357 550 LINE",
"818 550 LINE",
"801 462 LINE",
"544 462 LINE",
"517 324 LINE",
"746 324 LINE",
"729 235 LINE",
"500 235 LINE",
"471 89 LINE",
"728 89 LINE",
"711 0 LINE",
"360 0 LINE",
"388 145 LINE"
);
}
);
};
layerId = "CFA4B904-E3F1-48B6-A7F6-47DC1FF2A3E1";
name = Bold;
paths = (
{
closed = 1;
nodes = (
"405 233 LINE",
"450 462 LINE",
"403 462 LINE",
"258 233 LINE"
);
},
{
closed = 1;
nodes = (
"203 145 LINE",
"109 0 LINE",
"13 0 LINE",
"357 550 LINE",
"808 550 LINE",
"791 462 LINE",
"544 462 LINE",
"517 324 LINE",
"736 324 LINE",
"719 235 LINE",
"504 235 LINE",
"475 89 LINE",
"728 89 LINE",
"711 0 LINE",
"360 0 LINE",
"388 145 LINE"
);
}
);
width = 853;
}
);
unicode = 00C6;
},
{
color = 4;
glyphname = B;
lastChange = "2014-11-18 19:10:01 +0000";
layers = (
{
background = {
paths = (
{
closed = 1;
nodes = (
"224 324 LINE",
"298 324 LINE SMOOTH",
"379 324 OFFCURVE",
"412 344 OFFCURVE",
"420 387 CURVE SMOOTH",
"429 433 OFFCURVE",
"409 465 OFFCURVE",
"319 465 CURVE SMOOTH",
"251 465 LINE"
);
},
{
closed = 1;
nodes = (
"178 86 LINE",
"245 86 LINE SMOOTH",
"348 86 OFFCURVE",
"406 98 OFFCURVE",
"417 154 CURVE SMOOTH",
"428 209 OFFCURVE",
"386 242 OFFCURVE",
"269 242 CURVE SMOOTH",
"208 241 LINE"
);
},
{
closed = 1;
nodes = (
"522 550 OFFCURVE",
"530 462 OFFCURVE",
"521 414 CURVE SMOOTH",
"510 361 OFFCURVE",
"479 318 OFFCURVE",
"424 287 CURVE",
"501 270 OFFCURVE",
"525 210 OFFCURVE",
"515 157 CURVE SMOOTH",
"501 89 OFFCURVE",
"439 0 OFFCURVE",
"234 0 CURVE SMOOTH",
"63 0 LINE",
"170 550 LINE",
"360 550 LINE SMOOTH"
);
}
);
};
layerId = "CFA4B904-E3F1-48B6-A7F6-47DC1FF2A3E1";
name = Bold;
paths = (
{
closed = 1;
nodes = (
"224 324 LINE",
"298 324 LINE SMOOTH",
"405 324 OFFCURVE",
"422 364 OFFCURVE",
"422 405 CURVE SMOOTH",
"422 441 OFFCURVE",
"396 465 OFFCURVE",
"319 465 CURVE SMOOTH",
"251 465 LINE"
);
},
{
closed = 1;
nodes = (
"178 86 LINE",
"245 86 LINE SMOOTH",
"385 86 OFFCURVE",
"419 116 OFFCURVE",
"419 170 CURVE SMOOTH",
"419 215 OFFCURVE",
"374 242 OFFCURVE",
"269 242 CURVE SMOOTH",
"208 241 LINE"
);
},
{
closed = 1;
nodes = (
"486 550 OFFCURVE",
"523 478 OFFCURVE",
"523 430 CURVE SMOOTH",
"523 378 OFFCURVE",
"497 328 OFFCURVE",
"424 287 CURVE",
"490 273 OFFCURVE",
"517 227 OFFCURVE",
"517 181 CURVE SMOOTH",
"517 121 OFFCURVE",
"492 0 OFFCURVE",
"254 0 CURVE SMOOTH",
"63 0 LINE",
"170 550 LINE",
"340 550 LINE SMOOTH"
);
}
);
width = 554;
}
);
unicode = 0042;
},
{
color = 4;
glyphname = C;
lastChange = "2014-11-18 17:32:39 +0000";
layers = (
{
anchors = (
{
name = top.cap;
position = "{366, 560}";
}
);
background = {
paths = (
{
closed = 1;
nodes = (
"442 555 OFFCURVE",
"493 549 OFFCURVE",
"545 525 CURVE",
"558 518 LINE",
"509 441 LINE",
"493 445 LINE",
"436 468 OFFCURVE",
"398 468 OFFCURVE",
"371 468 CURVE SMOOTH",
"217 468 OFFCURVE",
"144 334 OFFCURVE",
"144 240 CURVE SMOOTH",
"144 144 OFFCURVE",
"205 81 OFFCURVE",
"320 81 CURVE SMOOTH",
"351 81 OFFCURVE",
"396 90 OFFCURVE",
"442 106 CURVE",
"456 113 LINE",
"471 34 LINE",
"453 29 LINE",
"389 6 OFFCURVE",
"336 -9 OFFCURVE",
"275 -9 CURVE SMOOTH",
"120 -9 OFFCURVE",
"40 85 OFFCURVE",
"40 208 CURVE SMOOTH",
"40 344 OFFCURVE",
"149 555 OFFCURVE",
"400 555 CURVE SMOOTH"
);
}
);
};
layerId = "CFA4B904-E3F1-48B6-A7F6-47DC1FF2A3E1";
name = Bold;
paths = (
{
closed = 1;
nodes = (
"447 555 OFFCURVE",
"494 544 OFFCURVE",
"540 521 CURVE",
"494 449 LINE",
"451 464 OFFCURVE",
"416 469 OFFCURVE",
"371 469 CURVE SMOOTH",
"217 469 OFFCURVE",
"144 345 OFFCURVE",
"144 240 CURVE SMOOTH",
"144 144 OFFCURVE",
"205 78 OFFCURVE",
"304 78 CURVE SMOOTH",
"357 78 OFFCURVE",
"413 93 OFFCURVE",
"456 107 CURVE",
"472 28 LINE",
"410 6 OFFCURVE",
"356 -9 OFFCURVE",
"281 -9 CURVE SMOOTH",
"126 -9 OFFCURVE",
"40 100 OFFCURVE",
"40 223 CURVE SMOOTH",
"40 389 OFFCURVE",
"143 555 OFFCURVE",
"385 555 CURVE SMOOTH"
);
}
);
width = 572;
}
);
unicode = 0043;
},
{
color = 4;
glyphname = Ccedilla;
lastChange = "2014-11-18 18:48:00 +0000";
layers = (
{
background = {
paths = (
{
closed = 1;
nodes = (
"377 555 OFFCURVE",
"430 548 OFFCURVE",
"487 524 CURVE",
"503 518 LINE",
"470 441 LINE",
"455 446 LINE",
"394 469 OFFCURVE",
"356 468 OFFCURVE",
"331 468 CURVE SMOOTH",
"212 468 OFFCURVE",
"140 382 OFFCURVE",
"140 276 CURVE SMOOTH",
"140 160 OFFCURVE",
"215 81 OFFCURVE",
"345 81 CURVE SMOOTH",
"378 81 OFFCURVE",
"421 91 OFFCURVE",
"464 107 CURVE",
"478 113 LINE",
"510 34 LINE",
"496 28 LINE",
"437 5 OFFCURVE",
"387 -9 OFFCURVE",
"328 -9 CURVE SMOOTH",
"147 -9 OFFCURVE",
"40 120 OFFCURVE",
"40 275 CURVE SMOOTH",
"40 434 OFFCURVE",
"153 555 OFFCURVE",
"333 555 CURVE SMOOTH"
);
}
);
};
components = (
{
name = C;
transform = "{1, 0, 0, 1, 0, 0}";
},
{
name = cedilla;
transform = "{1, 0, 0, 1, 270, 0}";
}
);
layerId = "CFA4B904-E3F1-48B6-A7F6-47DC1FF2A3E1";
name = Bold;
width = 572;
}
);
unicode = 00C7;
},
{
color = 4;
glyphname = D;
lastChange = "2014-11-18 17:53:04 +0000";
layers = (
{
anchors = (
{
name = top.cap;
position = "{327, 560}";
}
);
background = {
anchors = (
{
name = top.cap;
position = "{468, 560}";
}
);
paths = (
{
closed = 1;
nodes = (
"369 555 CURVE",
"152 555 OFFCURVE",
"49 389 OFFCURVE",
"49 223 CURVE SMOOTH",
"49 106 OFFCURVE",
"122 -10 OFFCURVE",
"290 -10 CURVE",
"501 -10 OFFCURVE",
"604 156 OFFCURVE",
"604 322 CURVE SMOOTH",
"604 439 OFFCURVE",
"521 555 OFFCURVE"
);
},
{
closed = 1;
nodes = (
"201 78 OFFCURVE",
"153 139 OFFCURVE",
"153 240 CURVE SMOOTH",
"153 337 OFFCURVE",
"215 467 OFFCURVE",
"346 467 CURVE",
"442 466 OFFCURVE",
"500 399 OFFCURVE",
"500 305 CURVE SMOOTH",
"500 208 OFFCURVE",
"438 78 OFFCURVE",
"307 78 CURVE"
);
}
);
};
layerId = "CFA4B904-E3F1-48B6-A7F6-47DC1FF2A3E1";
name = Bold;
paths = (
{
closed = 1;
nodes = (
"178 89 LINE",
"245 89 LINE SMOOTH",
"447 89 OFFCURVE",
"501 191 OFFCURVE",
"501 315 CURVE SMOOTH",
"501 405 OFFCURVE",
"453 462 OFFCURVE",
"338 462 CURVE SMOOTH",
"251 462 LINE"
);
},
{
closed = 1;
nodes = (
"542 550 OFFCURVE",
"607 424 OFFCURVE",
"607 328 CURVE SMOOTH",
"607 101 OFFCURVE",
"469 0 OFFCURVE",
"190 0 CURVE SMOOTH",
"63 0 LINE",
"170 550 LINE",
"349 550 LINE SMOOTH"
);
}
);
width = 647;
}
);
unicode = 0044;
},
{
color = 4;
glyphname = Eth;
lastChange = "2014-11-18 17:54:22 +0000";
layers = (
{
background = {
paths = (
{
closed = 1;
nodes = (
"113 325 LINE",
"157 550 LINE",
"346 550 LINE SMOOTH",
"580 550 OFFCURVE",
"610 410 OFFCURVE",
"588 299 CURVE SMOOTH",
"564 177 OFFCURVE",
"490 55 OFFCURVE",
"329 13 CURVE",
"280 1 OFFCURVE",
"232 0 OFFCURVE",
"185 0 CURVE SMOOTH",
"50 0 LINE",
"96 236 LINE",
"-1 236 LINE",
"16 325 LINE"
);
},
{
closed = 1;
nodes = (
"212 325 LINE",
"332 325 LINE",
"315 236 LINE",
"195 236 LINE",
"166 89 LINE",
"232 89 LINE SMOOTH",
"291 89 OFFCURVE",
"378 89 OFFCURVE",
"441 170 CURVE SMOOTH",
"453 190 OFFCURVE",
"474 224 OFFCURVE",
"483 272 CURVE SMOOTH",
"507 397 OFFCURVE",
"450 462 OFFCURVE",
"325 462 CURVE SMOOTH",
"239 462 LINE"
);
}
);
};
components = (
{
name = D;
transform = "{1, 0, 0, 1, -13, 0}";
}
);
layerId = "CFA4B904-E3F1-48B6-A7F6-47DC1FF2A3E1";
name = Bold;
paths = (
{
closed = 1;
nodes = (
"9 236 LINE",
"26 325 LINE",
"346 325 LINE",
"329 236 LINE"
);
}
);
width = 633;
}
);
unicode = 00D0;
},
{
color = 4;
glyphname = E;
lastChange = "2014-11-18 16:24:30 +0000";
layers = (
{
anchors = (
{
name = top.cap;
position = "{342, 560}";
}
);
background = {
paths = (
{
closed = 1;
nodes = (
"531 550 LINE",
"514 462 LINE",
"251 462 LINE",
"224 324 LINE",
"457 324 LINE",
"440 235 LINE",
"207 235 LINE",
"178 89 LINE",
"441 89 LINE",
"424 0 LINE",
"63 0 LINE",
"170 550 LINE"
);
}
);
};
layerId = "CFA4B904-E3F1-48B6-A7F6-47DC1FF2A3E1";
name = Bold;
paths = (
{
closed = 1;
nodes = (
"521 550 LINE",
"504 462 LINE",
"251 462 LINE",
"224 324 LINE",
"447 324 LINE",
"430 235 LINE",
"207 235 LINE",
"178 89 LINE",
"441 89 LINE",
"424 0 LINE",
"63 0 LINE",
"170 550 LINE"
);
}
);
width = 564;
}
);
unicode = 0045;
},
{
color = 4;
glyphname = Eogonek;
lastChange = "2014-11-18 17:39:32 +0000";
layers = (
{
background = {
paths = (
{
closed = 1;
nodes = (
"531 550 LINE",
"514 462 LINE",
"251 462 LINE",
"224 324 LINE",
"457 324 LINE",
"440 235 LINE",
"207 235 LINE",
"178 89 LINE",
"441 89 LINE",
"421 0 LINE",
"285 -16 OFFCURVE",
"252 -53 OFFCURVE",
"247 -80 CURVE SMOOTH",
"240 -112 OFFCURVE",
"255 -137 OFFCURVE",
"292 -137 CURVE SMOOTH",
"315 -137 OFFCURVE",
"344 -126 OFFCURVE",
"366 -119 CURVE",
"376 -160 LINE",
"339 -180 OFFCURVE",
"296 -200 OFFCURVE",
"237 -200 CURVE SMOOTH",
"163 -200 OFFCURVE",
"141 -157 OFFCURVE",
"149 -115 CURVE SMOOTH",
"160 -59 OFFCURVE",
"208 -25 OFFCURVE",
"270 -1 CURVE",
"63 0 LINE",
"170 550 LINE"
);
}
);
};
layerId = "CFA4B904-E3F1-48B6-A7F6-47DC1FF2A3E1";
name = Bold;
paths = (
{
closed = 1;
nodes = (
"521 550 LINE",
"504 462 LINE",
"251 462 LINE",
"224 324 LINE",
"447 324 LINE",
"430 235 LINE",
"207 235 LINE",
"178 89 LINE",
"441 89 LINE",
"421 0 LINE",
"285 -16 OFFCURVE",
"252 -53 OFFCURVE",
"247 -80 CURVE SMOOTH",
"240 -112 OFFCURVE",
"255 -137 OFFCURVE",
"292 -137 CURVE SMOOTH",
"315 -137 OFFCURVE",
"344 -126 OFFCURVE",
"366 -119 CURVE",
"376 -160 LINE",
"339 -180 OFFCURVE",
"296 -200 OFFCURVE",
"237 -200 CURVE SMOOTH",
"163 -200 OFFCURVE",
"141 -157 OFFCURVE",
"149 -115 CURVE SMOOTH",
"160 -59 OFFCURVE",
"208 -25 OFFCURVE",
"270 -1 CURVE",
"63 0 LINE",
"170 550 LINE"
);
}
);
width = 564;
}
);
unicode = 0118;
},
{
color = 4;
glyphname = F;
lastChange = "2014-11-18 16:25:50 +0000";
layers = (
{
background = {
paths = (
{
closed = 1;
nodes = (
"446 299 LINE",
"429 209 LINE",
"202 209 LINE",
"161 0 LINE",
"63 0 LINE",
"170 550 LINE",
"526 550 LINE",
"509 462 LINE",
"251 462 LINE",
"219 299 LINE"
);
}
);
};
layerId = "CFA4B904-E3F1-48B6-A7F6-47DC1FF2A3E1";
name = Bold;
paths = (
{
closed = 1;
nodes = (
"436 299 LINE",
"419 209 LINE",
"202 209 LINE",
"161 0 LINE",
"63 0 LINE",
"170 550 LINE",
"516 550 LINE",
"499 462 LINE",
"251 462 LINE",
"219 299 LINE"
);
}
);
width = 547;
}
);
unicode = 0046;
},
{
color = 4;
glyphname = G;
lastChange = "2014-11-18 17:38:03 +0000";
layers = (
{
anchors = (
{
name = bottom;
position = "{276, -10}";
},
{
name = top.cap;
position = "{366, 560}";
}
);
background = {
paths = (
{
closed = 1;
nodes = (
"471 41 OFFCURVE",
"404 -6 OFFCURVE",
"274 -9 CURVE SMOOTH",
"78 -9 OFFCURVE",
"20 138 OFFCURVE",
"45 268 CURVE SMOOTH",
"74 416 OFFCURVE",
"206 555 OFFCURVE",
"394 555 CURVE SMOOTH",
"467 555 OFFCURVE",
"523 535 OFFCURVE",
"565 508 CURVE SMOOTH",
"575 498 LINE",
"518 423 LINE",
"503 427 LINE",
"475 444 OFFCURVE",
"426 465 OFFCURVE",
"369 465 CURVE SMOOTH",
"272 465 OFFCURVE",
"170 399 OFFCURVE",
"148 286 CURVE SMOOTH",
"125 169 OFFCURVE",
"197 82 OFFCURVE",
"318 82 CURVE SMOOTH",
"361 82 OFFCURVE",
"385 88 OFFCURVE",
"412 101 CURVE",
"433 220 LINE",
"289 220 LINE",
"306 307 LINE",
"546 307 LINE",
"496 59 LINE"
);
}
);
};
layerId = "CFA4B904-E3F1-48B6-A7F6-47DC1FF2A3E1";
name = Bold;
paths = (
{
closed = 1;
nodes = (
"295 302 LINE",
"279 220 LINE",
"426 220 LINE",
"404 94 LINE",
"369 83 OFFCURVE",
"331 78 OFFCURVE",
"294 78 CURVE SMOOTH",
"205 78 OFFCURVE",
"144 134 OFFCURVE",
"144 240 CURVE SMOOTH",
"144 345 OFFCURVE",
"217 469 OFFCURVE",
"371 469 CURVE SMOOTH",
"424 469 OFFCURVE",
"463 459 OFFCURVE",
"506 444 CURVE",
"552 516 LINE",
"506 539 OFFCURVE",
"455 555 OFFCURVE",
"385 555 CURVE SMOOTH",
"143 555 OFFCURVE",
"40 389 OFFCURVE",
"40 223 CURVE SMOOTH",
"40 100 OFFCURVE",
"126 -9 OFFCURVE",
"271 -9 CURVE SMOOTH",
"346 -9 OFFCURVE",
"420 12 OFFCURVE",
"482 39 CURVE",
"532 302 LINE"
);
}
);
width = 597;
}
);
unicode = 0047;
},
{
color = 4;
glyphname = H;
lastChange = "2014-11-18 17:09:04 +0000";
layers = (
{
layerId = "CFA4B904-E3F1-48B6-A7F6-47DC1FF2A3E1";
name = Bold;
paths = (
{
closed = 1;
nodes = (
"524 0 LINE",
"427 0 LINE",
"472 230 LINE",
"206 230 LINE",
"161 0 LINE",
"63 0 LINE",
"170 550 LINE",
"268 550 LINE",
"223 319 LINE",
"489 319 LINE",
"534 550 LINE",
"631 550 LINE"
);
}
);
width = 694;
}
);
unicode = 0048;
},
{
color = 4;
glyphname = I;
lastChange = "2014-11-18 16:27:15 +0000";
layers = (
{
anchors = (
{
name = top.cap;
position = "{219, 550}";
}
);
layerId = "CFA4B904-E3F1-48B6-A7F6-47DC1FF2A3E1";
name = Bold;
paths = (
{
closed = 1;
nodes = (
"161 0 LINE",
"63 0 LINE",
"170 550 LINE",
"268 550 LINE"
);
}
);
width = 331;
}
);
unicode = 0049;
},
{
color = 4;
glyphname = IJ;
lastChange = "2014-11-18 18:11:25 +0000";
layers = (
{
anchors = (
{
name = top.cap;
position = "{569, 550}";
}
);
background = {
paths = (
{
closed = 1;
nodes = (
"548 202 LINE SMOOTH",
"531 114 OFFCURVE",
"483 -7 OFFCURVE",
"298 -7 CURVE SMOOTH",
"273 -7 OFFCURVE",
"246 -5 OFFCURVE",
"220 2 CURVE",
"212 8 LINE",
"244 93 LINE",
"263 90 LINE SMOOTH",
"281 85 OFFCURVE",
"295 83 OFFCURVE",
"314 83 CURVE SMOOTH",
"425 83 OFFCURVE",
"442 156 OFFCURVE",
"450 196 CURVE SMOOTH",
"519 550 LINE",
"616 550 LINE"
);
}
);
};
components = (
{
name = I;
transform = "{1, 0, 0, 1, 0, 0}";
}
);
layerId = "CFA4B904-E3F1-48B6-A7F6-47DC1FF2A3E1";
name = Bold;
paths = (
{
closed = 1;
nodes = (
"544 177 LINE SMOOTH",
"527 89 OFFCURVE",
"480 -7 OFFCURVE",
"306 -7 CURVE SMOOTH",
"268 -7 OFFCURVE",
"237 0 OFFCURVE",
"213 8 CURVE",
"245 93 LINE",
"269 87 OFFCURVE",
"293 83 OFFCURVE",
"315 83 CURVE SMOOTH",
"426 83 OFFCURVE",
"443 156 OFFCURVE",
"451 196 CURVE SMOOTH",
"520 550 LINE",
"617 550 LINE"
);
}
);
width = 666;
}
);
unicode = 0132;
},
{
color = 4;
glyphname = Iogonek;
lastChange = "2014-11-18 17:10:47 +0000";
layers = (
{
layerId = "CFA4B904-E3F1-48B6-A7F6-47DC1FF2A3E1";
name = Bold;
paths = (
{
closed = 1;
nodes = (
"68 -20 OFFCURVE",
"47 -47 OFFCURVE",
"40 -80 CURVE SMOOTH",
"34 -112 OFFCURVE",
"48 -137 OFFCURVE",
"83 -137 CURVE SMOOTH",
"106 -137 OFFCURVE",
"135 -126 OFFCURVE",
"156 -119 CURVE",
"168 -160 LINE",
"130 -180 OFFCURVE",
"87 -200 OFFCURVE",
"29 -200 CURVE SMOOTH",
"-37 -200 OFFCURVE",
"-68 -159 OFFCURVE",
"-58 -106 CURVE SMOOTH",
"-46 -47 OFFCURVE",
"11 -1 OFFCURVE",
"101 35 CURVE",
"199 550 LINE",
"297 550 LINE",
"190 17 LINE"
);
}
);
width = 348;
}
);
unicode = 012E;
},
{
color = 4;
glyphname = J;
lastChange = "2014-11-18 18:10:18 +0000";
layers = (
{
anchors = (
{
name = top.cap;
position = "{372, 550}";
}
);
background = {
paths = (
{
closed = 1;
nodes = (
"352 202 LINE SMOOTH",
"335 114 OFFCURVE",
"287 -7 OFFCURVE",
"102 -7 CURVE SMOOTH",
"77 -7 OFFCURVE",
"50 -5 OFFCURVE",
"24 2 CURVE",
"16 8 LINE",
"48 93 LINE",
"67 90 LINE SMOOTH",
"85 85 OFFCURVE",
"99 83 OFFCURVE",
"118 83 CURVE SMOOTH",
"229 83 OFFCURVE",
"246 156 OFFCURVE",
"254 196 CURVE SMOOTH",
"323 550 LINE",
"420 550 LINE"
);
}
);
};
layerId = "CFA4B904-E3F1-48B6-A7F6-47DC1FF2A3E1";
name = Bold;
paths = (
{
closed = 1;
nodes = (
"347 177 LINE SMOOTH",
"330 89 OFFCURVE",
"283 -7 OFFCURVE",
"109 -7 CURVE SMOOTH",
"71 -7 OFFCURVE",
"40 0 OFFCURVE",
"16 8 CURVE",
"48 93 LINE",
"72 87 OFFCURVE",
"96 83 OFFCURVE",
"118 83 CURVE SMOOTH",
"229 83 OFFCURVE",
"246 156 OFFCURVE",
"254 196 CURVE SMOOTH",
"323 550 LINE",
"420 550 LINE"
);
}
);
width = 469;
}
);
unicode = 004A;
},
{
color = 4;
glyphname = K;
lastChange = "2014-11-18 18:02:47 +0000";
layers = (
{
anchors = (
{
name = bottom;
position = "{275, -10}";
}
);
background = {
paths = (
{
closed = 1;
nodes = (
"60 0 LINE",
"167 550 LINE",
"265 550 LINE",
"158 0 LINE"
);
},
{
closed = 1;
nodes = (
"601 550 LINE",
"333 284 LINE",
"512 0 LINE",
"394 0 LINE",
"221 284 LINE",
"493 550 LINE"
);
}
);
};
layerId = "CFA4B904-E3F1-48B6-A7F6-47DC1FF2A3E1";
name = Bold;
paths = (
{
closed = 1;
nodes = (
"63 0 LINE",
"167 550 LINE",
"265 550 LINE",
"158 0 LINE"
);
},
{
closed = 1;
nodes = (
"599 550 LINE",
"332 278 LINE",
"503 0 LINE",
"394 0 LINE",
"221 284 LINE",
"493 550 LINE"
);
}
);
width = 607;
}
);
unicode = 004B;
},
{
color = 4;
glyphname = L;
lastChange = "2014-11-18 17:05:31 +0000";
layers = (
{
anchors = (
{
name = bottom;
position = "{244, -10}";
},
{
name = top.cap;
position = "{326, 560}";
}
);
background = {
paths = (
{
closed = 1;
nodes = (
"178 89 LINE",
"440 89 LINE",
"423 0 LINE",
"63 0 LINE",
"170 550 LINE",
"268 550 LINE"
);
}
);
};
layerId = "CFA4B904-E3F1-48B6-A7F6-47DC1FF2A3E1";
name = Bold;
paths = (
{
closed = 1;
nodes = (
"178 89 LINE",
"440 89 LINE",
"423 0 LINE",
"63 0 LINE",
"170 550 LINE",
"265 550 LINE"
);
}
);
width = 460;
}
);
unicode = 004C;
},
{
color = 4;
glyphname = Lcaron;
lastChange = "2014-11-18 18:12:30 +0000";
layers = (
{
background = {
paths = (
{
closed = 1;
nodes = (
"171 0 LINE",
"484 0 LINE",
"484 58 LINE",
"237 58 LINE",
"237 550 LINE",
"171 550 LINE"
);
},
{
closed = 1;
nodes = (
"312 435 LINE",
"363 435 LINE",
"411 586 LINE",
"344 586 LINE"
);
}
);
};
components = (
{
name = L;
transform = "{1, 0, 0, 1, 0, 0}";
}
);
layerId = "CFA4B904-E3F1-48B6-A7F6-47DC1FF2A3E1";
name = Bold;
paths = (
{
closed = 1;
nodes = (
"383 413 LINE",
"309 413 LINE",
"384 599 LINE",
"487 599 LINE"
);
}
);
width = 507;
}
);
unicode = 013D;
},
{
color = 4;
glyphname = Lslash;
lastChange = "2014-11-18 18:13:45 +0000";
layers = (
{
background = {
paths = (
{
closed = 1;
nodes = (
"180 282 LINE",
"104 238 LINE",
"104 170 LINE",
"180 215 LINE",
"180 0 LINE",
"493 0 LINE",
"493 58 LINE",
"246 58 LINE",
"246 253 LINE",
"347 312 LINE",
"347 380 LINE",
"246 321 LINE",
"246 550 LINE",
"180 550 LINE"
);
}
);
};
layerId = "CFA4B904-E3F1-48B6-A7F6-47DC1FF2A3E1";
name = Bold;
paths = (
{
closed = 1;
nodes = (
"349 325 LINE",
"0 142 LINE",
"22 242 LINE",
"371 424 LINE"
);
},
{
closed = 1;
nodes = (
"187 89 LINE",
"448 89 LINE",
"431 0 LINE",
"73 0 LINE",
"180 550 LINE",
"274 550 LINE"
);
}
);
width = 468;
}
);
unicode = 0141;
},
{
color = 4;
glyphname = M;
lastChange = "2014-11-18 17:14:46 +0000";
layers = (
{
background = {
paths = (
{
closed = 1;
nodes = (
"389 249 LINE",
"599 550 LINE",
"722 550 LINE",
"615 0 LINE",
"518 0 LINE",
"598 415 LINE",
"405 141 LINE",
"321 141 LINE",
"237 415 LINE",
"157 0 LINE",
"59 0 LINE",
"166 550 LINE",
"298 550 LINE"
);
}
);
};
guideLines = (
{
position = "{372, 414}";
}
);
layerId = "CFA4B904-E3F1-48B6-A7F6-47DC1FF2A3E1";
name = Bold;
paths = (
{
closed = 1;
nodes = (
"379 249 LINE",
"585 550 LINE",
"722 550 LINE",
"615 0 LINE",
"518 0 LINE",
"598 415 LINE",
"408 141 LINE",
"323 141 LINE",
"237 415 LINE",
"157 0 LINE",
"63 0 LINE",
"166 550 LINE",
"291 550 LINE"
);
}
);
width = 785;
}
);
unicode = 004D;
},
{
color = 4;
glyphname = N;
lastChange = "2014-11-18 17:10:21 +0000";
layers = (
{
anchors = (
{
name = bottom;
position = "{299, 0}";
},
{
name = top.cap;
position = "{421, 560}";
}
);
background = {
paths = (
{
closed = 1;
nodes = (
"469 142 LINE",
"547 550 LINE",
"646 550 LINE",
"539 0 LINE",
"419 0 LINE",
"234 409 LINE",
"155 0 LINE",
"57 0 LINE",
"164 550 LINE",
"282 550 LINE"
);
}
);
};
layerId = "CFA4B904-E3F1-48B6-A7F6-47DC1FF2A3E1";
name = Bold;
paths = (
{
closed = 1;
nodes = (
"468 132 LINE",
"547 550 LINE",
"643 550 LINE",
"539 0 LINE",
"425 0 LINE",
"236 419 LINE",
"161 0 LINE",
"63 0 LINE",
"164 550 LINE",
"282 550 LINE"
);
}
);
width = 706;
}
);
unicode = 004E;
},
{
color = 4;
glyphname = Ncaron;
lastChange = "2014-11-18 17:24:48 +0000";
layers = (
{
components = (
{
name = N;
transform = "{1, 0, 0, 1, 0, 0}";
}
);
layerId = "CFA4B904-E3F1-48B6-A7F6-47DC1FF2A3E1";
name = Bold;
paths = (
{
closed = 1;
nodes = (
"328 767 LINE",
"419 684 LINE",
"548 766 LINE",
"586 709 LINE",
"410 595 LINE",
"275 719 LINE"
);
}
);
width = 706;
}
);
unicode = 0147;
},
{
color = 4;
glyphname = O;
lastChange = "2014-11-18 17:46:31 +0000";
layers = (
{
anchors = (
{
name = top.cap;
position = "{361, 560}";
}
);
background = {
anchors = (
{
name = top.cap;
position = "{314, 560}";
}
);
paths = (
{
closed = 1;
nodes = (
"526 557 OFFCURVE",
"623 453 OFFCURVE",
"591 287 CURVE SMOOTH",
"557 115 OFFCURVE",
"414 -7 OFFCURVE",
"255 -7 CURVE SMOOTH",
"121 -7 OFFCURVE",
"9 85 OFFCURVE",
"44 268 CURVE SMOOTH",
"78 442 OFFCURVE",
"222 557 OFFCURVE",
"377 557 CURVE SMOOTH"
);
},
{
closed = 1;
nodes = (
"265 466 OFFCURVE",
"173 416 OFFCURVE",
"148 288 CURVE SMOOTH",
"124 162 OFFCURVE",
"189 85 OFFCURVE",
"289 85 CURVE SMOOTH",
"368 85 OFFCURVE",
"462 136 OFFCURVE",
"487 268 CURVE SMOOTH",
"515 410 OFFCURVE",
"428 466 OFFCURVE",
"346 466 CURVE SMOOTH"
);
}
);
};
layerId = "CFA4B904-E3F1-48B6-A7F6-47DC1FF2A3E1";
name = Bold;
paths = (
{
closed = 1;
nodes = (
"360 555 CURVE",
"143 555 OFFCURVE",
"40 389 OFFCURVE",
"40 223 CURVE SMOOTH",
"40 106 OFFCURVE",
"113 -10 OFFCURVE",
"281 -10 CURVE",
"492 -10 OFFCURVE",
"595 156 OFFCURVE",
"595 322 CURVE SMOOTH",
"595 439 OFFCURVE",
"512 555 OFFCURVE"
);
},
{
closed = 1;
nodes = (
"192 78 OFFCURVE",
"144 139 OFFCURVE",
"144 240 CURVE SMOOTH",
"144 337.013 OFFCURVE",
"206 467 OFFCURVE",
"337.258 466.91 CURVE",
"433 466 OFFCURVE",
"491 398.96 OFFCURVE",
"491 305 CURVE SMOOTH",
"491 207.987 OFFCURVE",
"429 78 OFFCURVE",
"297.742 78.0899 CURVE"
);
}
);
width = 635;
}
);
unicode = 004F;
},
{
color = 4;
glyphname = Oslash;
lastChange = "2014-11-18 17:56:06 +0000";
layers = (
{
background = {
paths = (
{
closed = 1;
nodes = (
"202 -8 LINE",
"274 62 LINE",
"317 20 OFFCURVE",
"374 -7 OFFCURVE",
"453 -7 CURVE SMOOTH",
"565 -7 OFFCURVE",
"638 49 OFFCURVE",
"678 127 CURVE SMOOTH",
"698 169 OFFCURVE",
"709 219 OFFCURVE",
"709 275 CURVE SMOOTH",
"709 331 OFFCURVE",
"698 383 OFFCURVE",
"669 437 CURVE",
"747 511 LINE",
"705 556 LINE",
"632 486 LINE",
"589 529 OFFCURVE",
"532 556 OFFCURVE",
"453 556 CURVE SMOOTH",
"339 556 OFFCURVE",
"266 500 OFFCURVE",
"227 424 CURVE SMOOTH",
"206 380 OFFCURVE",
"195 331 OFFCURVE",
"195 275 CURVE SMOOTH",
"195 219 OFFCURVE",
"206 169 OFFCURVE",
"227 127 CURVE SMOOTH",
"236 109 LINE",
"160 37 LINE"
);
},
{
closed = 1;
nodes = (
"266 317 OFFCURVE",
"274 355 OFFCURVE",
"290 389 CURVE SMOOTH",
"318 447 OFFCURVE",
"362 498 OFFCURVE",
"453 498 CURVE SMOOTH",
"515 498 OFFCURVE",
"555 475 OFFCURVE",
"584 440 CURVE",
"290 160 LINE",
"290 161 LINE",
"274 194 OFFCURVE",
"266 232 OFFCURVE",
"266 275 CURVE SMOOTH"
);
},
{
closed = 1;
nodes = (
"390 51 OFFCURVE",
"351 74 OFFCURVE",
"323 107 CURVE",
"615 387 LINE",
"632 353 OFFCURVE",
"639 315 OFFCURVE",
"639 275 CURVE SMOOTH",
"639 232 OFFCURVE",
"632 194 OFFCURVE",
"615 161 CURVE",
"588 101 OFFCURVE",
"542 51 OFFCURVE",
"453 51 CURVE SMOOTH"
);
}
);
};
components = (
{
name = O;
transform = "{1, 0, 0, 1, 23, 0}";
}
);
layerId = "CFA4B904-E3F1-48B6-A7F6-47DC1FF2A3E1";
name = Bold;
paths = (
{
closed = 1;
nodes = (
"637 574 LINE",
"-12 56 LINE",
"40 -16 LINE",
"691 506 LINE"
);
}
);
width = 679;
}
);
unicode = 00D8;
},
{
color = 4;
glyphname = OE;
lastChange = "2014-11-18 19:22:52 +0000";
layers = (
{
background = {
paths = (
{
closed = 1;
nodes = (
"775 462 LINE",
"522 462 LINE",
"495 324 LINE",
"721 324 LINE",
"704 235 LINE",
"478 235 LINE",
"449 89 LINE",
"702 89 LINE",
"685 0 LINE",
"333 0 LINE SMOOTH",
"286 0 OFFCURVE",
"238 -1 OFFCURVE",
"190 9 CURVE",
"46 53 OFFCURVE",
"26 171 OFFCURVE",
"48 285 CURVE SMOOTH",
"72 404 OFFCURVE",
"164 550 OFFCURVE",
"396 550 CURVE SMOOTH",
"792 550 LINE"
);
},
{
closed = 1;
nodes = (
"248 462 OFFCURVE",
"171 403 OFFCURVE",
"149 286 CURVE SMOOTH",
"122 150 OFFCURVE",
"181 89 OFFCURVE",
"307 89 CURVE SMOOTH",
"353 89 LINE",
"426 462 LINE",
"372 462 LINE SMOOTH"
);
}
);
};
layerId = "CFA4B904-E3F1-48B6-A7F6-47DC1FF2A3E1";
name = Bold;
paths = (
{
closed = 1;
nodes = (
"765 462 LINE",
"522 462 LINE",
"495 324 LINE",
"711 324 LINE",
"694 235 LINE",
"478 235 LINE",
"449 89 LINE",
"702 89 LINE",
"685 0 LINE",
"333 0 LINE SMOOTH",
"157 0 OFFCURVE",
"40 54 OFFCURVE",
"40 231 CURVE SMOOTH",
"40 369 OFFCURVE",
"118 550 OFFCURVE",
"396 550 CURVE SMOOTH",
"782 550 LINE"
);
},
{
closed = 1;
nodes = (
"201 462 OFFCURVE",
"137 349 OFFCURVE",
"137 231 CURVE SMOOTH",
"137 140 OFFCURVE",
"203 89 OFFCURVE",
"307 89 CURVE SMOOTH",
"353 89 LINE",
"426 462 LINE",
"372 462 LINE SMOOTH"
);
}
);
width = 828;
}
);
unicode = 0152;
},
{
color = 4;
glyphname = P;
lastChange = "2014-11-18 19:12:38 +0000";
layers = (
{
background = {
paths = (
{
closed = 1;
nodes = (
"424 550 OFFCURVE",
"575 544 OFFCURVE",
"546 395 CURVE SMOOTH",
"516 235 OFFCURVE",
"361 213 OFFCURVE",
"241 212 CURVE SMOOTH",
"226 212 OFFCURVE",
"215 214 OFFCURVE",
"200 215 CURVE",
"161 0 LINE",
"63 0 LINE",
"170 550 LINE",
"353 550 LINE SMOOTH"
);
},
{
closed = 1;
nodes = (
"240 304 OFFCURVE",
"255 301 OFFCURVE",
"273 301 CURVE SMOOTH",
"354 301 OFFCURVE",
"430 307 OFFCURVE",
"444 379 CURVE SMOOTH",
"457 449 OFFCURVE",
"392 462 OFFCURVE",
"320 462 CURVE SMOOTH",
"251 462 LINE",
"223 304 LINE"
);
}
);
};
layerId = "CFA4B904-E3F1-48B6-A7F6-47DC1FF2A3E1";
name = Bold;
paths = (
{
closed = 1;
nodes = (
"428 550 OFFCURVE",
"550 525 OFFCURVE",
"550 410 CURVE SMOOTH",
"550 271 OFFCURVE",
"454 212 OFFCURVE",
"261 211 CURVE",
"200 212 LINE",
"161 0 LINE",
"63 0 LINE",
"170 550 LINE",
"343 550 LINE SMOOTH"
);
},
{
closed = 1;
nodes = (
"283 302 LINE",
"398 302 OFFCURVE",
"446 326 OFFCURVE",
"446 394 CURVE SMOOTH",
"446 451 OFFCURVE",
"386 462 OFFCURVE",
"320 462 CURVE SMOOTH",
"251 462 LINE",
"223 302 LINE"
);
}
);
width = 575;
}
);
unicode = 0050;
},
{
color = 4;
glyphname = Thorn;
lastChange = "2014-11-18 19:18:30 +0000";
layers = (
{
background = {
paths = (
{
closed = 1;
nodes = (
"381 449 OFFCURVE",
"429 446 OFFCURVE",
"458 439 CURVE SMOOTH",
"552 412 OFFCURVE",
"562 342 OFFCURVE",
"552 293 CURVE SMOOTH",
"539 225 OFFCURVE",
"494 147 OFFCURVE",
"386 119 CURVE",
"359 111 OFFCURVE",
"310 105 OFFCURVE",
"235 105 CURVE SMOOTH",
"182 105 LINE",
"161 0 LINE",
"63 0 LINE",
"170 550 LINE",
"268 550 LINE",
"248 449 LINE",
"306 449 LINE SMOOTH"
);
},
{
closed = 1;
nodes = (
"268 194 LINE",
"283 194 LINE SMOOTH",
"359 194 OFFCURVE",
"431 189 OFFCURVE",
"446 269 CURVE SMOOTH",
"464 359 OFFCURVE",
"385 360 OFFCURVE",
"308 360 CURVE SMOOTH",
"299 360 LINE",
"231 360 LINE",
"199 194 LINE"
);
}
);
};
layerId = "CFA4B904-E3F1-48B6-A7F6-47DC1FF2A3E1";
name = Bold;
paths = (
{
closed = 1;
nodes = (
"458 449 OFFCURVE",
"555 419 OFFCURVE",
"555 298 CURVE SMOOTH",
"555 141 OFFCURVE",
"429 105 OFFCURVE",
"255 105 CURVE SMOOTH",
"182 105 LINE",
"161 0 LINE",
"63 0 LINE",
"170 550 LINE",
"268 550 LINE",
"248 449 LINE",
"326 449 LINE SMOOTH"
);
},
{
closed = 1;
nodes = (
"268 194 LINE",
"283 194 LINE SMOOTH",
"405 194 OFFCURVE",
"449 208 OFFCURVE",
"449 293 CURVE SMOOTH",
"449 359 OFFCURVE",
"377 360 OFFCURVE",
"308 360 CURVE SMOOTH",
"299 360 LINE",
"231 360 LINE",
"199 194 LINE"
);
}
);
width = 586;
}
);
unicode = 00DE;
},
{
color = 4;
glyphname = Q;
lastChange = "2014-11-18 17:47:51 +0000";
layers = (
{
background = {
paths = (
{
closed = 1;
nodes = (
"426 44 LINE",
"375 11 OFFCURVE",
"318 -7 OFFCURVE",
"256 -7 CURVE SMOOTH",
"122 -7 OFFCURVE",
"10 85 OFFCURVE",
"45 268 CURVE SMOOTH",
"79 442 OFFCURVE",
"223 557 OFFCURVE",
"378 557 CURVE SMOOTH",
"527 557 OFFCURVE",
"624 453 OFFCURVE",
"592 287 CURVE SMOOTH",
"577 212 OFFCURVE",
"543 150 OFFCURVE",
"497 102 CURVE",
"561 29 LINE",
"490 -29 LINE"
);
},
{
closed = 1;
nodes = (
"266 466 OFFCURVE",
"174 416 OFFCURVE",
"149 288 CURVE SMOOTH",
"125 162 OFFCURVE",
"190 85 OFFCURVE",
"290 85 CURVE SMOOTH",
"315 85 OFFCURVE",
"344 91 OFFCURVE",
"373 104 CURVE",
"283 206 LINE",
"356 268 LINE",
"444 162 LINE",
"463 191 OFFCURVE",
"480 225 OFFCURVE",
"488 268 CURVE SMOOTH",
"516 410 OFFCURVE",
"429 466 OFFCURVE",
"347 466 CURVE SMOOTH"
);
}
);
};
components = (
{
name = O;
transform = "{1, 0, 0, 1, 0, 0}";
}
);
layerId = "CFA4B904-E3F1-48B6-A7F6-47DC1FF2A3E1";
name = Bold;
paths = (
{
closed = 1;
nodes = (
"293 194 LINE",
"489 -29 LINE",
"560 29 LINE",
"362 253 LINE"
);
}
);
width = 635;
}
);
unicode = 0051;
},
{
color = 4;
glyphname = R;
lastChange = "2014-11-18 19:21:05 +0000";
layers = (
{
anchors = (
{
name = bottom;
position = "{273, -10}";
},
{
name = top.cap;
position = "{344, 560}";
}
);
background = {
paths = (
{
closed = 1;
nodes = (
"424 550 OFFCURVE",
"575 544 OFFCURVE",
"546 395 CURVE SMOOTH",
"527 298 OFFCURVE",
"458 253 OFFCURVE",
"389 231 CURVE",
"486 0 LINE",
"373 0 LINE",
"286 214 LINE",
"271 213 OFFCURVE",
"256 213 OFFCURVE",
"241 213 CURVE SMOOTH",
"226 213 OFFCURVE",
"215 214 OFFCURVE",
"200 215 CURVE",
"161 0 LINE",
"63 0 LINE",
"170 550 LINE",
"353 550 LINE SMOOTH"
);
},
{
closed = 1;
nodes = (
"240 302 OFFCURVE",
"255 301 OFFCURVE",
"273 301 CURVE SMOOTH",
"354 301 OFFCURVE",
"430 307 OFFCURVE",
"444 379 CURVE SMOOTH",
"457 449 OFFCURVE",
"392 462 OFFCURVE",
"320 462 CURVE SMOOTH",
"251 462 LINE",
"223 304 LINE"
);
}
);
};
layerId = "CFA4B904-E3F1-48B6-A7F6-47DC1FF2A3E1";
name = Bold;
paths = (
{
closed = 1;
nodes = (
"435 550 OFFCURVE",
"550 521 OFFCURVE",
"550 404 CURVE SMOOTH",
"550 324 OFFCURVE",
"501 262 OFFCURVE",
"391 227 CURVE",
"486 0 LINE",
"378 0 LINE",
"294 214 LINE",
"279 213 OFFCURVE",
"256 213 OFFCURVE",
"241 213 CURVE SMOOTH",
"226 213 OFFCURVE",
"215 214 OFFCURVE",
"200 215 CURVE",
"161 0 LINE",
"63 0 LINE",
"170 550 LINE",
"353 550 LINE SMOOTH"
);
},
{
closed = 1;
nodes = (
"240 301 OFFCURVE",
"255 301 OFFCURVE",
"273 301 CURVE SMOOTH",
"390 301 OFFCURVE",
"446 326 OFFCURVE",
"446 395 CURVE SMOOTH",
"446 451 OFFCURVE",
"386 462 OFFCURVE",
"320 462 CURVE SMOOTH",
"251 462 LINE",
"223 304 LINE"
);
}
);
width = 581;
}
);
unicode = 0052;
},
{
color = 4;
glyphname = S;
lastChange = "2014-11-18 18:59:28 +0000";
layers = (
{
anchors = (
{
name = bottom;
position = "{221, -10}";
},
{
name = top.cap;
position = "{370, 560}";
}
);
background = {
paths = (
{
closed = 1;
nodes = (
"283 463 OFFCURVE",
"241 440 OFFCURVE",
"233 403 CURVE SMOOTH",
"214 305 OFFCURVE",
"519 345 OFFCURVE",
"483 160 CURVE SMOOTH",
"467 79 OFFCURVE",
"388 -9 OFFCURVE",
"216 -9 CURVE SMOOTH",
"149 -9 OFFCURVE",
"101 8 OFFCURVE",
"49 29 CURVE",
"40 36 LINE",
"91 125 LINE",
"107 120 LINE SMOOTH",
"174 93 OFFCURVE",
"222 85 OFFCURVE",
"253 85 CURVE SMOOTH",
"323 85 OFFCURVE",
"372 109 OFFCURVE",
"379 146 CURVE",
"404 253 OFFCURVE",
"95 205 OFFCURVE",
"131 393 CURVE SMOOTH",
"150 487 OFFCURVE",
"245 555 OFFCURVE",
"374 555 CURVE SMOOTH",
"455 555 OFFCURVE",
"512 533 OFFCURVE",
"529 527 CURVE SMOOTH",
"536 522 LINE",
"483 432 LINE",
"443 449 OFFCURVE",
"402 463 OFFCURVE",
"349 463 CURVE SMOOTH"
);
}
);
};
layerId = "CFA4B904-E3F1-48B6-A7F6-47DC1FF2A3E1";
name = Bold;
paths = (
{
closed = 1;
nodes = (
"270 463 OFFCURVE",
"232 424 OFFCURVE",
"232 390 CURVE SMOOTH",
"231 307 OFFCURVE",
"484 316 OFFCURVE",
"486 171 CURVE SMOOTH",
"486 102 OFFCURVE",
"444 -9 OFFCURVE",
"232 -9 CURVE SMOOTH",
"159 -9 OFFCURVE",
"97 8 OFFCURVE",
"40 34 CURVE",
"88 121 LINE",
"167 88 OFFCURVE",
"212 85 OFFCURVE",
"247 85 CURVE SMOOTH",
"334 85 OFFCURVE",
"388 125 OFFCURVE",
"380 159 CURVE SMOOTH",
"378 244 OFFCURVE",
"128 227 OFFCURVE",
"128 374 CURVE SMOOTH",
"128 463 OFFCURVE",
"200 555 OFFCURVE",
"374 555 CURVE SMOOTH",
"452 555 OFFCURVE",
"506 531 OFFCURVE",
"534 518 CURVE",
"483 432 LINE",
"443 449 OFFCURVE",
"402 463 OFFCURVE",
"349 463 CURVE SMOOTH"
);
}
);
width = 574;
}
);
unicode = 0053;
},
{
color = 4;
glyphname = T;
lastChange = "2014-11-18 17:17:54 +0000";
layers = (
{
anchors = (
{
name = bottom;
position = "{147, -10}";
},
{
name = top.cap;
position = "{252, 560}";
}
);
layerId = "CFA4B904-E3F1-48B6-A7F6-47DC1FF2A3E1";
name = Bold;
paths = (
{
closed = 1;
nodes = (
"461 462 LINE",
"287 462 LINE",
"197 0 LINE",
"99 0 LINE",
"189 462 LINE",
"9 462 LINE",
"26 550 LINE",
"478 550 LINE"
);
}
);
width = 487;
}
);
unicode = 0054;
},
{
color = 4;
glyphname = Tcedilla;
lastChange = "2014-11-18 19:15:59 +0000";
layers = (
{
background = {
paths = (
{
closed = 1;
nodes = (
"121 -141 OFFCURVE",
"124 -137 OFFCURVE",
"125 -136 CURVE SMOOTH",
"127 -124 OFFCURVE",
"123 -114 OFFCURVE",
"90 -103 CURVE SMOOTH",
"41 -86 LINE",
"83 1 LINE",
"172 462 LINE",
"-8 462 LINE",
"9 550 LINE",
"467 550 LINE",
"450 462 LINE",
"270 462 LINE",
"179 0 LINE",
"163 -40 LINE",
"193 -51 OFFCURVE",
"210 -70 OFFCURVE",
"201 -117 CURVE SMOOTH",
"192 -164 OFFCURVE",
"152 -208 OFFCURVE",
"81 -208 CURVE SMOOTH",
"54 -208 OFFCURVE",
"24 -204 OFFCURVE",
"-6 -192 CURVE",
"-18 -187 LINE",
"16 -121 LINE",
"69 -136 LINE",
"85 -137 OFFCURVE",
"94 -141 OFFCURVE",
"107 -141 CURVE SMOOTH"
);
}
);
};
layerId = "CFA4B904-E3F1-48B6-A7F6-47DC1FF2A3E1";
name = Bold;
paths = (
{
closed = 1;
nodes = (
"162 -141 OFFCURVE",
"165 -135 OFFCURVE",
"165 -128 CURVE SMOOTH",
"165 -118 OFFCURVE",
"159 -111 OFFCURVE",
"130 -103 CURVE SMOOTH",
"66 -85 LINE",
"111 31 LINE",
"197 0 LINE",
"180 -44 LINE",
"231 -62 OFFCURVE",
"245 -85 OFFCURVE",
"245 -117 CURVE SMOOTH",
"245 -162 OFFCURVE",
"210 -210 OFFCURVE",
"134 -210 CURVE SMOOTH",
"97 -210 OFFCURVE",
"66 -204 OFFCURVE",
"19 -187 CURVE",
"45 -119 LINE",
"65 -124 LINE",
"109 -135 LINE",
"128 -139 OFFCURVE",
"136 -141 OFFCURVE",
"147 -141 CURVE SMOOTH"
);
},
{
closed = 1;
nodes = (
"461 462 LINE",
"287 462 LINE",
"197 0 LINE",
"99 0 LINE",
"189 462 LINE",
"9 462 LINE",
"26 550 LINE",
"478 550 LINE"
);
}
);
width = 487;
}
);
unicode = 0162;
},
{
color = 4;
glyphname = U;
lastChange = "2014-11-18 18:15:45 +0000";
layers = (
{
anchors = (
{
name = top.cap;
position = "{354, 560}";
}
);
background = {
paths = (
{
closed = 1;
nodes = (
"25 -9 OFFCURVE",
"46 129 OFFCURVE",
"59 196 CURVE SMOOTH",
"128 550 LINE",
"225 550 LINE",
"158 207 LINE SMOOTH",
"155 190 OFFCURVE",
"155 174 OFFCURVE",
"156 163 CURVE SMOOTH",
"158 112 OFFCURVE",
"199 82 OFFCURVE",
"266 82 CURVE SMOOTH",
"333 82 OFFCURVE",
"379 106 OFFCURVE",
"400 151 CURVE",
"405 168 OFFCURVE",
"409 184 OFFCURVE",
"412 201 CURVE SMOOTH",
"480 550 LINE",
"578 550 LINE",
"510 202 LINE SMOOTH",
"497 135 OFFCURVE",
"458 -9 OFFCURVE",
"238 -9 CURVE SMOOTH"
);
}
);
};
layerId = "CFA4B904-E3F1-48B6-A7F6-47DC1FF2A3E1";
name = Bold;
paths = (
{
closed = 1;
nodes = (
"45 -9 OFFCURVE",
"48 139 OFFCURVE",
"61 206 CURVE SMOOTH",
"128 550 LINE",
"225 550 LINE",
"158 207 LINE SMOOTH",
"146 136 OFFCURVE",
"155 82 OFFCURVE",
"253 82 CURVE SMOOTH",
"354 82 OFFCURVE",
"397 122 OFFCURVE",
"412 201 CURVE SMOOTH",
"480 550 LINE",
"578 550 LINE",
"510 202 LINE SMOOTH",
"497 135 OFFCURVE",
"478 -9 OFFCURVE",
"248 -9 CURVE SMOOTH"
);
}
);
width = 634;
}
);
unicode = 0055;
},
{
color = 4;
glyphname = Uacute;
lastChange = "2014-11-18 18:16:23 +0000";
layers = (
{
components = (
{
name = U;
transform = "{1, 0, 0, 1, 0, 0}";
}
);
layerId = "CFA4B904-E3F1-48B6-A7F6-47DC1FF2A3E1";
name = Bold;
paths = (
{
closed = 1;
nodes = (
"291 580 LINE",
"520 663 LINE",
"486 746 LINE",
"261 641 LINE"
);
}
);
width = 634;
}
);
unicode = 00DA;
},
{
color = 4;
glyphname = Ugrave;
lastChange = "2014-11-18 18:16:23 +0000";
layers = (
{
components = (
{
name = U;
transform = "{1, 0, 0, 1, 0, 0}";
}
);
layerId = "CFA4B904-E3F1-48B6-A7F6-47DC1FF2A3E1";
name = Bold;
paths = (
{
closed = 1;
nodes = (
"253 743 LINE",
"205 668 LINE",
"417 580 LINE",
"457 636 LINE"
);
}
);
width = 634;
}
);
unicode = 00D9;
},
{
color = 4;
glyphname = Uogonek;
lastChange = "2014-11-18 18:54:20 +0000";
layers = (
{
anchors = (
{
name = top.cap;
position = "{356, 560}";
}
);
background = {
paths = (
{
closed = 1;
nodes = (
"499 133 OFFCURVE",
"471 72 OFFCURVE",
"412 42 CURVE",
"336 -8 OFFCURVE",
"243 -33 OFFCURVE",
"233 -85 CURVE SMOOTH",
"227 -116 OFFCURVE",
"243 -138 OFFCURVE",
"278 -138 CURVE SMOOTH",
"301 -138 OFFCURVE",
"332 -126 OFFCURVE",
"350 -119 CURVE",
"361 -160 LINE",
"324 -180 OFFCURVE",
"281 -200 OFFCURVE",
"223 -200 CURVE SMOOTH",
"158 -200 OFFCURVE",
"123 -160 OFFCURVE",
"132 -114 CURVE SMOOTH",
"141 -69 OFFCURVE",
"180 -28 OFFCURVE",
"220 -10 CURVE",
"25 0 OFFCURVE",
"49 134 OFFCURVE",
"61 196 CURVE SMOOTH",
"130 550 LINE",
"227 550 LINE",
"160 207 LINE SMOOTH",
"157 190 OFFCURVE",
"157 174 OFFCURVE",
"158 163 CURVE SMOOTH",
"160 112 OFFCURVE",
"199 82 OFFCURVE",
"268 82 CURVE SMOOTH",
"334 82 OFFCURVE",
"381 106 OFFCURVE",
"401 151 CURVE SMOOTH",
"407 168 OFFCURVE",
"411 184 OFFCURVE",
"414 201 CURVE SMOOTH",
"482 550 LINE",
"580 550 LINE",
"512 202 LINE SMOOTH"
);
}
);
};
layerId = "CFA4B904-E3F1-48B6-A7F6-47DC1FF2A3E1";
name = Bold;
paths = (
{
closed = 1;
nodes = (
"482 550 LINE",
"414 201 LINE SMOOTH",
"399 122 OFFCURVE",
"356 82 OFFCURVE",
"255 82 CURVE SMOOTH",
"157 82 OFFCURVE",
"148 136 OFFCURVE",
"160 207 CURVE SMOOTH",
"227 550 LINE",
"130 550 LINE",
"63 206 LINE SMOOTH",
"50 142 OFFCURVE",
"47 3 OFFCURVE",
"226 -8 CURVE",
"178 -35 OFFCURVE",
"141 -67 OFFCURVE",
"132 -114 CURVE SMOOTH",
"123 -160 OFFCURVE",
"158 -200 OFFCURVE",
"223 -200 CURVE SMOOTH",
"281 -200 OFFCURVE",
"324 -180 OFFCURVE",
"361 -160 CURVE",
"350 -119 LINE",
"332 -126 OFFCURVE",
"301 -138 OFFCURVE",
"278 -138 CURVE SMOOTH",
"243 -138 OFFCURVE",
"227 -116 OFFCURVE",
"233 -85 CURVE SMOOTH",
"240 -50 OFFCURVE",
"308 -18 OFFCURVE",
"359 8 CURVE",
"484 74 OFFCURVE",
"501 144 OFFCURVE",
"512 202 CURVE SMOOTH",
"580 550 LINE"
);
}
);
width = 638;
}
);
unicode = 0172;
},
{
color = 4;
glyphname = V;
lastChange = "2014-11-18 18:22:50 +0000";
layers = (
{
background = {
paths = (
{
closed = 1;
nodes = (
"191 105 LINE",
"415 550 LINE",
"518 550 LINE",
"221 0 LINE",
"104 0 LINE",
"10 550 LINE",
"123 550 LINE"
);
}
);
};
layerId = "CFA4B904-E3F1-48B6-A7F6-47DC1FF2A3E1";
name = Bold;
paths = (
{
closed = 1;
nodes = (
"191 105 LINE",
"415 550 LINE",
"518 550 LINE",
"238 0 LINE",
"115 0 LINE",
"11 550 LINE",
"123 550 LINE"
);
}
);
width = 529;
}
);
unicode = 0056;
},
{
color = 4;
glyphname = W;
lastChange = "2014-11-18 18:24:32 +0000";
layers = (
{
background = {
paths = (
{
closed = 1;
nodes = (
"146 128 LINE",
"361 550 LINE",
"472 550 LINE",
"498 128 LINE",
"718 550 LINE",
"821 550 LINE",
"518 0 LINE",
"416 0 LINE",
"385 423 LINE",
"172 0 LINE",
"71 0 LINE",
"11 550 LINE",
"118 550 LINE"
);
}
);
};
layerId = "CFA4B904-E3F1-48B6-A7F6-47DC1FF2A3E1";
name = Bold;
paths = (
{
closed = 1;
nodes = (
"145 128 LINE",
"348 550 LINE",
"462 550 LINE",
"498 128 LINE",
"718 550 LINE",
"821 550 LINE",
"532 0 LINE",
"420 0 LINE",
"385 423 LINE",
"172 0 LINE",
"71 0 LINE",
"11 550 LINE",
"108 550 LINE"
);
}
);
width = 830;
}
);
unicode = 0057;
},
{
color = 4;
glyphname = X;
lastChange = "2014-11-18 18:27:41 +0000";
layers = (
{
background = {
paths = (
{
closed = 1;
nodes = (
"611 550 LINE",
"381 287 LINE",
"521 0 LINE",
"407 0 LINE",
"307 205 LINE",
"129 0 LINE",
"19 0 LINE",
"269 287 LINE",
"139 550 LINE",
"252 550 LINE",
"343 368 LINE",
"500 550 LINE"
);
}
);
};
layerId = "CFA4B904-E3F1-48B6-A7F6-47DC1FF2A3E1";
name = Bold;
paths = (
{
closed = 1;
nodes = (
"252 550 LINE",
"521 0 LINE",
"415 0 LINE",
"154 550 LINE"
);
},
{
closed = 1;
nodes = (
"611 550 LINE",
"130 1 LINE",
"16 1 LINE",
"497 550 LINE"
);
}
);
width = 627;
}
);
unicode = 0058;
},
{
color = 4;
glyphname = Y;
lastChange = "2014-11-18 18:30:27 +0000";
layers = (
{
anchors = (
{
name = top.cap;
position = "{240, 560}";
}
);
background = {
paths = (
{
closed = 1;
nodes = (
"217 337 LINE",
"397 550 LINE",
"505 550 LINE",
"240 249 LINE",
"193 0 LINE",
"95 0 LINE",
"142 249 LINE",
"7 550 LINE",
"118 550 LINE"
);
}
);
};
layerId = "CFA4B904-E3F1-48B6-A7F6-47DC1FF2A3E1";
name = Bold;
paths = (
{
closed = 1;
nodes = (
"207 337 LINE",
"397 550 LINE",
"505 550 LINE",
"239 242 LINE",
"193 0 LINE",
"95 0 LINE",
"142 249 LINE",
"7 550 LINE",
"107 550 LINE"
);
}
);
width = 509;
}
);
unicode = 0059;
},
{
color = 4;
glyphname = Yacute;
lastChange = "2014-11-18 18:30:27 +0000";
layers = (
{
components = (
{
name = Y;
transform = "{1, 0, 0, 1, 0, 0}";
}
);
layerId = "CFA4B904-E3F1-48B6-A7F6-47DC1FF2A3E1";
name = Bold;
paths = (
{
closed = 1;
nodes = (
"167 580 LINE",
"396 663 LINE",
"362 746 LINE",
"137 641 LINE"
);
}
);
width = 509;
}
);
unicode = 00DD;
},
{
color = 4;
glyphname = Z;
lastChange = "2014-11-18 18:32:23 +0000";
layers = (
{
anchors = (
{
name = top.cap;
position = "{347, 560}";
}
);
background = {
paths = (
{
closed = 1;
nodes = (
"537 491 LINE",
"164 89 LINE",
"461 89 LINE",
"444 0 LINE",
"16 0 LINE",
"29 61 LINE",
"393 462 LINE",
"125 462 LINE",
"142 550 LINE",
"549 550 LINE"
);
}
);
};
layerId = "CFA4B904-E3F1-48B6-A7F6-47DC1FF2A3E1";
name = Bold;
paths = (
{
closed = 1;
nodes = (
"537 491 LINE",
"171 86 LINE",
"461 86 LINE",
"444 0 LINE",
"29 0 LINE",
"29 61 LINE",
"385 462 LINE",
"125 462 LINE",
"142 550 LINE",
"537 550 LINE"
);
}
);
width = 566;
}
);
unicode = 005A;
},
{
color = 4;
glyphname = a;
lastChange = "2014-11-19 05:03:08 +0000";
layers = (
{
anchors = (
{
name = top;
position = "{243, 384}";
}
);
background = {
paths = (
{
closed = 1;
nodes = (
"387 390 OFFCURVE",
"407 328 OFFCURVE",
"390 239 CURVE SMOOTH",
"343 0 LINE",
"266 0 LINE",
"259 29 LINE",
"226 6 OFFCURVE",
"184 -9 OFFCURVE",
"137 -9 CURVE SMOOTH",
"54 -9 OFFCURVE",
"15 37 OFFCURVE",
"27 98 CURVE SMOOTH",
"43 178 OFFCURVE",
"113 223 OFFCURVE",
"215 228 CURVE SMOOTH",
"288 229 LINE",
"300 294 OFFCURVE",
"284 318 OFFCURVE",
"211 318 CURVE SMOOTH",
"176 318 OFFCURVE",
"142 310 OFFCURVE",
"111 299 CURVE",
"114 363 LINE",
"143 372 OFFCURVE",
"198 390 OFFCURVE",
"250 390 CURVE SMOOTH"
);
},
{
closed = 1;
nodes = (
"208 162 LINE SMOOTH",
"157 159 OFFCURVE",
"132 146 OFFCURVE",
"127 119 CURVE SMOOTH",
"120 84 OFFCURVE",
"143 63 OFFCURVE",
"185 63 CURVE SMOOTH",
"226 63 OFFCURVE",
"240 73 OFFCURVE",
"265 84 CURVE",
"280 167 LINE"
);
}
);
};
layerId = "CFA4B904-E3F1-48B6-A7F6-47DC1FF2A3E1";
name = Bold;
paths = (
{
closed = 1;
nodes = (
"381 390 OFFCURVE",
"396 317 OFFCURVE",
"381 228 CURVE SMOOTH",
"343 0 LINE",
"266 0 LINE",
"262 31 LINE",
"229 8 OFFCURVE",
"189 -9 OFFCURVE",
"142 -9 CURVE SMOOTH",
"69 -9 OFFCURVE",
"29 37 OFFCURVE",
"29 87 CURVE SMOOTH",
"29 159 OFFCURVE",
"75 229 OFFCURVE",
"215 229 CURVE SMOOTH",
"288 229 LINE",
"300 294 OFFCURVE",
"284 318 OFFCURVE",
"211 318 CURVE SMOOTH",
"176 318 OFFCURVE",
"126 308 OFFCURVE",
"95 300 CURVE",
"98 364 LINE",
"127 373 OFFCURVE",
"192 390 OFFCURVE",
"244 390 CURVE SMOOTH"
);
},
{
closed = 1;
nodes = (
"208 167 LINE SMOOTH",
"146 167 OFFCURVE",
"126 140 OFFCURVE",
"126 108 CURVE SMOOTH",
"126 80 OFFCURVE",
"145 63 OFFCURVE",
"182 63 CURVE SMOOTH",
"223 63 OFFCURVE",
"242 70 OFFCURVE",
"267 81 CURVE",
"280 167 LINE"
);
}
);
width = 420;
}
);
unicode = 0061;
},
{
color = 4;
glyphname = agrave;
lastChange = "2014-11-19 05:11:53 +0000";
layers = (
{
background = {
paths = (
{
closed = 1;
nodes = (
"228 333 OFFCURVE",
"257 318 OFFCURVE",
"268 288 CURVE",
"273 276 OFFCURVE",
"276 256 OFFCURVE",
"276 228 CURVE SMOOTH",
"276 225 LINE",
"217 224 OFFCURVE",
"171 220 OFFCURVE",
"133 210 CURVE SMOOTH",
"83 198 OFFCURVE",
"38 159 OFFCURVE",
"38 96 CURVE SMOOTH",
"38 33 OFFCURVE",
"93 -10 OFFCURVE",
"161 -10 CURVE SMOOTH",
"204 -10 OFFCURVE",
"242 7 OFFCURVE",
"278 36 CURVE",
"292 0 LINE",
"341 0 LINE",
"341 248 LINE SMOOTH",
"341 359 OFFCURVE",
"286 388 OFFCURVE",
"189 388 CURVE SMOOTH",
"148 388 OFFCURVE",
"105 379 OFFCURVE",
"64 365 CURVE",
"77 317 LINE",
"109 327 OFFCURVE",
"153 333 OFFCURVE",
"180 333 CURVE SMOOTH"
);
},
{
closed = 1;
nodes = (
"136 42 OFFCURVE",
"101 62 OFFCURVE",
"101 103 CURVE SMOOTH",
"101 141 OFFCURVE",
"127 160 OFFCURVE",
"174 170 CURVE SMOOTH",
"189 173 OFFCURVE",
"224 177 OFFCURVE",
"276 178 CURVE",
"276 86 LINE",
"248 60 OFFCURVE",
"217 42 OFFCURVE",
"170 42 CURVE SMOOTH"
);
},
{
closed = 1;
nodes = (
"89 550 LINE",
"239 427 LINE",
"272 465 LINE",
"125 593 LINE"
);
}
);
};
components = (
{
name = a;
transform = "{1, 0, 0, 1, 0, 0}";
},
{
name = grave;
transform = "{1, 0, 0, 1, 165, 0}";
}
);
layerId = "CFA4B904-E3F1-48B6-A7F6-47DC1FF2A3E1";
name = Bold;
width = 420;
}
);
unicode = 00E0;
},
{
color = 4;
glyphname = aogonek;
lastChange = "2014-11-19 05:35:10 +0000";
layers = (
{
anchors = (
{
name = top;
position = "{243, 384}";
}
);
background = {
paths = (
{
closed = 1;
nodes = (
"285 -26 OFFCURVE",
"222 -58 OFFCURVE",
"215 -94 CURVE SMOOTH",
"209 -123 OFFCURVE",
"226 -140 OFFCURVE",
"256 -140 CURVE SMOOTH",
"278 -140 OFFCURVE",
"309 -126 OFFCURVE",
"330 -115 CURVE",
"345 -156 LINE",
"307 -177 OFFCURVE",
"266 -200 OFFCURVE",
"207 -200 CURVE SMOOTH",
"149 -200 OFFCURVE",
"111 -167 OFFCURVE",
"119 -123 CURVE SMOOTH",
"134 -47 OFFCURVE",
"221 -17 OFFCURVE",
"270 7 CURVE",
"261 29 LINE",
"228 6 OFFCURVE",
"186 -9 OFFCURVE",
"139 -9 CURVE SMOOTH",
"56 -9 OFFCURVE",
"17 37 OFFCURVE",
"29 98 CURVE SMOOTH",
"45 178 OFFCURVE",
"115 223 OFFCURVE",
"217 228 CURVE SMOOTH",
"290 229 LINE",
"302 294 OFFCURVE",
"286 318 OFFCURVE",
"213 318 CURVE SMOOTH",
"178 318 OFFCURVE",
"144 310 OFFCURVE",
"113 299 CURVE",
"116 363 LINE",
"145 372 OFFCURVE",
"200 390 OFFCURVE",
"252 390 CURVE SMOOTH",
"389 390 OFFCURVE",
"409 328 OFFCURVE",
"392 239 CURVE SMOOTH",
"343 1 LINE"
);
},
{
closed = 1;
nodes = (
"210 162 LINE SMOOTH",
"159 159 OFFCURVE",
"134 146 OFFCURVE",
"129 119 CURVE SMOOTH",
"122 84 OFFCURVE",
"145 63 OFFCURVE",
"187 63 CURVE SMOOTH",
"228 63 OFFCURVE",
"242 73 OFFCURVE",
"267 84 CURVE",
"282 167 LINE"
);
}
);
};
layerId = "CFA4B904-E3F1-48B6-A7F6-47DC1FF2A3E1";
name = Bold;
paths = (
{
closed = 1;
nodes = (
"381 228 LINE SMOOTH",
"396 317 OFFCURVE",
"381 390 OFFCURVE",
"244 390 CURVE SMOOTH",
"192 390 OFFCURVE",
"127 373 OFFCURVE",
"98 364 CURVE",
"95 300 LINE",
"126 308 OFFCURVE",
"176 318 OFFCURVE",
"211 318 CURVE SMOOTH",
"284 318 OFFCURVE",
"300 294 OFFCURVE",
"288 229 CURVE",
"215 229 LINE SMOOTH",
"75 229 OFFCURVE",
"29 159 OFFCURVE",
"29 87 CURVE SMOOTH",
"29 37 OFFCURVE",
"69 -9 OFFCURVE",
"142 -9 CURVE SMOOTH",
"189 -9 OFFCURVE",
"229 8 OFFCURVE",
"262 31 CURVE",
"270 7 LINE",
"221 -17 OFFCURVE",
"134 -47 OFFCURVE",
"119 -123 CURVE SMOOTH",
"111 -167 OFFCURVE",
"149 -200 OFFCURVE",
"207 -200 CURVE SMOOTH",
"266 -200 OFFCURVE",
"307 -177 OFFCURVE",
"345 -156 CURVE",
"330 -115 LINE",
"309 -126 OFFCURVE",
"278 -140 OFFCURVE",
"256 -140 CURVE SMOOTH",
"226 -140 OFFCURVE",
"209 -123 OFFCURVE",
"215 -94 CURVE SMOOTH",
"222 -58 OFFCURVE",
"285 -27 OFFCURVE",
"343 0 CURVE"
);
},
{
closed = 1;
nodes = (
"267 81 LINE",
"242 70 OFFCURVE",
"223 63 OFFCURVE",
"182 63 CURVE SMOOTH",
"145 63 OFFCURVE",
"126 80 OFFCURVE",
"126 108 CURVE SMOOTH",
"126 140 OFFCURVE",
"146 167 OFFCURVE",
"208 167 CURVE SMOOTH",
"280 167 LINE"
);
}
);
width = 420;
}
);
unicode = 0105;
},
{
color = 4;
glyphname = ae;
lastChange = "2014-11-19 07:28:12 +0000";
layers = (
{
background = {
paths = (
{
closed = 1;
nodes = (
"610 390 OFFCURVE",
"643 314 OFFCURVE",
"620 193 CURVE SMOOTH",
"612 153 LINE",
"361 156 LINE",
"353 87 OFFCURVE",
"390 66 OFFCURVE",
"461 66 CURVE SMOOTH",
"504 66 OFFCURVE",
"537 70 OFFCURVE",
"566 77 CURVE",
"566 14 LINE",
"526 1 OFFCURVE",
"484 -10 OFFCURVE",
"431 -10 CURVE SMOOTH",
"368 -10 OFFCURVE",
"325 6 OFFCURVE",
"300 38 CURVE",
"231 1 OFFCURVE",
"179 -9 OFFCURVE",
"141 -9 CURVE SMOOTH",
"58 -9 OFFCURVE",
"19 37 OFFCURVE",
"31 98 CURVE SMOOTH",
"47 178 OFFCURVE",
"117 223 OFFCURVE",
"219 228 CURVE SMOOTH",
"292 229 LINE",
"304 294 OFFCURVE",
"288 318 OFFCURVE",
"215 318 CURVE SMOOTH",
"180 318 OFFCURVE",
"146 310 OFFCURVE",
"115 299 CURVE",
"118 363 LINE",
"147 372 OFFCURVE",
"202 390 OFFCURVE",
"254 390 CURVE SMOOTH",
"325 390 OFFCURVE",
"352 374 OFFCURVE",
"376 347 CURVE",
"409 370 OFFCURVE",
"452 390 OFFCURVE",
"494 390 CURVE SMOOTH"
);
},
{
closed = 1;
nodes = (
"161 159 OFFCURVE",
"136 146 OFFCURVE",
"131 119 CURVE SMOOTH",
"124 84 OFFCURVE",
"147 63 OFFCURVE",
"189 63 CURVE SMOOTH",
"224 63 OFFCURVE",
"246 68 OFFCURVE",
"270 83 CURVE",
"285 167 LINE",
"212 162 LINE SMOOTH"
);
},
{
closed = 1;
nodes = (
"435 315 OFFCURVE",
"392 287 OFFCURVE",
"376 223 CURVE",
"531 217 LINE",
"544 281 OFFCURVE",
"518 315 OFFCURVE",
"471 315 CURVE SMOOTH"
);
}
);
};
layerId = "CFA4B904-E3F1-48B6-A7F6-47DC1FF2A3E1";
name = Bold;
paths = (
{
closed = 1;
nodes = (
"429 390 OFFCURVE",
"388 374 OFFCURVE",
"355 348 CURVE",
"335 374 OFFCURVE",
"307.963 390 OFFCURVE",
"244 390 CURVE SMOOTH",
"192 390 OFFCURVE",
"127 373 OFFCURVE",
"97.9999 364 CURVE",
"94.9999 300 LINE",
"126 308 OFFCURVE",
"176 318 OFFCURVE",
"211 318 CURVE SMOOTH",
"284 318 OFFCURVE",
"300 294 OFFCURVE",
"288 229 CURVE",
"215 229 LINE SMOOTH",
"74.9999 229 OFFCURVE",
"28.9999 159 OFFCURVE",
"28.9999 87 CURVE SMOOTH",
"28.9999 37 OFFCURVE",
"68.9999 -9 OFFCURVE",
"142 -9 CURVE SMOOTH",
"211 -9 OFFCURVE",
"278 19 OFFCURVE",
"314 43 CURVE",
"339 11 OFFCURVE",
"364 -10 OFFCURVE",
"424 -10 CURVE SMOOTH",
"478 -10 OFFCURVE",
"527 1 OFFCURVE",
"568 14 CURVE",
"568 77 LINE",
"539 70 OFFCURVE",
"505 66 OFFCURVE",
"462 66 CURVE SMOOTH",
"392 66 OFFCURVE",
"357 87 OFFCURVE",
"365 156 CURVE",
"611 153 LINE",
"619 193 LINE SMOOTH",
"642 314 OFFCURVE",
"589 390 OFFCURVE",
"477 390 CURVE SMOOTH"
);
},
{
closed = 1;
nodes = (
"372 217 LINE",
"388 281 OFFCURVE",
"423 315 OFFCURVE",
"464 315 CURVE SMOOTH",
"513 315 OFFCURVE",
"546 281 OFFCURVE",
"533 217 CURVE"
);
},
{
closed = 1;
nodes = (
"145 63 OFFCURVE",
"126 80 OFFCURVE",
"126 108 CURVE SMOOTH",
"126 140 OFFCURVE",
"146 167 OFFCURVE",
"208 167 CURVE SMOOTH",
"279.695 167 LINE",
"279.489 163.621 LINE",
"267 81 LINE",
"242 70 OFFCURVE",
"223 63 OFFCURVE",
"182 63 CURVE SMOOTH"
);
}
);
width = 653;
}
);
unicode = 00E6;
},
{
color = 4;
glyphname = b;
lastChange = "2014-11-19 05:31:16 +0000";
layers = (
{
background = {
paths = (
{
closed = 1;
nodes = (
"224 373 LINE",
"253 385 OFFCURVE",
"286 390 OFFCURVE",
"321 390 CURVE SMOOTH",
"403 390 OFFCURVE",
"494 343 OFFCURVE",
"466 198 CURVE SMOOTH",
"441 72 OFFCURVE",
"351 -9 OFFCURVE",
"224 -9 CURVE SMOOTH",
"185 -9 OFFCURVE",
"155 3 OFFCURVE",
"131 19 CURVE",
"120 0 LINE",
"53 0 LINE",
"160 550 LINE",
"256 550 LINE"
);
},
{
closed = 1;
nodes = (
"253 315 OFFCURVE",
"233 314 OFFCURVE",
"206 303 CURVE",
"168 87 LINE",
"182 76 OFFCURVE",
"203 66 OFFCURVE",
"233 66 CURVE SMOOTH",
"292 66 OFFCURVE",
"347 93 OFFCURVE",
"364 179 CURVE SMOOTH",
"384 282 OFFCURVE",
"337 315 OFFCURVE",
"274 315 CURVE SMOOTH"
);
}
);
};
layerId = "CFA4B904-E3F1-48B6-A7F6-47DC1FF2A3E1";
name = Bold;
paths = (
{
closed = 1;
nodes = (
"224 373 LINE",
"253 385 OFFCURVE",
"282 390 OFFCURVE",
"317 390 CURVE SMOOTH",
"392 390 OFFCURVE",
"469 334 OFFCURVE",
"469 227 CURVE SMOOTH",
"469 129 OFFCURVE",
"412 -9 OFFCURVE",
"250 -9 CURVE SMOOTH",
"201 -9 OFFCURVE",
"159 10 OFFCURVE",
"135 26 CURVE",
"120 0 LINE",
"53 0 LINE",
"160 550 LINE",
"256 550 LINE"
);
},
{
closed = 1;
nodes = (
"253 315 OFFCURVE",
"233 314 OFFCURVE",
"206 303 CURVE",
"162 84 LINE",
"181 74 OFFCURVE",
"203 66 OFFCURVE",
"233 66 CURVE SMOOTH",
"332 66 OFFCURVE",
"369 143 OFFCURVE",
"369 225 CURVE SMOOTH",
"369 292 OFFCURVE",
"326 315 OFFCURVE",
"274 315 CURVE SMOOTH"
);
}
);
width = 499;
}
);
unicode = 0062;
},
{
color = 4;
glyphname = c;
lastChange = "2014-11-19 06:10:42 +0000";
layers = (
{
anchors = (
{
name = top;
position = "{267, 384}";
}
);
background = {
paths = (
{
closed = 1;
nodes = (
"121 121 OFFCURVE",
"156 66 OFFCURVE",
"231 66 CURVE SMOOTH",
"270 66 OFFCURVE",
"303 77 OFFCURVE",
"337 88 CURVE",
"349 29 LINE",
"309 9 OFFCURVE",
"261 -10 OFFCURVE",
"190 -10 CURVE SMOOTH",
"71 -10 OFFCURVE",
"11 67 OFFCURVE",
"34 183 CURVE SMOOTH",
"59 311 OFFCURVE",
"155 390 OFFCURVE",
"278 390 CURVE SMOOTH",
"345 390 OFFCURVE",
"381 374 OFFCURVE",
"415 356 CURVE",
"371 291 LINE",
"341 302 OFFCURVE",
"312 315 OFFCURVE",
"269 315 CURVE SMOOTH",
"192 315 OFFCURVE",
"149 266 OFFCURVE",
"135 197 CURVE SMOOTH"
);
}
);
};
layerId = "CFA4B904-E3F1-48B6-A7F6-47DC1FF2A3E1";
name = Bold;
paths = (
{
closed = 1;
nodes = (
"132 228 OFFCURVE",
"132 166 CURVE SMOOTH",
"132 107 OFFCURVE",
"167 66 OFFCURVE",
"231 66 CURVE SMOOTH",
"270 66 OFFCURVE",
"303 77 OFFCURVE",
"337 88 CURVE",
"351 21 LINE",
"311 6 OFFCURVE",
"261 -10 OFFCURVE",
"190 -10 CURVE SMOOTH",
"88 -10 OFFCURVE",
"29 61 OFFCURVE",
"29 151 CURVE SMOOTH",
"29 252 OFFCURVE",
"91 390 OFFCURVE",
"278 390 CURVE SMOOTH",
"329 390 OFFCURVE",
"371 378 OFFCURVE",
"405 361 CURVE",
"363 298 LINE",
"333 309 OFFCURVE",
"309 315 OFFCURVE",
"269 315 CURVE SMOOTH",
"168 315 OFFCURVE"
);
}
);
width = 426;
}
);
unicode = 0063;
},
{
color = 4;
glyphname = ccedilla;
lastChange = "2014-11-19 06:11:25 +0000";
layers = (
{
background = {
paths = (
{
closed = 1;
nodes = (
"45 121 OFFCURVE",
"80 66 OFFCURVE",
"155 66 CURVE SMOOTH",
"194 66 OFFCURVE",
"227 77 OFFCURVE",
"261 88 CURVE",
"273 29 LINE",
"236 10 OFFCURVE",
"197 -6 OFFCURVE",
"139 -10 CURVE",
"130 -41 LINE",
"168 -52 OFFCURVE",
"199 -73 OFFCURVE",
"190 -117 CURVE SMOOTH",
"181 -164 OFFCURVE",
"142 -208 OFFCURVE",
"73 -208 CURVE SMOOTH",
"43 -208 OFFCURVE",
"16 -204 OFFCURVE",
"-16 -192 CURVE",
"-26 -187 LINE",
"6 -121 LINE",
"59 -136 LINE",
"75 -137 OFFCURVE",
"86 -141 OFFCURVE",
"96 -141 CURVE SMOOTH",
"113 -141 OFFCURVE",
"114 -137 OFFCURVE",
"115 -136 CURVE SMOOTH",
"117 -124 OFFCURVE",
"114 -114 OFFCURVE",
"81 -103 CURVE SMOOTH",
"32 -86 LINE",
"68 -7 LINE",
"-22 13 OFFCURVE",
"-62 84 OFFCURVE",
"-42 183 CURVE SMOOTH",
"-17 311 OFFCURVE",
"79 390 OFFCURVE",
"202 390 CURVE SMOOTH",
"274 390 OFFCURVE",
"304 372 OFFCURVE",
"339 356 CURVE",
"295 291 LINE",
"265 302 OFFCURVE",
"236 315 OFFCURVE",
"193 315 CURVE SMOOTH",
"116 315 OFFCURVE",
"73 266 OFFCURVE",
"59 197 CURVE SMOOTH"
);
}
);
};
components = (
{
name = c;
transform = "{1, 0, 0, 1, 0, 0}";
},
{
name = cedilla;
transform = "{1, 0, 0, 1, 180, 0}";
}
);
layerId = "CFA4B904-E3F1-48B6-A7F6-47DC1FF2A3E1";
name = Bold;
width = 426;
}
);
unicode = 00E7;
},
{
color = 4;
glyphname = d;
lastChange = "2014-11-19 06:21:53 +0000";
layers = (
{
background = {
paths = (
{
closed = 1;
nodes = (
"373 0 LINE",
"303 0 LINE",
"299 23 LINE",
"269 7 OFFCURVE",
"230 -9 OFFCURVE",
"187 -9 CURVE SMOOTH",
"67 -9 OFFCURVE",
"11 66 OFFCURVE",
"34 184 CURVE SMOOTH",
"64 337 OFFCURVE",
"188 390 OFFCURVE",
"267 390 CURVE SMOOTH",
"298 390 OFFCURVE",
"327 387 OFFCURVE",
"352 375 CURVE",
"384 550 LINE",
"480 550 LINE"
);
},
{
closed = 1;
nodes = (
"204 315 OFFCURVE",
"153 288 OFFCURVE",
"135 193 CURVE SMOOTH",
"116 99 OFFCURVE",
"163 66 OFFCURVE",
"229 66 CURVE SMOOTH",
"254 66 OFFCURVE",
"276 72 OFFCURVE",
"295 83 CURVE",
"334 301 LINE",
"311 312 OFFCURVE",
"289 315 OFFCURVE",
"264 315 CURVE SMOOTH"
);
}
);
};
layerId = "CFA4B904-E3F1-48B6-A7F6-47DC1FF2A3E1";
name = Bold;
paths = (
{
closed = 1;
nodes = (
"373 0 LINE",
"303 0 LINE",
"299 23 LINE",
"274 7 OFFCURVE",
"236 -9 OFFCURVE",
"187 -9 CURVE SMOOTH",
"91 -9 OFFCURVE",
"29 68 OFFCURVE",
"29 157 CURVE SMOOTH",
"29 277 OFFCURVE",
"110 390 OFFCURVE",
"257 390 CURVE SMOOTH",
"288 390 OFFCURVE",
"327 384 OFFCURVE",
"352 375 CURVE",
"384 550 LINE",
"477 550 LINE"
);
},
{
closed = 1;
nodes = (
"167 315 OFFCURVE",
"131 233 OFFCURVE",
"131 161 CURVE SMOOTH",
"131 86 OFFCURVE",
"173 66 OFFCURVE",
"229 66 CURVE SMOOTH",
"254 66 OFFCURVE",
"282 72 OFFCURVE",
"301 83 CURVE",
"340 301 LINE",
"317 312 OFFCURVE",
"289 315 OFFCURVE",
"264 315 CURVE SMOOTH"
);
}
);
width = 530;
}
);
unicode = 0064;
},
{
color = 4;
glyphname = eth;
lastChange = "2014-11-19 07:42:42 +0000";
layers = (
{
background = {
paths = (
{
closed = 1;
nodes = (
"462 478 LINE",
"449 539 LINE",
"355 502 LINE",
"321 535 OFFCURVE",
"285 554 OFFCURVE",
"264 566 CURVE",
"219 506 LINE",
"236 498 OFFCURVE",
"256 488 OFFCURVE",
"274 473 CURVE",
"211 448 LINE",
"225 388 LINE",
"318 425 LINE",
"328 406 OFFCURVE",
"336 383 OFFCURVE",
"334 353 CURVE",
"306 361 OFFCURVE",
"276 367 OFFCURVE",
"246 367 CURVE SMOOTH",
"145 367 OFFCURVE",
"50 308 OFFCURVE",
"27 189 CURVE SMOOTH",
"3 68 OFFCURVE",
"66 -9 OFFCURVE",
"190 -9 CURVE SMOOTH",
"293 -9 OFFCURVE",
"400 70 OFFCURVE",
"427 211 CURVE SMOOTH",
"449 323 OFFCURVE",
"429 399 OFFCURVE",
"396 451 CURVE"
);
},
{
closed = 1;
nodes = (
"142 67 OFFCURVE",
"108 107 OFFCURVE",
"121 175 CURVE SMOOTH",
"139 266 OFFCURVE",
"202 295 OFFCURVE",
"264 295 CURVE SMOOTH",
"290 295 OFFCURVE",
"316 288 OFFCURVE",
"344 277 CURVE",
"328 104 OFFCURVE",
"251 67 OFFCURVE",
"195 67 CURVE SMOOTH"
);
}
);
};
layerId = "CFA4B904-E3F1-48B6-A7F6-47DC1FF2A3E1";
name = Bold;
paths = (
{
closed = 1;
nodes = (
"462 477 LINE",
"449 539 LINE",
"355 502 LINE",
"321 535 OFFCURVE",
"285 554 OFFCURVE",
"264 566 CURVE",
"219 506 LINE",
"236 498 OFFCURVE",
"261 488 OFFCURVE",
"279 473 CURVE",
"222 452 LINE",
"236 392 LINE",
"323 423 LINE",
"334 404 OFFCURVE",
"341 381 OFFCURVE",
"342 351 CURVE",
"314 359 OFFCURVE",
"286 367 OFFCURVE",
"256 367 CURVE SMOOTH",
"103 367 OFFCURVE",
"28 258 OFFCURVE",
"28 152 CURVE SMOOTH",
"27 58 OFFCURVE",
"83 -9 OFFCURVE",
"190 -9 CURVE SMOOTH",
"354 -9 OFFCURVE",
"436 142 OFFCURVE",
"436 292 CURVE SMOOTH",
"436 356 OFFCURVE",
"419 415 OFFCURVE",
"396 451 CURVE"
);
},
{
closed = 1;
nodes = (
"149 67 OFFCURVE",
"118 107 OFFCURVE",
"118 158 CURVE SMOOTH",
"118 227 OFFCURVE",
"162 295 OFFCURVE",
"264 295 CURVE SMOOTH",
"290 295 OFFCURVE",
"316 288 OFFCURVE",
"344 277 CURVE",
"328 104 OFFCURVE",
"251 67 OFFCURVE",
"195 67 CURVE SMOOTH"
);
}
);
width = 482;
}
);
unicode = 00F0;
},
{
color = 4;
glyphname = dcaron;
lastChange = "2014-11-19 07:06:38 +0000";
layers = (
{
components = (
{
name = d;
transform = "{1, 0, 0, 1, 0, 0}";
}
);
guideLines = (
{
angle = 90;
position = "{510, 466}";
}
);
layerId = "CFA4B904-E3F1-48B6-A7F6-47DC1FF2A3E1";
name = Bold;
paths = (
{
closed = 1;
nodes = (
"574 420 LINE",
"504 420 LINE",
"564 596 LINE",
"655 596 LINE"
);
}
);
width = 625;
}
);
unicode = 010F;
},
{
color = 4;
glyphname = dcroat;
lastChange = "2014-11-19 06:22:45 +0000";
layers = (
{
background = {
paths = (
{
closed = 1;
nodes = (
"475 498 LINE",
"548 498 LINE",
"534 425 LINE",
"461 425 LINE",
"378 0 LINE",
"308 0 LINE",
"304 23 LINE",
"274 7 OFFCURVE",
"235 -9 OFFCURVE",
"192 -9 CURVE SMOOTH",
"72 -9 OFFCURVE",
"15 63 OFFCURVE",
"38 181 CURVE SMOOTH",
"66 326 OFFCURVE",
"192 384 OFFCURVE",
"271 384 CURVE SMOOTH",
"302 384 OFFCURVE",
"331 377 OFFCURVE",
"357 368 CURVE",
"365 425 LINE",
"209 425 LINE",
"223 498 LINE",
"379 498 LINE",
"389 550 LINE",
"485 550 LINE"
);
},
{
closed = 1;
nodes = (
"208 308 OFFCURVE",
"157 281 OFFCURVE",
"139 188 CURVE SMOOTH",
"121 99 OFFCURVE",
"168 66 OFFCURVE",
"234 66 CURVE SMOOTH",
"259 66 OFFCURVE",
"281 72 OFFCURVE",
"300 83 CURVE",
"336 294 LINE",
"313 302 OFFCURVE",
"293 308 OFFCURVE",
"268 308 CURVE SMOOTH"
);
}
);
};
components = (
{
name = d;
transform = "{1, 0, 0, 1, 0, 0}";
}
);
layerId = "CFA4B904-E3F1-48B6-A7F6-47DC1FF2A3E1";
name = Bold;
paths = (
{
closed = 1;
nodes = (
"209 425 LINE",
"223 498 LINE",
"548 498 LINE",
"534 425 LINE"
);
}
);
width = 548;
}
);
unicode = 0111;
},
{
color = 4;
glyphname = e;
lastChange = "2014-11-19 06:26:09 +0000";
layers = (
{
anchors = (
{
name = top;
position = "{246, 384}";
}
);
background = {
paths = (
{
closed = 1;
nodes = (
"374 390 OFFCURVE",
"417 314 OFFCURVE",
"394 193 CURVE SMOOTH",
"386 153 LINE",
"125 156 LINE",
"117 87 OFFCURVE",
"162 66 OFFCURVE",
"232 66 CURVE SMOOTH",
"275 66 OFFCURVE",
"309 70 OFFCURVE",
"338 77 CURVE",
"338 14 LINE",
"297 1 OFFCURVE",
"248 -10 OFFCURVE",
"194 -10 CURVE SMOOTH",
"60 -10 OFFCURVE",
"12 72 OFFCURVE",
"34 183 CURVE SMOOTH",
"59 311 OFFCURVE",
"163 390 OFFCURVE",
"257 390 CURVE SMOOTH"
);
},
{
closed = 1;
nodes = (
"199 315 OFFCURVE",
"156 287 OFFCURVE",
"140 223 CURVE",
"303 217 LINE",
"316 281 OFFCURVE",
"283 315 OFFCURVE",
"234 315 CURVE SMOOTH"
);
}
);
};
layerId = "CFA4B904-E3F1-48B6-A7F6-47DC1FF2A3E1";
name = Bold;
paths = (
{
closed = 1;
nodes = (
"359 390 OFFCURVE",
"412 314 OFFCURVE",
"389 193 CURVE SMOOTH",
"381 153 LINE",
"125 156 LINE",
"117 87 OFFCURVE",
"162 66 OFFCURVE",
"232 66 CURVE SMOOTH",
"275 66 OFFCURVE",
"309 70 OFFCURVE",
"338 77 CURVE",
"338 14 LINE",
"297 1 OFFCURVE",
"248 -10 OFFCURVE",
"194 -10 CURVE SMOOTH",
"82 -10 OFFCURVE",
"29 62 OFFCURVE",
"29 146 CURVE SMOOTH",
"29 274 OFFCURVE",
"116 390 OFFCURVE",
"247 390 CURVE SMOOTH"
);
},
{
closed = 1;
nodes = (
"193 315 OFFCURVE",
"148 281 OFFCURVE",
"132 217 CURVE",
"303 217 LINE",
"316 281 OFFCURVE",
"283 315 OFFCURVE",
"234 315 CURVE SMOOTH"
);
}
);
width = 423;
}
);
unicode = 0065;
},
{
color = 4;
glyphname = eacute;
lastChange = "2014-11-19 06:26:09 +0000";
layers = (
{
background = {
paths = (
{
closed = 1;
nodes = (
"155 389 OFFCURVE",
"112 370 OFFCURVE",
"81 330 CURVE SMOOTH",
"51 290 OFFCURVE",
"38 242 OFFCURVE",
"38 185 CURVE SMOOTH",
"38 62 OFFCURVE",
"105 -8 OFFCURVE",
"229 -8 CURVE SMOOTH",
"272 -8 OFFCURVE",
"314 0 OFFCURVE",
"352 13 CURVE",
"340 61 LINE",
"308 50 OFFCURVE",
"276 46 OFFCURVE",
"247 46 CURVE SMOOTH",
"199 46 OFFCURVE",
"161 58 OFFCURVE",
"138 81 CURVE",
"117 105 OFFCURVE",
"101 137 OFFCURVE",
"101 172 CURVE",
"364 172 LINE",
"368 180 LINE",
"368 215 LINE SMOOTH",
"368 325 OFFCURVE",
"312 389 OFFCURVE",
"210 389 CURVE SMOOTH"
);
},
{
closed = 1;
nodes = (
"102 224 LINE",
"109 284 OFFCURVE",
"142 338 OFFCURVE",
"217 338 CURVE SMOOTH",
"276 338 OFFCURVE",
"302 286 OFFCURVE",
"302 224 CURVE"
);
},
{
closed = 1;
nodes = (
"143 427 LINE",
"293 550 LINE",
"257 593 LINE",
"110 465 LINE"
);
}
);
};
components = (
{
name = e;
transform = "{1, 0, 0, 1, 0, 0}";
},
{
name = acute;
transform = "{1, 0, 0, 1, 144, 0}";
}
);
layerId = "CFA4B904-E3F1-48B6-A7F6-47DC1FF2A3E1";
name = Bold;
width = 423;
}
);
unicode = 00E9;
},
{
color = 4;
glyphname = eogonek;
lastChange = "2014-11-19 07:02:41 +0000";
layers = (
{
anchors = (
{
name = top;
position = "{246, 384}";
}
);
background = {
paths = (
{
closed = 1;
nodes = (
"376 390 OFFCURVE",
"419 314 OFFCURVE",
"396 193 CURVE SMOOTH",
"388 153 LINE",
"127 156 LINE",
"119 87 OFFCURVE",
"164 66 OFFCURVE",
"234 66 CURVE SMOOTH",
"277 66 OFFCURVE",
"311 70 OFFCURVE",
"340 77 CURVE",
"340 14 LINE",
"291 3 OFFCURVE",
"200 -16 OFFCURVE",
"188 -80 CURVE SMOOTH",
"181 -112 OFFCURVE",
"195 -137 OFFCURVE",
"229 -137 CURVE SMOOTH",
"252 -137 OFFCURVE",
"282 -126 OFFCURVE",
"303 -119 CURVE",
"314 -160 LINE",
"277 -180 OFFCURVE",
"234 -200 OFFCURVE",
"176 -200 CURVE SMOOTH",
"108 -200 OFFCURVE",
"79 -159 OFFCURVE",
"89 -106 CURVE SMOOTH",
"97 -68 OFFCURVE",
"123 -37 OFFCURVE",
"163 -10 CURVE",
"51 7 OFFCURVE",
"16 81 OFFCURVE",
"36 183 CURVE SMOOTH",
"61 311 OFFCURVE",
"165 390 OFFCURVE",
"259 390 CURVE SMOOTH"
);
},
{
closed = 1;
nodes = (
"201 315 OFFCURVE",
"158 287 OFFCURVE",
"142 223 CURVE",
"305 217 LINE",
"318 281 OFFCURVE",
"285 315 OFFCURVE",
"236 315 CURVE SMOOTH"
);
}
);
};
layerId = "CFA4B904-E3F1-48B6-A7F6-47DC1FF2A3E1";
name = Bold;
paths = (
{
closed = 1;
nodes = (
"116 390 OFFCURVE",
"29 274 OFFCURVE",
"29 146 CURVE SMOOTH",
"29 69.5813 OFFCURVE",
"72.8651 3.0945 OFFCURVE",
"165.112 -8.2844 CURVE",
"126.058 -35.0749 OFFCURVE",
"96.8737 -68.6001 OFFCURVE",
"89 -106 CURVE SMOOTH",
"79 -159 OFFCURVE",
"108 -200 OFFCURVE",
"176 -200 CURVE SMOOTH",
"234 -200 OFFCURVE",
"277 -180 OFFCURVE",
"314 -160 CURVE",
"303 -119 LINE",
"282 -126 OFFCURVE",
"247 -137 OFFCURVE",
"224 -137 CURVE SMOOTH",
"190 -137 OFFCURVE",
"181 -112 OFFCURVE",
"188 -80 CURVE SMOOTH",
"201 -13 OFFCURVE",
"286 1 OFFCURVE",
"338 14 CURVE",
"338 77 LINE",
"309 70 OFFCURVE",
"275 66 OFFCURVE",
"232 66 CURVE SMOOTH",
"162 66 OFFCURVE",
"117 87 OFFCURVE",
"125 156 CURVE",
"381 153 LINE",
"389 193 LINE SMOOTH",
"412 314 OFFCURVE",
"359 390 OFFCURVE",
"247 390 CURVE SMOOTH"
);
},
{
closed = 1;
nodes = (
"132 217 LINE",
"148 281 OFFCURVE",
"193 315 OFFCURVE",
"234 315 CURVE SMOOTH",
"283 315 OFFCURVE",
"316 281 OFFCURVE",
"303 217 CURVE"
);
}
);
width = 423;
}
);
unicode = 0119;
},
{
color = 4;
glyphname = f;
lastChange = "2014-11-19 07:49:42 +0000";
layers = (
{
background = {
paths = (
{
closed = 1;
nodes = (
"112 453 OFFCURVE",
"151 554 OFFCURVE",
"294 554 CURVE SMOOTH",
"312 554 OFFCURVE",
"345 553 OFFCURVE",
"387 540 CURVE",
"397 534 LINE",
"367 465 LINE",
"350 469 LINE",
"340 472 OFFCURVE",
"316 478 OFFCURVE",
"291 478 CURVE SMOOTH",
"241 478 OFFCURVE",
"208 459 OFFCURVE",
"201 420 CURVE SMOOTH",
"194 384 LINE",
"337 384 LINE",
"322 309 LINE",
"179 309 LINE",
"119 0 LINE",
"24 0 LINE",
"84 309 LINE",
"20 309 LINE",
"35 384 LINE",
"99 384 LINE",
"104 411 LINE SMOOTH"
);
}
);
};
layerId = "CFA4B904-E3F1-48B6-A7F6-47DC1FF2A3E1";
name = Bold;
paths = (
{
closed = 1;
nodes = (
"119 490 OFFCURVE",
"151 554 OFFCURVE",
"294 554 CURVE SMOOTH",
"323 554 OFFCURVE",
"359 547 OFFCURVE",
"397 534 CURVE",
"367 465 LINE",
"340 474 OFFCURVE",
"316 478 OFFCURVE",
"291 478 CURVE SMOOTH",
"231 478 OFFCURVE",
"208 459 OFFCURVE",
"201 420 CURVE SMOOTH",
"194 384 LINE",
"327 384 LINE",
"312 309 LINE",
"176 309 LINE",
"119 0 LINE",
"28 0 LINE",
"84 309 LINE",
"10 309 LINE",
"25 384 LINE",
"99 384 LINE",
"104 411 LINE SMOOTH"
);
}
);
width = 337;
}
);
unicode = 0066;
},
{
color = 4;
glyphname = g;
lastChange = "2014-11-19 07:06:13 +0000";
layers = (
{
anchors = (
{
name = top;
position = "{297, 384}";
}
);
background = {
paths = (
{
closed = 1;
nodes = (
"285 0 OFFCURVE",
"260 -9 OFFCURVE",
"223 -9 CURVE SMOOTH",
"103 -9 OFFCURVE",
"47 66 OFFCURVE",
"70 184 CURVE SMOOTH",
"101 343 OFFCURVE",
"224 390 OFFCURVE",
"298 390 CURVE SMOOTH",
"344 390 OFFCURVE",
"381 376 OFFCURVE",
"405 361 CURVE",
"418 384 LINE",
"484 384 LINE",
"408 -6 LINE SMOOTH",
"391 -95 OFFCURVE",
"322 -209 OFFCURVE",
"155 -209 CURVE SMOOTH",
"121 -209 OFFCURVE",
"74 -204 OFFCURVE",
"29 -185 CURVE SMOOTH",
"18 -178 LINE",
"59 -108 LINE",
"76 -112 LINE",
"100 -121 OFFCURVE",
"132 -133 OFFCURVE",
"170 -133 CURVE SMOOTH",
"274 -133 OFFCURVE",
"299 -80 OFFCURVE",
"315 6 CURVE SMOOTH",
"314 12 LINE"
);
},
{
closed = 1;
nodes = (
"240 314 OFFCURVE",
"189 287 OFFCURVE",
"171 193 CURVE SMOOTH",
"152 99 OFFCURVE",
"199 66 OFFCURVE",
"265 66 CURVE SMOOTH",
"290 66 OFFCURVE",
"312 72 OFFCURVE",
"331 83 CURVE",
"369 299 LINE",
"346 310 OFFCURVE",
"325 314 OFFCURVE",
"300 314 CURVE SMOOTH"
);
}
);
};
layerId = "CFA4B904-E3F1-48B6-A7F6-47DC1FF2A3E1";
name = Bold;
paths = (
{
closed = 1;
nodes = (
"291 0 OFFCURVE",
"260 -9 OFFCURVE",
"223 -9 CURVE SMOOTH",
"128 -9 OFFCURVE",
"65 65 OFFCURVE",
"65 153 CURVE SMOOTH",
"65 279 OFFCURVE",
"143 390 OFFCURVE",
"288 390 CURVE SMOOTH",
"334 390 OFFCURVE",
"381 376 OFFCURVE",
"405 361 CURVE",
"418 384 LINE",
"484 384 LINE",
"408 -6 LINE SMOOTH",
"391 -95 OFFCURVE",
"342 -209 OFFCURVE",
"175 -209 CURVE SMOOTH",
"133 -209 OFFCURVE",
"92 -204 OFFCURVE",
"29 -183 CURVE",
"59 -108 LINE",
"104 -122 OFFCURVE",
"128 -129 OFFCURVE",
"170 -129 CURVE SMOOTH",
"274 -129 OFFCURVE",
"302 -80 OFFCURVE",
"320 12 CURVE"
);
},
{
closed = 1;
nodes = (
"205 314 OFFCURVE",
"167 245 OFFCURVE",
"167 165 CURVE SMOOTH",
"167 100 OFFCURVE",
"209 66 OFFCURVE",
"265 66 CURVE SMOOTH",
"290 66 OFFCURVE",
"316 72 OFFCURVE",
"335 83 CURVE",
"375 297 LINE",
"352 308 OFFCURVE",
"325 314 OFFCURVE",
"300 314 CURVE SMOOTH"
);
}
);
width = 535;
}
);
unicode = 0067;
},
{
color = 4;
glyphname = gcommaaccent;
lastChange = "2014-11-19 07:06:13 +0000";
layers = (
{
background = {
paths = (
{
closed = 1;
nodes = (
"191 435 LINE",
"237 435 LINE",
"274 586 LINE",
"214 586 LINE"
);
},
{
closed = 1;
nodes = (
"315 8 LINE SMOOTH",
"315 -18 OFFCURVE",
"315 -37 OFFCURVE",
"314 -48 CURVE SMOOTH",
"306 -118 OFFCURVE",
"261 -159 OFFCURVE",
"180 -159 CURVE SMOOTH",
"153 -159 OFFCURVE",
"123 -151 OFFCURVE",
"89 -139 CURVE",
"72 -185 LINE",
"104 -200 OFFCURVE",
"152 -210 OFFCURVE",
"189 -210 CURVE SMOOTH",
"248 -210 OFFCURVE",
"297 -192 OFFCURVE",
"328 -162 CURVE SMOOTH",
"367 -126 OFFCURVE",
"381 -89 OFFCURVE",
"381 -18 CURVE SMOOTH",
"381 384 LINE",
"334 384 LINE",
"327 360 LINE",
"308 369 LINE SMOOTH",
"276 384 OFFCURVE",
"246 389 OFFCURVE",
"218 389 CURVE SMOOTH",
"196 389 OFFCURVE",
"174 387 OFFCURVE",
"153 377 CURVE",
"83 348 OFFCURVE",
"38 282 OFFCURVE",
"38 185 CURVE SMOOTH",
"38 135 OFFCURVE",
"50 97 OFFCURVE",
"73 63 CURVE SMOOTH",
"102 21 OFFCURVE",
"148 -8 OFFCURVE",
"214 -8 CURVE SMOOTH",
"252 -8 OFFCURVE",
"282 1 OFFCURVE",
"315 18 CURVE"
);
},
{
closed = 1;
nodes = (
"208 45 OFFCURVE",
"189 49 OFFCURVE",
"171 59 CURVE SMOOTH",
"129 81 OFFCURVE",
"104 132 OFFCURVE",
"104 194 CURVE SMOOTH",
"104 277 OFFCURVE",
"143 337 OFFCURVE",
"226 337 CURVE SMOOTH",
"252 337 OFFCURVE",
"281 332 OFFCURVE",
"315 317 CURVE",
"315 66 LINE",
"291 52 OFFCURVE",
"262 45 OFFCURVE",
"229 45 CURVE SMOOTH"
);
}
);
};
components = (
{
name = g;
transform = "{1, 0, 0, 1, -107, 0}";
}
);
layerId = "CFA4B904-E3F1-48B6-A7F6-47DC1FF2A3E1";
name = Bold;
paths = (
{
closed = 1;
nodes = (
"238 450 LINE",
"168 450 LINE",
"228 626 LINE",
"319 626 LINE"
);
}
);
width = 455;
}
);
unicode = 0123;
},
{
color = 4;
glyphname = h;
lastChange = "2014-11-19 05:17:23 +0000";
layers = (
{
background = {
paths = (
{
closed = 1;
nodes = (
"278 309 OFFCURVE",
"246 305 OFFCURVE",
"202 289 CURVE",
"149 0 LINE",
"53 0 LINE",
"160 550 LINE",
"256 550 LINE",
"222 363 LINE",
"253 375 OFFCURVE",
"300 389 OFFCURVE",
"346 389 CURVE SMOOTH",
"475 389 OFFCURVE",
"461 289 OFFCURVE",
"448 221 CURVE SMOOTH",
"405 0 LINE",
"309 0 LINE",
"353 228 LINE SMOOTH",
"361 265 OFFCURVE",
"357 309 OFFCURVE",
"295 309 CURVE SMOOTH"
);
}
);
};
layerId = "CFA4B904-E3F1-48B6-A7F6-47DC1FF2A3E1";
name = Bold;
paths = (
{
closed = 1;
nodes = (
"278 309 OFFCURVE",
"246 305 OFFCURVE",
"202 289 CURVE",
"149 0 LINE",
"53 0 LINE",
"160 550 LINE",
"256 550 LINE",
"222 363 LINE",
"253 375 OFFCURVE",
"290 389 OFFCURVE",
"336 389 CURVE SMOOTH",
"465 389 OFFCURVE",
"462 293 OFFCURVE",
"446 211 CURVE SMOOTH",
"405 0 LINE",
"309 0 LINE",
"353 228 LINE SMOOTH",
"361 265 OFFCURVE",
"357 309 OFFCURVE",
"295 309 CURVE SMOOTH"
);
}
);
width = 498;
}
);
unicode = 0068;
},
{
color = 4;
glyphname = i;
lastChange = "2014-11-19 07:48:26 +0000";
layers = (
{
background = {
paths = (
{
closed = 1;
nodes = (
"145 459 LINE",
"49 459 LINE",
"49 550 LINE",
"145 550 LINE"
);
},
{
closed = 1;
nodes = (
"145 0 LINE",
"49 0 LINE",
"49 384 LINE",
"145 384 LINE"
);
}
);
};
components = (
{
name = dotlessi;
transform = "{1, 0, 0, 1, 0, 0}";
},
{
name = dotaccent;
transform = "{1, 0, 0, 1, 130, 0}";
}
);
layerId = "CFA4B904-E3F1-48B6-A7F6-47DC1FF2A3E1";
name = Bold;
width = 269;
}
);
unicode = 0069;
},
{
color = 4;
glyphname = dotlessi;
lastChange = "2014-11-19 05:13:57 +0000";
layers = (
{
anchors = (
{
name = top;
position = "{172, 384}";
}
);
layerId = "CFA4B904-E3F1-48B6-A7F6-47DC1FF2A3E1";
name = Bold;
paths = (
{
closed = 1;
nodes = (
"145 0 LINE",
"49 0 LINE",
"124 384 LINE",
"220 384 LINE"
);
}
);
width = 269;
}
);
unicode = 0131;
},
{
color = 4;
glyphname = ij;
lastChange = "2014-11-19 05:28:07 +0000";
layers = (
{
background = {
paths = (
{
closed = 1;
nodes = (
"208 -26 LINE SMOOTH",
"196 -89 OFFCURVE",
"163 -164 OFFCURVE",
"39 -206 CURVE",
"27 -211 LINE",
"8 -145 LINE",
"26 -139 LINE",
"93 -107 OFFCURVE",
"102 -86 OFFCURVE",
"119 0 CURVE SMOOTH",
"194 384 LINE",
"288 384 LINE"
);
},
{
closed = 1;
nodes = (
"290 449 OFFCURVE",
"319 473 OFFCURVE",
"325 503 CURVE SMOOTH",
"332 541 OFFCURVE",
"308 571 OFFCURVE",
"272 571 CURVE SMOOTH",
"240 571 OFFCURVE",
"211 547 OFFCURVE",
"206 517 CURVE SMOOTH",
"198 479 OFFCURVE",
"222 449 OFFCURVE",
"258 449 CURVE SMOOTH"
);
}
);
};
components = (
{
name = i;
transform = "{1, 0, 0, 1, 0, 0}";
}
);
layerId = "CFA4B904-E3F1-48B6-A7F6-47DC1FF2A3E1";
name = Bold;
paths = (
{
closed = 1;
nodes = (
"389 449 OFFCURVE",
"418 473 OFFCURVE",
"424 503 CURVE SMOOTH",
"431 541 OFFCURVE",
"407 571 OFFCURVE",
"371 571 CURVE SMOOTH",
"339 571 OFFCURVE",
"311 549 OFFCURVE",
"305 517 CURVE SMOOTH",
"298 479 OFFCURVE",
"321 449 OFFCURVE",
"357 449 CURVE SMOOTH"
);
},
{
closed = 1;
nodes = (
"315 -26 LINE SMOOTH",
"296 -122 OFFCURVE",
"270 -164 OFFCURVE",
"143 -212 CURVE",
"115 -145 LINE",
"180 -114 OFFCURVE",
"207 -96 OFFCURVE",
"226 0 CURVE SMOOTH",
"301 384 LINE",
"395 384 LINE"
);
}
);
width = 419;
}
);
unicode = 0133;
},
{
color = 4;
glyphname = iogonek;
lastChange = "2014-11-19 05:14:54 +0000";
layers = (
{
components = (
{
name = dotaccent;
transform = "{1, 0, 0, 1, 172, 0}";
}
);
layerId = "CFA4B904-E3F1-48B6-A7F6-47DC1FF2A3E1";
name = Bold;
paths = (
{
closed = 1;
nodes = (
"99 -18 OFFCURVE",
"67 -45 OFFCURVE",
"60 -80 CURVE SMOOTH",
"54 -112 OFFCURVE",
"68 -137 OFFCURVE",
"103 -137 CURVE SMOOTH",
"126 -137 OFFCURVE",
"155 -126 OFFCURVE",
"177 -119 CURVE",
"188 -160 LINE",
"148 -180 OFFCURVE",
"107 -200 OFFCURVE",
"49 -200 CURVE SMOOTH",
"-17 -200 OFFCURVE",
"-48 -159 OFFCURVE",
"-38 -106 CURVE SMOOTH",
"-28 -55 OFFCURVE",
"16 -14 OFFCURVE",
"91 19 CURVE",
"160 384 LINE",
"255 384 LINE",
"182 19 LINE"
);
}
);
width = 299;
}
);
unicode = 012F;
},
{
color = 4;
glyphname = dotlessj;
lastChange = "2014-11-19 05:25:39 +0000";
layers = (
{
anchors = (
{
name = top;
position = "{209, 384}";
}
);
background = {
paths = (
{
closed = 1;
nodes = (
"176 -26 LINE SMOOTH",
"164 -89 OFFCURVE",
"131 -164 OFFCURVE",
"7 -206 CURVE",
"-5 -211 LINE",
"-24 -145 LINE",
"-6 -139 LINE",
"61 -107 OFFCURVE",
"70 -86 OFFCURVE",
"87 0 CURVE SMOOTH",
"162 384 LINE",
"256 384 LINE"
);
}
);
};
layerId = "CFA4B904-E3F1-48B6-A7F6-47DC1FF2A3E1";
name = Bold;
paths = (
{
closed = 1;
nodes = (
"176 -26 LINE SMOOTH",
"157 -122 OFFCURVE",
"131 -164 OFFCURVE",
"4 -212 CURVE",
"-24 -145 LINE",
"41 -114 OFFCURVE",
"68 -96 OFFCURVE",
"87 0 CURVE SMOOTH",
"162 384 LINE",
"256 384 LINE"
);
}
);
width = 280;
}
);
unicode = 0237;
},
{
color = 4;
glyphname = k;
lastChange = "2014-11-19 06:14:44 +0000";
layers = (
{
anchors = (
{
name = bottom;
position = "{230, 0}";
}
);
background = {
paths = (
{
closed = 1;
nodes = (
"53 0 LINE",
"160 550 LINE",
"256 550 LINE",
"149 0 LINE"
);
},
{
closed = 1;
nodes = (
"313 211 LINE",
"428 0 LINE",
"310 0 LINE",
"200 211 LINE",
"381 389 LINE",
"495 389 LINE"
);
}
);
};
layerId = "CFA4B904-E3F1-48B6-A7F6-47DC1FF2A3E1";
name = Bold;
paths = (
{
closed = 1;
nodes = (
"53 0 LINE",
"160 550 LINE",
"256 550 LINE",
"149 0 LINE"
);
},
{
closed = 1;
nodes = (
"309 201 LINE",
"418 0 LINE",
"310 0 LINE",
"200 211 LINE",
"366 384 LINE",
"478 384 LINE"
);
}
);
width = 486;
}
);
unicode = 006B;
},
{
color = 4;
glyphname = l;
lastChange = "2014-11-19 05:17:59 +0000";
layers = (
{
anchors = (
{
name = bottom;
position = "{136, 0}";
},
{
name = top;
position = "{300, 550}";
}
);
layerId = "CFA4B904-E3F1-48B6-A7F6-47DC1FF2A3E1";
name = Bold;
paths = (
{
closed = 1;
nodes = (
"207 66 OFFCURVE",
"224 68 OFFCURVE",
"239 72 CURVE",
"222 11 LINE",
"206 4 OFFCURVE",
"177 -9 OFFCURVE",
"130 -9 CURVE SMOOTH",
"52 -9 OFFCURVE",
"47 43 OFFCURVE",
"57 96 CURVE SMOOTH",
"145 550 LINE",
"239 550 LINE",
"158 130 LINE SMOOTH",
"151 93 OFFCURVE",
"156 66 OFFCURVE",
"194 66 CURVE SMOOTH"
);
}
);
width = 246;
}
);
unicode = 006C;
},
{
color = 4;
glyphname = lcaron;
lastChange = "2014-11-19 05:18:32 +0000";
layers = (
{
background = {
paths = (
{
closed = 1;
nodes = (
"228 51 OFFCURVE",
"226 78 OFFCURVE",
"226 106 CURVE SMOOTH",
"226 533 LINE",
"163 533 LINE",
"163 83 LINE SMOOTH",
"164 29 OFFCURVE",
"195 -9 OFFCURVE",
"245 -9 CURVE SMOOTH",
"283 -9 OFFCURVE",
"308 7 OFFCURVE",
"323 10 CURVE",
"311 57 LINE",
"298 53 OFFCURVE",
"288 51 OFFCURVE",
"277 51 CURVE SMOOTH"
);
},
{
closed = 1;
nodes = (
"269 435 LINE",
"315 435 LINE",
"352 586 LINE",
"292 586 LINE"
);
}
);
};
components = (
{
name = l;
transform = "{1, 0, 0, 1, -0, 0}";
}
);
guideLines = (
{
angle = 90;
position = "{255, 466}";
}
);
layerId = "CFA4B904-E3F1-48B6-A7F6-47DC1FF2A3E1";
name = Bold;
paths = (
{
closed = 1;
nodes = (
"325 420 LINE",
"255 420 LINE",
"315 596 LINE",
"406 596 LINE"
);
}
);
width = 376;
}
);
unicode = 013E;
},
{
color = 4;
glyphname = lslash;
lastChange = "2014-11-19 07:15:18 +0000";
layers = (
{
background = {
paths = (
{
closed = 1;
nodes = (
"159 66 OFFCURVE",
"157 87 OFFCURVE",
"164 124 CURVE SMOOTH",
"188 242 LINE",
"276 287 LINE",
"291 375 LINE",
"203 330 LINE",
"247 550 LINE",
"155 550 LINE",
"101 277 LINE",
"33 242 LINE",
"18 155 LINE",
"86 190 LINE",
"68 102 LINE SMOOTH",
"58 49 OFFCURVE",
"64 -9 OFFCURVE",
"148 -9 CURVE SMOOTH",
"190 -9 OFFCURVE",
"218 2 OFFCURVE",
"235 9 CURVE",
"242 74 LINE",
"227 70 OFFCURVE",
"209 66 OFFCURVE",
"194 66 CURVE SMOOTH"
);
}
);
};
components = (
{
name = l;
transform = "{1, 0, 0, 1, 8, 0}";
}
);
layerId = "CFA4B904-E3F1-48B6-A7F6-47DC1FF2A3E1";
name = Bold;
paths = (
{
closed = 1;
nodes = (
"15 232 LINE",
"291 375 LINE",
"276 287 LINE",
"0 145 LINE"
);
}
);
width = 291;
}
);
unicode = 0142;
},
{
color = 4;
glyphname = m;
lastChange = "2014-11-19 07:36:28 +0000";
layers = (
{
background = {
paths = (
{
closed = 1;
nodes = (
"223 363 OFFCURVE",
"278 389 OFFCURVE",
"333 389 CURVE SMOOTH",
"379 389 OFFCURVE",
"405 376 OFFCURVE",
"423 351 CURVE",
"445 360 OFFCURVE",
"513 389 OFFCURVE",
"572 389 CURVE SMOOTH",
"695 389 OFFCURVE",
"678 287 OFFCURVE",
"665 221 CURVE SMOOTH",
"622 0 LINE",
"527 0 LINE",
"571 227 LINE SMOOTH",
"577 256 OFFCURVE",
"576 308 OFFCURVE",
"521 308 CURVE SMOOTH",
"498 308 OFFCURVE",
"474 302 OFFCURVE",
"431 288 CURVE",
"434 263 OFFCURVE",
"430 237 OFFCURVE",
"426 217 CURVE SMOOTH",
"384 0 LINE",
"288 0 LINE",
"332 227 LINE SMOOTH",
"338 256 OFFCURVE",
"336 308 OFFCURVE",
"281 308 CURVE SMOOTH",
"264 308 OFFCURVE",
"242 304 OFFCURVE",
"195 288 CURVE",
"142 0 LINE",
"47 0 LINE",
"122 384 LINE",
"191 384 LINE",
"199 355 LINE"
);
}
);
};
layerId = "CFA4B904-E3F1-48B6-A7F6-47DC1FF2A3E1";
name = Bold;
paths = (
{
closed = 1;
nodes = (
"223 363 OFFCURVE",
"278 389 OFFCURVE",
"333 389 CURVE SMOOTH",
"379 389 OFFCURVE",
"396 372 OFFCURVE",
"414 347 CURVE",
"436 356 OFFCURVE",
"513 389 OFFCURVE",
"572 389 CURVE SMOOTH",
"695 389 OFFCURVE",
"674 269 OFFCURVE",
"661 198 CURVE SMOOTH",
"622 0 LINE",
"527 0 LINE",
"571 227 LINE SMOOTH",
"577 256 OFFCURVE",
"576 308 OFFCURVE",
"521 308 CURVE SMOOTH",
"498 308 OFFCURVE",
"474 302 OFFCURVE",
"431 288 CURVE",
"434 263 OFFCURVE",
"430 237 OFFCURVE",
"426 217 CURVE SMOOTH",
"384 0 LINE",
"288 0 LINE",
"332 227 LINE SMOOTH",
"340 266 OFFCURVE",
"336 308 OFFCURVE",
"281 308 CURVE SMOOTH",
"264 308 OFFCURVE",
"242 304 OFFCURVE",
"195 288 CURVE",
"142 0 LINE",
"47 0 LINE",
"122 384 LINE",
"191 384 LINE",
"199 355 LINE"
);
}
);
width = 717;
}
);
unicode = 006D;
},
{
color = 4;
glyphname = n;
lastChange = "2014-11-19 05:22:16 +0000";
layers = (
{
anchors = (
{
name = bottom;
position = "{223, 0}";
},
{
name = top;
position = "{305, 384}";
}
);
background = {
paths = (
{
closed = 1;
nodes = (
"233 370 OFFCURVE",
"287 389 OFFCURVE",
"342 389 CURVE SMOOTH",
"473 389 OFFCURVE",
"456 287 OFFCURVE",
"443 221 CURVE SMOOTH",
"400 0 LINE",
"305 0 LINE",
"349 227 LINE SMOOTH",
"355 256 OFFCURVE",
"351 308 OFFCURVE",
"291 308 CURVE SMOOTH",
"273 308 OFFCURVE",
"243 304 OFFCURVE",
"196 288 CURVE",
"143 0 LINE",
"48 0 LINE",
"123 384 LINE",
"192 384 LINE",
"200 355 LINE"
);
}
);
};
layerId = "CFA4B904-E3F1-48B6-A7F6-47DC1FF2A3E1";
name = Bold;
paths = (
{
closed = 1;
nodes = (
"272 309 OFFCURVE",
"240 305 OFFCURVE",
"196 289 CURVE",
"143 0 LINE",
"47 0 LINE",
"123 384 LINE",
"192 384 LINE",
"200 355 LINE",
"231 367 OFFCURVE",
"274 389 OFFCURVE",
"330 389 CURVE SMOOTH",
"459 389 OFFCURVE",
"458 293 OFFCURVE",
"442 211 CURVE SMOOTH",
"401 0 LINE",
"305 0 LINE",
"349 228 LINE SMOOTH",
"356 265 OFFCURVE",
"351 309 OFFCURVE",
"289 309 CURVE SMOOTH"
);
}
);
width = 495;
}
);
unicode = 006E;
},
{
color = 4;
glyphname = o;
lastChange = "2014-11-19 05:47:09 +0000";
layers = (
{
anchors = (
{
name = top;
position = "{263, 384}";
}
);
background = {
paths = (
{
closed = 1;
nodes = (
"199 315 OFFCURVE",
"149 275 OFFCURVE",
"133 197 CURVE SMOOTH",
"117 112 OFFCURVE",
"156 67 OFFCURVE",
"211 67 CURVE SMOOTH",
"265 67 OFFCURVE",
"313 106 OFFCURVE",
"328 183 CURVE SMOOTH",
"345 270 OFFCURVE",
"304 315 OFFCURVE",
"249 315 CURVE SMOOTH"
);
},
{
closed = 1;
nodes = (
"69 -9 OFFCURVE",
"10 71 OFFCURVE",
"32 183 CURVE SMOOTH",
"57 311 OFFCURVE",
"153 390 OFFCURVE",
"275 390 CURVE SMOOTH",
"393 390 OFFCURVE",
"453 316 OFFCURVE",
"430 198 CURVE SMOOTH",
"406 76 OFFCURVE",
"308 -9 OFFCURVE",
"186 -9 CURVE SMOOTH"
);
}
);
};
layerId = "CFA4B904-E3F1-48B6-A7F6-47DC1FF2A3E1";
name = Bold;
paths = (
{
closed = 1;
nodes = (
"173 315 OFFCURVE",
"129 234 OFFCURVE",
"129 161 CURVE SMOOTH",
"129 99 OFFCURVE",
"164 67 OFFCURVE",
"211 67 CURVE SMOOTH",
"293 67 OFFCURVE",
"332 145 OFFCURVE",
"332 220 CURVE SMOOTH",
"332 283 OFFCURVE",
"296 315 OFFCURVE",
"249 315 CURVE SMOOTH"
);
},
{
closed = 1;
nodes = (
"95 -9 OFFCURVE",
"30 70 OFFCURVE",
"30 159 CURVE SMOOTH",
"30 261 OFFCURVE",
"94 390 OFFCURVE",
"265 390 CURVE SMOOTH",
"368 390 OFFCURVE",
"432 314 OFFCURVE",
"432 222 CURVE SMOOTH",
"432 122 OFFCURVE",
"365 -9 OFFCURVE",
"196 -9 CURVE SMOOTH"
);
}
);
width = 462;
}
);
unicode = 006F;
},
{
color = 4;
glyphname = ohungarumlaut;
lastChange = "2014-11-19 05:47:35 +0000";
layers = (
{
background = {
paths = (
{
closed = 1;
nodes = (
"301 338 OFFCURVE",
"343 272 OFFCURVE",
"343 190 CURVE SMOOTH",
"343 109 OFFCURVE",
"302 44 OFFCURVE",
"225 44 CURVE SMOOTH",
"146 44 OFFCURVE",
"105 109 OFFCURVE",
"105 190 CURVE SMOOTH",
"105 272 OFFCURVE",
"147 338 OFFCURVE",
"225 338 CURVE SMOOTH"
);
},
{
closed = 1;
nodes = (
"339 -9 OFFCURVE",
"409 72 OFFCURVE",
"409 191 CURVE SMOOTH",
"409 312 OFFCURVE",
"344 389 OFFCURVE",
"225 389 CURVE SMOOTH",
"107 389 OFFCURVE",
"38 311 OFFCURVE",
"38 190 CURVE SMOOTH",
"38 71 OFFCURVE",
"105 -9 OFFCURVE",
"222 -9 CURVE SMOOTH"
);
},
{
closed = 1;
nodes = (
"296 427 LINE",
"446 550 LINE",
"410 593 LINE",
"263 465 LINE"
);
},
{
closed = 1;
nodes = (
"146 427 LINE",
"296 550 LINE",
"260 593 LINE",
"113 465 LINE"
);
}
);
};
components = (
{
name = o;
transform = "{1, 0, 0, 1, 0, 0}";
},
{
name = hungarumlaut;
transform = "{1, 0, 0, 1, 229, 0}";
}
);
layerId = "CFA4B904-E3F1-48B6-A7F6-47DC1FF2A3E1";
name = Bold;
width = 462;
}
);
unicode = 0151;
},
{
color = 4;
glyphname = oslash;
lastChange = "2014-11-19 05:48:14 +0000";
layers = (
{
background = {
paths = (
{
closed = 1;
nodes = (
"479 -9 OFFCURVE",
"547 72 OFFCURVE",
"547 191 CURVE SMOOTH",
"547 238 OFFCURVE",
"538 279 OFFCURVE",
"519 311 CURVE",
"562 355 LINE",
"525 393 LINE",
"484 351 LINE",
"453 375 OFFCURVE",
"414 389 OFFCURVE",
"363 389 CURVE SMOOTH",
"246 389 OFFCURVE",
"179 311 OFFCURVE",
"179 190 CURVE SMOOTH",
"179 142 OFFCURVE",
"188 101 OFFCURVE",
"209 68 CURVE",
"164 22 LINE",
"201 -12 LINE",
"243 29 LINE",
"273 7 OFFCURVE",
"313 -9 OFFCURVE",
"361 -9 CURVE SMOOTH"
);
},
{
closed = 1;
nodes = (
"395 338 OFFCURVE",
"422 327 OFFCURVE",
"442 307 CURVE",
"257 117 LINE",
"248 139 OFFCURVE",
"244 164 OFFCURVE",
"244 190 CURVE SMOOTH",
"244 272 OFFCURVE",
"286 338 OFFCURVE",
"363 338 CURVE SMOOTH"
);
},
{
closed = 1;
nodes = (
"482 109 OFFCURVE",
"442 44 OFFCURVE",
"363 44 CURVE SMOOTH",
"331 44 OFFCURVE",
"305 55 OFFCURVE",
"286 73 CURVE",
"469 260 LINE",
"478 240 OFFCURVE",
"482 217 OFFCURVE",
"482 190 CURVE SMOOTH"
);
}
);
};
components = (
{
name = o;
transform = "{1, 0, 0, 1, 28, 0}";
}
);
layerId = "CFA4B904-E3F1-48B6-A7F6-47DC1FF2A3E1";
name = Bold;
paths = (
{
closed = 1;
nodes = (
"498 347 LINE",
"63 -21 LINE",
"22 29 LINE",
"457 401 LINE"
);
}
);
width = 517;
}
);
unicode = 00F8;
},
{
color = 4;
glyphname = oe;
lastChange = "2014-11-19 07:31:11 +0000";
layers = (
{
background = {
paths = (
{
closed = 1;
nodes = (
"660 187 LINE SMOOTH",
"684 308 OFFCURVE",
"649 390 OFFCURVE",
"527 390 CURVE SMOOTH",
"482 390 OFFCURVE",
"434 372 OFFCURVE",
"392 334 CURVE",
"367 368 OFFCURVE",
"327 390 OFFCURVE",
"264 390 CURVE SMOOTH",
"146 390 OFFCURVE",
"57 317 OFFCURVE",
"33 197 CURVE SMOOTH",
"10 77 OFFCURVE",
"74 -9 OFFCURVE",
"195 -9 CURVE SMOOTH",
"253 -9 OFFCURVE",
"300 9 OFFCURVE",
"340 47 CURVE",
"366 14 OFFCURVE",
"411 -10 OFFCURVE",
"484 -10 CURVE SMOOTH",
"534 -10 OFFCURVE",
"577 -1 OFFCURVE",
"612 12 CURVE",
"604 79 LINE",
"574 72 OFFCURVE",
"543 66 OFFCURVE",
"494 66 CURVE SMOOTH",
"427 66 OFFCURVE",
"397 81 OFFCURVE",
"403 150 CURVE",
"654 153 LINE"
);
},
{
closed = 1;
nodes = (
"149 67 OFFCURVE",
"115 106 OFFCURVE",
"130 183 CURVE SMOOTH",
"146 269 OFFCURVE",
"204 315 OFFCURVE",
"258 315 CURVE SMOOTH",
"309 315 OFFCURVE",
"345 276 OFFCURVE",
"329 197 CURVE SMOOTH",
"313 112 OFFCURVE",
"258 67 OFFCURVE",
"200 67 CURVE SMOOTH"
);
},
{
closed = 1;
nodes = (
"418 217 LINE",
"431 281 OFFCURVE",
"486 315 OFFCURVE",
"525 315 CURVE SMOOTH",
"568 315 OFFCURVE",
"588 287 OFFCURVE",
"575 223 CURVE"
);
}
);
};
layerId = "CFA4B904-E3F1-48B6-A7F6-47DC1FF2A3E1";
name = Bold;
paths = (
{
closed = 1;
nodes = (
"468 390 OFFCURVE",
"422 371 OFFCURVE",
"387 340 CURVE",
"358 371 OFFCURVE",
"316 390 OFFCURVE",
"264 390 CURVE SMOOTH",
"93 390 OFFCURVE",
"29 261 OFFCURVE",
"29 159 CURVE SMOOTH",
"29 70 OFFCURVE",
"94 -9 OFFCURVE",
"195 -9 CURVE SMOOTH",
"258 -9 OFFCURVE",
"307 9 OFFCURVE",
"343 37 CURVE",
"370 8 OFFCURVE",
"412 -10 OFFCURVE",
"468 -10 CURVE SMOOTH",
"522 -10 OFFCURVE",
"571 1 OFFCURVE",
"612 14 CURVE",
"612 77 LINE",
"583 70 OFFCURVE",
"549 66 OFFCURVE",
"506 66 CURVE SMOOTH",
"436 66 OFFCURVE",
"391 87 OFFCURVE",
"399 156 CURVE",
"655 153 LINE",
"663 193 LINE SMOOTH",
"686 314 OFFCURVE",
"633 390 OFFCURVE",
"521 390 CURVE SMOOTH"
);
},
{
closed = 1;
nodes = (
"163 67 OFFCURVE",
"128 99 OFFCURVE",
"128 161 CURVE SMOOTH",
"128 234 OFFCURVE",
"172 315 OFFCURVE",
"248 315 CURVE SMOOTH",
"295 315 OFFCURVE",
"331 283 OFFCURVE",
"331 220 CURVE SMOOTH",
"331 145 OFFCURVE",
"292 67 OFFCURVE",
"210 67 CURVE SMOOTH"
);
},
{
closed = 1;
nodes = (
"406 217 LINE",
"422 281 OFFCURVE",
"467 315 OFFCURVE",
"508 315 CURVE SMOOTH",
"557 315 OFFCURVE",
"590 281 OFFCURVE",
"577 217 CURVE"
);
}
);
width = 697;
}
);
unicode = 0153;
},
{
color = 4;
glyphname = p;
lastChange = "2014-11-19 05:52:07 +0000";
layers = (
{
background = {
paths = (
{
closed = 1;
nodes = (
"270 372 OFFCURVE",
"315 390 OFFCURVE",
"364 390 CURVE SMOOTH",
"435 390 OFFCURVE",
"534 349 OFFCURVE",
"505 198 CURVE SMOOTH",
"480 72 OFFCURVE",
"390 -9 OFFCURVE",
"263 -9 CURVE SMOOTH",
"232 -9 OFFCURVE",
"212 -2 OFFCURVE",
"187 10 CURVE",
"147 -206 LINE",
"51 -206 LINE",
"166 384 LINE",
"234 384 LINE",
"241 357 LINE"
);
},
{
closed = 1;
nodes = (
"292 314 OFFCURVE",
"272 312 OFFCURVE",
"245 301 CURVE",
"207 87 LINE",
"222 76 OFFCURVE",
"241 66 OFFCURVE",
"272 66 CURVE SMOOTH",
"332 66 OFFCURVE",
"386 93 OFFCURVE",
"403 179 CURVE SMOOTH",
"423 281 OFFCURVE",
"377 314 OFFCURVE",
"313 314 CURVE SMOOTH"
);
}
);
};
layerId = "CFA4B904-E3F1-48B6-A7F6-47DC1FF2A3E1";
name = Bold;
paths = (
{
closed = 1;
nodes = (
"270 372 OFFCURVE",
"308 390 OFFCURVE",
"367 390 CURVE SMOOTH",
"430 390 OFFCURVE",
"507 338 OFFCURVE",
"507 227 CURVE SMOOTH",
"507 129 OFFCURVE",
"454 -9 OFFCURVE",
"273 -9 CURVE SMOOTH",
"242 -9 OFFCURVE",
"212 -2 OFFCURVE",
"187 10 CURVE",
"147 -206 LINE",
"51 -206 LINE",
"166 384 LINE",
"234 384 LINE",
"241 357 LINE"
);
},
{
closed = 1;
nodes = (
"295 314 OFFCURVE",
"272 312 OFFCURVE",
"245 301 CURVE",
"207 87 LINE",
"222 76 OFFCURVE",
"241 66 OFFCURVE",
"272 66 CURVE SMOOTH",
"371 66 OFFCURVE",
"408 135 OFFCURVE",
"408 220 CURVE SMOOTH",
"408 290 OFFCURVE",
"371 314 OFFCURVE",
"316 314 CURVE SMOOTH"
);
}
);
width = 537;
}
);
unicode = 0070;
},
{
color = 4;
glyphname = thorn;
lastChange = "2014-11-19 07:44:47 +0000";
layers = (
{
background = {
paths = (
{
closed = 1;
nodes = (
"244 368 LINE",
"274 383 OFFCURVE",
"298 390 OFFCURVE",
"345 390 CURVE SMOOTH",
"457 390 OFFCURVE",
"510 319 OFFCURVE",
"487 198 CURVE SMOOTH",
"462 72 OFFCURVE",
"372 -9 OFFCURVE",
"247 -9 CURVE SMOOTH",
"214 -9 OFFCURVE",
"195 -2 OFFCURVE",
"170 10 CURVE",
"130 -206 LINE",
"35 -206 LINE",
"182 550 LINE",
"277 550 LINE"
);
},
{
closed = 1;
nodes = (
"190 87 LINE",
"205 76 OFFCURVE",
"225 66 OFFCURVE",
"255 66 CURVE SMOOTH",
"314 66 OFFCURVE",
"371 103 OFFCURVE",
"388 190 CURVE SMOOTH",
"406 283 OFFCURVE",
"360 317 OFFCURVE",
"298 317 CURVE SMOOTH",
"269 317 OFFCURVE",
"247 312 OFFCURVE",
"227 300 CURVE"
);
}
);
};
layerId = "CFA4B904-E3F1-48B6-A7F6-47DC1FF2A3E1";
name = Bold;
paths = (
{
closed = 1;
nodes = (
"244 368 LINE",
"274 383 OFFCURVE",
"292 390 OFFCURVE",
"339 390 CURVE SMOOTH",
"433 390 OFFCURVE",
"491 320 OFFCURVE",
"491 231 CURVE SMOOTH",
"491 129 OFFCURVE",
"436 -9 OFFCURVE",
"257 -9 CURVE SMOOTH",
"224 -9 OFFCURVE",
"195 -2 OFFCURVE",
"170 10 CURVE",
"130 -206 LINE",
"36 -206 LINE",
"182 550 LINE",
"277 550 LINE"
);
},
{
closed = 1;
nodes = (
"190 83 LINE",
"208 73 OFFCURVE",
"225 66 OFFCURVE",
"255 66 CURVE SMOOTH",
"347 66 OFFCURVE",
"392 136 OFFCURVE",
"392 214 CURVE SMOOTH",
"392 278 OFFCURVE",
"350 317 OFFCURVE",
"298 317 CURVE SMOOTH",
"269 317 OFFCURVE",
"247 312 OFFCURVE",
"227 300 CURVE"
);
}
);
width = 522;
}
);
unicode = 00FE;
},
{
color = 4;
glyphname = q;
lastChange = "2014-11-19 06:16:32 +0000";
layers = (
{
background = {
paths = (
{
closed = 1;
nodes = (
"450 384 LINE",
"335 -206 LINE",
"239 -206 LINE",
"279 12 LINE",
"250 0 OFFCURVE",
"225 -9 OFFCURVE",
"188 -9 CURVE SMOOTH",
"68 -9 OFFCURVE",
"12 66 OFFCURVE",
"35 184 CURVE SMOOTH",
"66 343 OFFCURVE",
"189 390 OFFCURVE",
"263 390 CURVE SMOOTH",
"309 390 OFFCURVE",
"346 376 OFFCURVE",
"370 361 CURVE",
"383 384 LINE"
);
},
{
closed = 1;
nodes = (
"205 314 OFFCURVE",
"154 287 OFFCURVE",
"136 193 CURVE SMOOTH",
"117 99 OFFCURVE",
"164 66 OFFCURVE",
"230 66 CURVE SMOOTH",
"255 66 OFFCURVE",
"277 72 OFFCURVE",
"296 83 CURVE",
"334 299 LINE",
"311 310 OFFCURVE",
"290 314 OFFCURVE",
"265 314 CURVE SMOOTH"
);
}
);
};
layerId = "CFA4B904-E3F1-48B6-A7F6-47DC1FF2A3E1";
name = Bold;
paths = (
{
closed = 1;
nodes = (
"450 384 LINE",
"335 -206 LINE",
"239 -206 LINE",
"278 9 LINE",
"249 -3 OFFCURVE",
"225 -9 OFFCURVE",
"188 -9 CURVE SMOOTH",
"86 -9 OFFCURVE",
"30 73 OFFCURVE",
"30 152 CURVE SMOOTH",
"30 275 OFFCURVE",
"108 390 OFFCURVE",
"253 390 CURVE SMOOTH",
"299 390 OFFCURVE",
"346 376 OFFCURVE",
"370 361 CURVE",
"383 384 LINE"
);
},
{
closed = 1;
nodes = (
"168 314 OFFCURVE",
"132 237 OFFCURVE",
"132 159 CURVE SMOOTH",
"131 93 OFFCURVE",
"173 66 OFFCURVE",
"220 66 CURVE SMOOTH",
"249 66 OFFCURVE",
"277 72 OFFCURVE",
"296 83 CURVE",
"334 299 LINE",
"311 310 OFFCURVE",
"290 314 OFFCURVE",
"265 314 CURVE SMOOTH"
);
}
);
width = 501;
}
);
unicode = 0071;
},
{
color = 4;
glyphname = r;
lastChange = "2014-11-19 06:49:25 +0000";
layers = (
{
anchors = (
{
name = bottom;
position = "{93, 0}";
},
{
name = top;
position = "{269, 383}";
}
);
background = {
paths = (
{
closed = 1;
nodes = (
"235 375 OFFCURVE",
"278 390 OFFCURVE",
"321 390 CURVE SMOOTH",
"344 390 OFFCURVE",
"365 386 OFFCURVE",
"385 376 CURVE",
"346 288 LINE",
"339 285 LINE",
"302 309 OFFCURVE",
"244 314 OFFCURVE",
"197 297 CURVE",
"142 0 LINE",
"47 0 LINE",
"122 384 LINE",
"191 384 LINE",
"199 354 LINE"
);
}
);
};
layerId = "CFA4B904-E3F1-48B6-A7F6-47DC1FF2A3E1";
name = Bold;
paths = (
{
closed = 1;
nodes = (
"235 375 OFFCURVE",
"278 390 OFFCURVE",
"321 390 CURVE SMOOTH",
"344 390 OFFCURVE",
"365 386 OFFCURVE",
"385 376 CURVE",
"343 278 LINE",
"336 275 LINE",
"299 299 OFFCURVE",
"244 314 OFFCURVE",
"197 297 CURVE",
"141 0 LINE",
"47 0 LINE",
"122 384 LINE",
"191 384 LINE",
"199 354 LINE"
);
}
);
width = 394;
}
);
unicode = 0072;
},
{
color = 4;
glyphname = s;
lastChange = "2014-11-19 06:47:16 +0000";
layers = (
{
anchors = (
{
name = bottom;
position = "{198, 0}";
},
{
name = top;
position = "{265, 384}";
}
);
background = {
paths = (
{
closed = 1;
nodes = (
"110 86 OFFCURVE",
"158 73 OFFCURVE",
"192 73 CURVE SMOOTH",
"249 73 OFFCURVE",
"265 83 OFFCURVE",
"269 103 CURVE SMOOTH",
"280 159 OFFCURVE",
"59 139 OFFCURVE",
"86 278 CURVE SMOOTH",
"94 317 OFFCURVE",
"126 390 OFFCURVE",
"276 390 CURVE",
"321 390 OFFCURVE",
"373 377 OFFCURVE",
"397 369 CURVE",
"352 293 LINE",
"329 300 OFFCURVE",
"293 312 OFFCURVE",
"252 312 CURVE SMOOTH",
"191 312 OFFCURVE",
"181 302 OFFCURVE",
"178 288 CURVE SMOOTH",
"165 223 OFFCURVE",
"389 248 OFFCURVE",
"364 116 CURVE SMOOTH",
"354 67 OFFCURVE",
"307 -9 OFFCURVE",
"161 -9 CURVE SMOOTH",
"111 -9 OFFCURVE",
"61 5 OFFCURVE",
"22 25 CURVE",
"69 102 LINE"
);
}
);
};
layerId = "CFA4B904-E3F1-48B6-A7F6-47DC1FF2A3E1";
name = Bold;
paths = (
{
closed = 1;
nodes = (
"109 83 OFFCURVE",
"148 70 OFFCURVE",
"179 70 CURVE SMOOTH",
"252 70 OFFCURVE",
"269 89 OFFCURVE",
"269 107 CURVE SMOOTH",
"269 155 OFFCURVE",
"84 166 OFFCURVE",
"84 278 CURVE SMOOTH",
"84 321 OFFCURVE",
"99 390 OFFCURVE",
"266 390 CURVE",
"310 390 OFFCURVE",
"367 374 OFFCURVE",
"393 362 CURVE",
"352 293 LINE",
"329 300 OFFCURVE",
"293 312 OFFCURVE",
"252 312 CURVE SMOOTH",
"183 312 OFFCURVE",
"177 299 OFFCURVE",
"177 282 CURVE SMOOTH",
"177 227 OFFCURVE",
"360 219 OFFCURVE",
"360 112 CURVE SMOOTH",
"360 71 OFFCURVE",
"342 -9 OFFCURVE",
"192 -9 CURVE SMOOTH",
"123 -9 OFFCURVE",
"76 8 OFFCURVE",
"31 29 CURVE",
"68 99 LINE"
);
}
);
width = 421;
}
);
unicode = 0073;
},
{
color = 4;
glyphname = scedilla;
lastChange = "2014-11-19 06:47:37 +0000";
layers = (
{
background = {
paths = (
{
closed = 1;
nodes = (
"79 -141 OFFCURVE",
"81 -137 OFFCURVE",
"82 -136 CURVE SMOOTH",
"84 -124 OFFCURVE",
"78 -114 OFFCURVE",
"47 -103 CURVE",
"-3 -86 LINE",
"32 -8 LINE",
"-7 -1 OFFCURVE",
"-44 9 OFFCURVE",
"-73 25 CURVE",
"-26 102 LINE",
"15 86 OFFCURVE",
"63 73 OFFCURVE",
"97 73 CURVE SMOOTH",
"154 73 OFFCURVE",
"170 83 OFFCURVE",
"175 108 CURVE SMOOTH",
"185 159 OFFCURVE",
"-36 139 OFFCURVE",
"-10 272 CURVE SMOOTH",
"-1 317 OFFCURVE",
"31 390 OFFCURVE",
"181 390 CURVE",
"223 393 OFFCURVE",
"278 376 OFFCURVE",
"302 369 CURVE",
"257 293 LINE",
"234 300 OFFCURVE",
"198 312 OFFCURVE",
"157 312 CURVE SMOOTH",
"96 312 OFFCURVE",
"83 290 OFFCURVE",
"82 283 CURVE SMOOTH",
"71 226 OFFCURVE",
"294 248 OFFCURVE",
"270 122 CURVE SMOOTH",
"260 70 OFFCURVE",
"220 7 OFFCURVE",
"107 -7 CURVE",
"95 -41 LINE",
"134 -51 OFFCURVE",
"166 -74 OFFCURVE",
"157 -117 CURVE SMOOTH",
"148 -164 OFFCURVE",
"109 -208 OFFCURVE",
"37 -208 CURVE SMOOTH",
"11 -208 OFFCURVE",
"-20 -204 OFFCURVE",
"-49 -192 CURVE",
"-62 -187 LINE",
"-28 -121 LINE",
"26 -136 LINE",
"42 -137 OFFCURVE",
"52 -141 OFFCURVE",
"62 -141 CURVE SMOOTH"
);
}
);
};
components = (
{
name = s;
transform = "{1, 0, 0, 1, 0, 0}";
},
{
name = cedilla;
transform = "{1, 0, 0, 1, 177, 0}";
}
);
layerId = "CFA4B904-E3F1-48B6-A7F6-47DC1FF2A3E1";
name = Bold;
width = 421;
}
);
unicode = 015F;
},
{
color = 4;
glyphname = germandbls;
lastChange = "2014-11-19 07:47:50 +0000";
layers = (
{
background = {
paths = (
{
closed = 1;
nodes = (
"468 554 OFFCURVE",
"503 479 OFFCURVE",
"491 417 CURVE SMOOTH",
"473 326 OFFCURVE",
"356 305 OFFCURVE",
"351 278 CURVE SMOOTH",
"341 225 OFFCURVE",
"536 249 OFFCURVE",
"510 115 CURVE SMOOTH",
"500 63 OFFCURVE",
"453 -10 OFFCURVE",
"328 -10 CURVE SMOOTH",
"295 -10 OFFCURVE",
"246 -7 OFFCURVE",
"194 8 CURVE",
"180 13 LINE",
"219 93 LINE",
"238 90 LINE",
"273 80 OFFCURVE",
"308 73 OFFCURVE",
"339 73 CURVE SMOOTH",
"390 73 OFFCURVE",
"405 84 OFFCURVE",
"410 105 CURVE SMOOTH",
"424 180 OFFCURVE",
"217 144 OFFCURVE",
"240 264 CURVE SMOOTH",
"258 353 OFFCURVE",
"377 363 OFFCURVE",
"385 406 CURVE SMOOTH",
"392 440 OFFCURVE",
"373 465 OFFCURVE",
"317 465 CURVE SMOOTH",
"302 465 OFFCURVE",
"247 460 OFFCURVE",
"232 383 CURVE SMOOTH",
"157 0 LINE",
"62 0 LINE",
"135 377 LINE SMOOTH",
"160 503 OFFCURVE",
"261 554 OFFCURVE",
"353 554 CURVE SMOOTH"
);
}
);
};
layerId = "CFA4B904-E3F1-48B6-A7F6-47DC1FF2A3E1";
name = Bold;
paths = (
{
closed = 1;
nodes = (
"443 554 OFFCURVE",
"488 487 OFFCURVE",
"488 432 CURVE SMOOTH",
"488 328 OFFCURVE",
"351 303 OFFCURVE",
"351 265 CURVE SMOOTH",
"351 220 OFFCURVE",
"512 222 OFFCURVE",
"512 117 CURVE SMOOTH",
"512 72 OFFCURVE",
"478 -10 OFFCURVE",
"328 -10 CURVE SMOOTH",
"287 -10 OFFCURVE",
"244 -6 OFFCURVE",
"180 13 CURVE",
"218 90 LINE",
"276 76 OFFCURVE",
"304 73 OFFCURVE",
"339 73 CURVE SMOOTH",
"390 73 OFFCURVE",
"405 84 OFFCURVE",
"410 105 CURVE SMOOTH",
"423 176 OFFCURVE",
"238 168 OFFCURVE",
"238 255 CURVE SMOOTH",
"238 341 OFFCURVE",
"386 353 OFFCURVE",
"386 419 CURVE SMOOTH",
"386 446 OFFCURVE",
"365 465 OFFCURVE",
"317 465 CURVE SMOOTH",
"302 465 OFFCURVE",
"247 460 OFFCURVE",
"232 383 CURVE SMOOTH",
"157 0 LINE",
"62 0 LINE",
"135 377 LINE SMOOTH",
"160 503 OFFCURVE",
"231 554 OFFCURVE",
"343 554 CURVE SMOOTH"
);
}
);
width = 552;
}
);
unicode = 00DF;
},
{
color = 4;
glyphname = t;
lastChange = "2014-11-19 06:42:25 +0000";
layers = (
{
anchors = (
{
name = bottom;
position = "{150, 1}";
}
);
background = {
paths = (
{
closed = 1;
nodes = (
"240 6 OFFCURVE",
"193 -9 OFFCURVE",
"154 -9 CURVE SMOOTH",
"34 -9 OFFCURVE",
"33 52 OFFCURVE",
"46 120 CURVE SMOOTH",
"83 309 LINE",
"19 309 LINE",
"34 384 LINE",
"98 384 LINE",
"119 494 LINE",
"215 494 LINE",
"194 384 LINE",
"327 384 LINE",
"312 309 LINE",
"179 309 LINE",
"144 128 LINE SMOOTH",
"139 101 OFFCURVE",
"148 69 OFFCURVE",
"201 69 CURVE SMOOTH",
"227 69 OFFCURVE",
"259 76 OFFCURVE",
"275 80 CURVE",
"270 14 LINE"
);
}
);
};
layerId = "CFA4B904-E3F1-48B6-A7F6-47DC1FF2A3E1";
name = Bold;
paths = (
{
closed = 1;
nodes = (
"240 4 OFFCURVE",
"203 -9 OFFCURVE",
"154 -9 CURVE SMOOTH",
"34 -9 OFFCURVE",
"37 70 OFFCURVE",
"50 138 CURVE SMOOTH",
"83 309 LINE",
"9 309 LINE",
"24 384 LINE",
"98 384 LINE",
"119 494 LINE",
"215 494 LINE",
"194 384 LINE",
"307 384 LINE",
"292 309 LINE",
"179 309 LINE",
"144 128 LINE SMOOTH",
"138 95 OFFCURVE",
"148 69 OFFCURVE",
"201 69 CURVE SMOOTH",
"227 69 OFFCURVE",
"259 76 OFFCURVE",
"275 80 CURVE",
"270 14 LINE"
);
}
);
width = 320;
}
);
unicode = 0074;
},
{
color = 4;
glyphname = tcaron;
lastChange = "2014-11-19 06:42:25 +0000";
layers = (
{
background = {
paths = (
{
closed = 1;
nodes = (
"385 420 LINE",
"314 420 LINE",
"340 596 LINE",
"432 596 LINE"
);
}
);
};
components = (
{
name = t;
transform = "{1, 0, 0, 1, 0, 0}";
}
);
layerId = "CFA4B904-E3F1-48B6-A7F6-47DC1FF2A3E1";
name = Bold;
paths = (
{
closed = 1;
nodes = (
"321 430 LINE",
"251 430 LINE",
"307 596 LINE",
"398 596 LINE"
);
}
);
width = 405;
}
);
unicode = 0165;
},
{
color = 4;
glyphname = tcedilla;
lastChange = "2014-11-19 06:42:25 +0000";
layers = (
{
background = {
paths = (
{
closed = 1;
nodes = (
"215 -8 OFFCURVE",
"250 -2 OFFCURVE",
"279 9 CURVE",
"268 53 LINE",
"250 49 OFFCURVE",
"225 47 OFFCURVE",
"207 47 CURVE SMOOTH",
"157 47 OFFCURVE",
"146 73 OFFCURVE",
"146 123 CURVE SMOOTH",
"146 330 LINE",
"272 330 LINE",
"272 384 LINE",
"146 384 LINE",
"146 483 LINE",
"81 478 LINE",
"81 384 LINE",
"16 384 LINE",
"16 330 LINE",
"81 330 LINE",
"81 119 LINE SMOOTH",
"81 38 OFFCURVE",
"108 -8 OFFCURVE",
"188 -8 CURVE SMOOTH"
);
},
{
closed = 1;
nodes = (
"171 -160 OFFCURVE",
"147 -155 OFFCURVE",
"114 -145 CURVE SMOOTH",
"103 -142 LINE",
"88 -188 LINE",
"101 -190 LINE",
"131 -199 OFFCURVE",
"156 -207 OFFCURVE",
"183 -207 CURVE SMOOTH",
"242 -207 OFFCURVE",
"272 -178 OFFCURVE",
"272 -136 CURVE SMOOTH",
"272 -82 OFFCURVE",
"234 -64 OFFCURVE",
"200 -53 CURVE",
"184 -49 LINE",
"200 11 LINE",
"151 11 LINE",
"127 -81 LINE",
"182 -96 LINE",
"200 -100 OFFCURVE",
"222 -109 OFFCURVE",
"222 -131 CURVE SMOOTH",
"222 -153 OFFCURVE",
"204 -162 OFFCURVE",
"182 -161 CURVE"
);
}
);
};
components = (
{
name = t;
transform = "{1, 0, 0, 1, 0, 0}";
},
{
name = cedilla;
transform = "{1, 0, 0, 1, 140, 0}";
}
);
layerId = "CFA4B904-E3F1-48B6-A7F6-47DC1FF2A3E1";
name = Bold;
width = 320;
}
);
unicode = 0163;
},
{
color = 4;
glyphname = u;
lastChange = "2014-11-19 06:38:13 +0000";
layers = (
{
anchors = (
{
name = top;
position = "{267, 384}";
}
);
background = {
paths = (
{
closed = 1;
nodes = (
"254 13 OFFCURVE",
"207 -9 OFFCURVE",
"153 -9 CURVE SMOOTH",
"22 -9 OFFCURVE",
"39 96 OFFCURVE",
"52 162 CURVE SMOOTH",
"95 384 LINE",
"190 384 LINE",
"145 155 LINE SMOOTH",
"139 125 OFFCURVE",
"141 73 OFFCURVE",
"204 73 CURVE SMOOTH",
"219 73 OFFCURVE",
"250 74 OFFCURVE",
"289 94 CURVE",
"344 384 LINE",
"438 384 LINE",
"363 -1 LINE",
"296 -1 LINE",
"288 28 LINE"
);
}
);
};
layerId = "CFA4B904-E3F1-48B6-A7F6-47DC1FF2A3E1";
name = Bold;
paths = (
{
closed = 1;
nodes = (
"254 13 OFFCURVE",
"207 -9 OFFCURVE",
"153 -9 CURVE SMOOTH",
"22 -9 OFFCURVE",
"44 123 OFFCURVE",
"57 189 CURVE SMOOTH",
"95 384 LINE",
"190 384 LINE",
"145 155 LINE SMOOTH",
"138 118 OFFCURVE",
"141 73 OFFCURVE",
"204 73 CURVE SMOOTH",
"219 73 OFFCURVE",
"250 74 OFFCURVE",
"289 94 CURVE",
"344 384 LINE",
"438 384 LINE",
"363 -1 LINE",
"296 -1 LINE",
"288 28 LINE"
);
}
);
width = 487;
}
);
unicode = 0075;
},
{
color = 4;
glyphname = uogonek;
lastChange = "2014-11-19 07:10:24 +0000";
layers = (
{
anchors = (
{
name = top;
position = "{267, 384}";
}
);
background = {
paths = (
{
closed = 1;
nodes = (
"254 13 OFFCURVE",
"207 -9 OFFCURVE",
"153 -9 CURVE SMOOTH",
"22 -9 OFFCURVE",
"39 96 OFFCURVE",
"52 162 CURVE SMOOTH",
"95 383 LINE",
"190 383 LINE",
"144 151 LINE SMOOTH",
"139 121 OFFCURVE",
"141 69 OFFCURVE",
"204 69 CURVE SMOOTH",
"219 69 OFFCURVE",
"250 73 OFFCURVE",
"289 90 CURVE",
"344 383 LINE",
"438 383 LINE",
"361 1 LINE",
"305 -25 OFFCURVE",
"241 -59 OFFCURVE",
"234 -94 CURVE SMOOTH",
"228 -123 OFFCURVE",
"246 -140 OFFCURVE",
"275 -140 CURVE SMOOTH",
"300 -140 OFFCURVE",
"331 -126 OFFCURVE",
"348 -115 CURVE",
"365 -156 LINE",
"328 -177 OFFCURVE",
"284 -200 OFFCURVE",
"226 -200 CURVE SMOOTH",
"170 -200 OFFCURVE",
"130 -167 OFFCURVE",
"138 -123 CURVE SMOOTH",
"152 -53 OFFCURVE",
"248 -19 OFFCURVE",
"297 5 CURVE",
"288 28 LINE"
);
}
);
};
layerId = "CFA4B904-E3F1-48B6-A7F6-47DC1FF2A3E1";
name = Bold;
paths = (
{
closed = 1;
nodes = (
"249 -140 OFFCURVE",
"231 -123 OFFCURVE",
"237 -94 CURVE SMOOTH",
"244 -59 OFFCURVE",
"308 -25 OFFCURVE",
"364 1 CURVE",
"438 384 LINE",
"344 384 LINE",
"289 94 LINE",
"250 74 OFFCURVE",
"219 73 OFFCURVE",
"204 73 CURVE SMOOTH",
"141 73 OFFCURVE",
"138 118 OFFCURVE",
"145 155 CURVE SMOOTH",
"190 384 LINE",
"95 384 LINE",
"57 189 LINE SMOOTH",
"44 123 OFFCURVE",
"22 -9 OFFCURVE",
"153 -9 CURVE SMOOTH",
"207 -9 OFFCURVE",
"254 13 OFFCURVE",
"288 28 CURVE",
"297.233 3.6578 LINE",
"247.476 -20.2701 OFFCURVE",
"154.741 -54.2947 OFFCURVE",
"141 -123 CURVE SMOOTH",
"133 -167 OFFCURVE",
"173 -200 OFFCURVE",
"229 -200 CURVE SMOOTH",
"287 -200 OFFCURVE",
"331 -177 OFFCURVE",
"368 -156 CURVE",
"351 -115 LINE",
"334 -126 OFFCURVE",
"303 -140 OFFCURVE",
"278 -140 CURVE SMOOTH"
);
}
);
width = 487;
}
);
unicode = 0173;
},
{
color = 4;
glyphname = v;
lastChange = "2014-11-19 06:06:49 +0000";
layers = (
{
background = {
paths = (
{
closed = 1;
nodes = (
"76 0 LINE",
"3 384 LINE",
"112 384 LINE",
"148 101 LINE",
"293 384 LINE",
"391 384 LINE",
"173 0 LINE"
);
}
);
};
layerId = "CFA4B904-E3F1-48B6-A7F6-47DC1FF2A3E1";
name = Bold;
paths = (
{
closed = 1;
nodes = (
"83 0 LINE",
"11 384 LINE",
"110 384 LINE",
"148 101 LINE",
"293 384 LINE",
"398 384 LINE",
"183 0 LINE"
);
}
);
width = 414;
}
);
unicode = 0076;
},
{
color = 4;
glyphname = w;
lastChange = "2014-11-19 07:09:06 +0000";
layers = (
{
background = {
paths = (
{
closed = 1;
nodes = (
"408 105 LINE",
"541 384 LINE",
"641 384 LINE",
"428 0 LINE",
"337 0 LINE",
"305 272 LINE",
"165 0 LINE",
"73 0 LINE",
"11 384 LINE",
"115 384 LINE",
"140 105 LINE",
"276 384 LINE",
"381 384 LINE"
);
}
);
};
layerId = "CFA4B904-E3F1-48B6-A7F6-47DC1FF2A3E1";
name = Bold;
paths = (
{
closed = 1;
nodes = (
"408 105 LINE",
"541 384 LINE",
"641 384 LINE",
"443 0 LINE",
"341 0 LINE",
"311 272 LINE",
"171 0 LINE",
"75 0 LINE",
"16 384 LINE",
"112 384 LINE",
"140 105 LINE",
"276 384 LINE",
"381 384 LINE"
);
}
);
width = 657;
}
);
unicode = 0077;
},
{
color = 4;
glyphname = x;
lastChange = "2014-11-19 06:40:04 +0000";
layers = (
{
background = {
paths = (
{
closed = 1;
nodes = (
"251 251 LINE",
"356 384 LINE",
"466 384 LINE",
"295 189 LINE",
"396 0 LINE",
"277 0 LINE",
"222 123 LINE",
"120 0 LINE",
"13 0 LINE",
"174 189 LINE",
"79 384 LINE",
"191 384 LINE"
);
}
);
};
layerId = "CFA4B904-E3F1-48B6-A7F6-47DC1FF2A3E1";
name = Bold;
paths = (
{
closed = 1;
nodes = (
"177 384 LINE",
"385 0 LINE",
"281 0 LINE",
"80 384 LINE"
);
},
{
closed = 1;
nodes = (
"466 384 LINE",
"260 155 LINE",
"248 140 LINE",
"122 1 LINE",
"11 1 LINE",
"194 204 LINE",
"208 221 LINE",
"354 384 LINE"
);
}
);
width = 478;
}
);
unicode = 0078;
},
{
color = 4;
glyphname = y;
lastChange = "2014-11-19 06:37:05 +0000";
layers = (
{
anchors = (
{
name = top;
position = "{176, 384}";
}
);
background = {
paths = (
{
closed = 1;
nodes = (
"136 89 LINE",
"296 384 LINE",
"394 384 LINE",
"44 -206 LINE",
"-61 -206 LINE",
"65 -3 LINE",
"-33 384 LINE",
"78 384 LINE"
);
}
);
};
layerId = "CFA4B904-E3F1-48B6-A7F6-47DC1FF2A3E1";
name = Bold;
paths = (
{
closed = 1;
nodes = (
"136 89 LINE",
"301 384 LINE",
"401 384 LINE",
"51 -206 LINE",
"-41 -206 LINE",
"73 -11 LINE",
"-13 384 LINE",
"78 384 LINE"
);
}
);
width = 435;
}
);
unicode = 0079;
},
{
color = 4;
glyphname = z;
lastChange = "2014-11-19 06:38:06 +0000";
layers = (
{
anchors = (
{
name = top;
position = "{239, 384}";
}
);
background = {
paths = (
{
closed = 1;
nodes = (
"391 333 LINE",
"162 81 LINE",
"350 81 LINE",
"334 0 LINE",
"20 0 LINE",
"31 49 LINE",
"258 300 LINE",
"78 300 LINE",
"95 384 LINE",
"402 384 LINE"
);
}
);
};
layerId = "CFA4B904-E3F1-48B6-A7F6-47DC1FF2A3E1";
name = Bold;
paths = (
{
closed = 1;
nodes = (
"391 333 LINE",
"172 81 LINE",
"350 81 LINE",
"334 0 LINE",
"31 0 LINE",
"31 49 LINE",
"248 300 LINE",
"78 300 LINE",
"95 384 LINE",
"391 384 LINE"
);
}
);
width = 418;
}
);
unicode = 007A;
},
{
color = 4;
glyphname = fi;
lastChange = "2014-11-19 07:50:31 +0000";
layers = (
{
background = {
paths = (
{
closed = 1;
nodes = (
"111 453 OFFCURVE",
"150 554 OFFCURVE",
"293 554 CURVE SMOOTH",
"308 554 OFFCURVE",
"334 554 OFFCURVE",
"367 545 CURVE",
"334 473 LINE",
"322 475 OFFCURVE",
"307 478 OFFCURVE",
"290 478 CURVE SMOOTH",
"240 478 OFFCURVE",
"207 459 OFFCURVE",
"200 420 CURVE SMOOTH",
"193 384 LINE",
"326 384 LINE",
"311 309 LINE",
"178 309 LINE",
"118 0 LINE",
"23 0 LINE",
"83 309 LINE",
"19 309 LINE",
"34 384 LINE",
"98 384 LINE",
"103 411 LINE SMOOTH"
);
},
{
closed = 1;
nodes = (
"404 0 LINE",
"308 0 LINE",
"383 384 LINE",
"479 384 LINE"
);
},
{
closed = 1;
nodes = (
"472 449 OFFCURVE",
"501 473 OFFCURVE",
"507 503 CURVE SMOOTH",
"514 541 OFFCURVE",
"490 571 OFFCURVE",
"454 571 CURVE SMOOTH",
"422 571 OFFCURVE",
"394 549 OFFCURVE",
"388 517 CURVE SMOOTH",
"381 479 OFFCURVE",
"404 449 OFFCURVE",
"440 449 CURVE SMOOTH"
);
}
);
};
layerId = "CFA4B904-E3F1-48B6-A7F6-47DC1FF2A3E1";
name = Bold;
paths = (
{
closed = 1;
nodes = (
"448 0 LINE",
"352 0 LINE",
"427 384 LINE",
"523 384 LINE"
);
},
{
closed = 1;
nodes = (
"516 449 OFFCURVE",
"545 473 OFFCURVE",
"551 503 CURVE SMOOTH",
"558 541 OFFCURVE",
"534 571 OFFCURVE",
"498 571 CURVE SMOOTH",
"466 571 OFFCURVE",
"438 549 OFFCURVE",
"432 517 CURVE SMOOTH",
"425 479 OFFCURVE",
"448 449 OFFCURVE",
"484 449 CURVE SMOOTH"
);
},
{
closed = 1;
nodes = (
"119 490 OFFCURVE",
"151 554 OFFCURVE",
"294 554 CURVE SMOOTH",
"315 554 OFFCURVE",
"339 551 OFFCURVE",
"366 544 CURVE",
"335 474 LINE",
"321 477 OFFCURVE",
"305 478 OFFCURVE",
"291 478 CURVE SMOOTH",
"231 478 OFFCURVE",
"208 459 OFFCURVE",
"201 420 CURVE SMOOTH",
"194 384 LINE",
"327 384 LINE",
"312 309 LINE",
"176 309 LINE",
"119 0 LINE",
"28 0 LINE",
"84 309 LINE",
"10 309 LINE",
"25 384 LINE",
"99 384 LINE",
"104 411 LINE SMOOTH"
);
}
);
width = 571;
}
);
leftMetricsKey = f;
unicode = FB01;
},
{
color = 4;
glyphname = fl;
lastChange = "2014-11-19 07:53:40 +0000";
layers = (
{
background = {
paths = (
{
closed = 1;
nodes = (
"111 453 OFFCURVE",
"150 554 OFFCURVE",
"293 554 CURVE SMOOTH",
"308 554 OFFCURVE",
"334 554 OFFCURVE",
"367 545 CURVE",
"334 473 LINE",
"322 475 OFFCURVE",
"307 478 OFFCURVE",
"290 478 CURVE SMOOTH",
"240 478 OFFCURVE",
"207 459 OFFCURVE",
"200 420 CURVE SMOOTH",
"193 384 LINE",
"326 384 LINE",
"311 309 LINE",
"178 309 LINE",
"118 0 LINE",
"23 0 LINE",
"83 309 LINE",
"19 309 LINE",
"34 384 LINE",
"98 384 LINE",
"103 411 LINE SMOOTH"
);
},
{
closed = 1;
nodes = (
"466 66 OFFCURVE",
"483 68 OFFCURVE",
"498 72 CURVE",
"481 11 LINE",
"465 4 OFFCURVE",
"436 -9 OFFCURVE",
"389 -9 CURVE SMOOTH",
"311 -9 OFFCURVE",
"306 43 OFFCURVE",
"316 96 CURVE SMOOTH",
"404 550 LINE",
"498 550 LINE",
"417 130 LINE SMOOTH",
"410 93 OFFCURVE",
"415 66 OFFCURVE",
"453 66 CURVE SMOOTH"
);
}
);
};
components = (
{
name = l;
transform = "{1, 0, 0, 1, 330, 0}";
}
);
layerId = "CFA4B904-E3F1-48B6-A7F6-47DC1FF2A3E1";
name = Bold;
paths = (
{
closed = 1;
nodes = (
"119 490 OFFCURVE",
"151 554 OFFCURVE",
"294 554 CURVE SMOOTH",
"323 554 OFFCURVE",
"359 547 OFFCURVE",
"397 534 CURVE",
"367 465 LINE",
"340 474 OFFCURVE",
"316 478 OFFCURVE",
"291 478 CURVE SMOOTH",
"231 478 OFFCURVE",
"208 459 OFFCURVE",
"201 420 CURVE SMOOTH",
"194 384 LINE",
"327 384 LINE",
"312 309 LINE",
"176 309 LINE",
"119 0 LINE",
"28 0 LINE",
"84 309 LINE",
"10 309 LINE",
"25 384 LINE",
"99 384 LINE",
"104 411 LINE SMOOTH"
);
}
);
width = 576;
}
);
leftMetricsKey = f;
unicode = FB02;
},
{
glyphname = ordfeminine;
lastChange = "2014-11-07 17:35:12 +0000";
layers = (
{
background = {
paths = (
{
closed = 1;
nodes = (
"103 505 OFFCURVE",
"79 499 OFFCURVE",
"57 492 CURVE",
"47 526 LINE",
"71 535 OFFCURVE",
"106 544 OFFCURVE",
"129 544 CURVE SMOOTH",
"156 544 OFFCURVE",
"174 538 OFFCURVE",
"187 530 CURVE",
"210 514 OFFCURVE",
"223 491 OFFCURVE",
"223 455 CURVE SMOOTH",
"223 312 LINE",
"187 312 LINE",
"179 332 LINE",
"156 315 OFFCURVE",
"133 306 OFFCURVE",
"110 306 CURVE SMOOTH",
"63 306 OFFCURVE",
"39 338 OFFCURVE",
"39 375 CURVE SMOOTH",
"39 411 OFFCURVE",
"59 429 OFFCURVE",
"85 438 CURVE SMOOTH",
"111 447 OFFCURVE",
"144 447 OFFCURVE",
"177 446 CURVE",
"177 447 LINE SMOOTH",
"177 484 OFFCURVE",
"166 505 OFFCURVE",
"121 505 CURVE SMOOTH"
);
},
{
closed = 1;
nodes = (
"143 344 OFFCURVE",
"161 354 OFFCURVE",
"177 370 CURVE",
"177 411 LINE",
"146 411 LINE",
"114 411 OFFCURVE",
"84 408 OFFCURVE",
"84 379 CURVE SMOOTH",
"84 359 OFFCURVE",
"96 344 OFFCURVE",
"116 344 CURVE SMOOTH"
);
}
);
};
layerId = "CFA4B904-E3F1-48B6-A7F6-47DC1FF2A3E1";
name = Bold;
paths = (
{
closed = 1;
nodes = (
"217 554 OFFCURVE",
"236 514 OFFCURVE",
"236 456 CURVE SMOOTH",
"236 308 LINE",
"189 308 LINE",
"182 324 LINE",
"162 312 OFFCURVE",
"142 302 OFFCURVE",
"113 302 CURVE SMOOTH",
"62 302 OFFCURVE",
"30 334 OFFCURVE",
"30 375 CURVE SMOOTH",
"30 422 OFFCURVE",
"65 447 OFFCURVE",
"130 452 CURVE SMOOTH",
"175 455 LINE",
"175 495 OFFCURVE",
"165 509 OFFCURVE",
"120 509 CURVE SMOOTH",
"97 509 OFFCURVE",
"73 499 OFFCURVE",
"54 495 CURVE",
"42 535 LINE",
"60 543 OFFCURVE",
"99 554 OFFCURVE",
"131 554 CURVE SMOOTH"
);
},
{
closed = 1;
nodes = (
"136 410 LINE",
"105 409 OFFCURVE",
"89 398 OFFCURVE",
"89 378 CURVE SMOOTH",
"89 361 OFFCURVE",
"105 348 OFFCURVE",
"130 348 CURVE SMOOTH",
"155 348 OFFCURVE",
"164 352 OFFCURVE",
"177 363 CURVE",
"177 414 LINE"
);
}
);
width = 266;
}
);
unicode = 00AA;
},
{
glyphname = ordmasculine;
lastChange = "2014-11-07 17:38:15 +0000";
layers = (
{
background = {
paths = (
{
closed = 1;
nodes = (
"101 506 OFFCURVE",
"75 474 OFFCURVE",
"75 425 CURVE SMOOTH",
"75 376 OFFCURVE",
"101 344 OFFCURVE",
"140 344 CURVE SMOOTH",
"179 344 OFFCURVE",
"205 374 OFFCURVE",
"205 425 CURVE SMOOTH",
"205 474 OFFCURVE",
"179 506 OFFCURVE",
"140 506 CURVE SMOOTH"
);
},
{
closed = 1;
nodes = (
"68 307 OFFCURVE",
"30 353 OFFCURVE",
"30 425 CURVE SMOOTH",
"30 497 OFFCURVE",
"71 543 OFFCURVE",
"140 543 CURVE SMOOTH",
"211 543 OFFCURVE",
"250 497 OFFCURVE",
"250 425 CURVE SMOOTH",
"250 353 OFFCURVE",
"210 307 OFFCURVE",
"139 307 CURVE SMOOTH"
);
}
);
};
layerId = "CFA4B904-E3F1-48B6-A7F6-47DC1FF2A3E1";
name = Bold;
paths = (
{
closed = 1;
nodes = (
"115 509 OFFCURVE",
"89 479 OFFCURVE",
"89 427 CURVE SMOOTH",
"89 378 OFFCURVE",
"115 349 OFFCURVE",
"148 349 CURVE SMOOTH",
"183 349 OFFCURVE",
"207 378 OFFCURVE",
"207 427 CURVE SMOOTH",
"207 479 OFFCURVE",
"183 509 OFFCURVE",
"148 509 CURVE SMOOTH"
);
},
{
closed = 1;
nodes = (
"74 302 OFFCURVE",
"30 354 OFFCURVE",
"30 427 CURVE SMOOTH",
"30 503 OFFCURVE",
"74 555 OFFCURVE",
"149 555 CURVE SMOOTH",
"224 555 OFFCURVE",
"267 503 OFFCURVE",
"267 427 CURVE SMOOTH",
"267 354 OFFCURVE",
"221 302 OFFCURVE",
"148 302 CURVE SMOOTH"
);
}
);
width = 297;
}
);
unicode = 00BA;
},
{
glyphname = pi;
lastChange = "2014-11-05 14:04:42 +0000";
layers = (
{
background = {
paths = (
{
closed = 1;
nodes = (
"20 384 LINE",
"416 384 LINE",
"416 324 LINE",
"351 324 LINE",
"351 106 LINE SMOOTH",
"351 74 OFFCURVE",
"354 51 OFFCURVE",
"402 51 CURVE SMOOTH",
"415 51 OFFCURVE",
"424 53 OFFCURVE",
"436 57 CURVE",
"448 10 LINE",
"433 4 OFFCURVE",
"412 -9 OFFCURVE",
"370 -9 CURVE SMOOTH",
"321 -9 OFFCURVE",
"289 28 OFFCURVE",
"288 83 CURVE",
"288 324 LINE",
"146 324 LINE",
"146 0 LINE",
"79 0 LINE",
"79 324 LINE",
"20 324 LINE"
);
}
);
};
layerId = "CFA4B904-E3F1-48B6-A7F6-47DC1FF2A3E1";
name = Bold;
paths = (
{
closed = 1;
nodes = (
"430 68 OFFCURVE",
"438 70 OFFCURVE",
"447 72 CURVE",
"467 12 LINE",
"452 5 OFFCURVE",
"426 -7 OFFCURVE",
"381 -7 CURVE SMOOTH",
"301 -7 OFFCURVE",
"283 48 OFFCURVE",
"283 101 CURVE SMOOTH",
"283 384 LINE",
"377 384 LINE",
"377 129 LINE SMOOTH",
"377 92 OFFCURVE",
"385 68 OFFCURVE",
"421 68 CURVE SMOOTH"
);
},
{
closed = 1;
nodes = (
"441 384 LINE",
"441 303 LINE",
"10 303 LINE",
"10 384 LINE"
);
},
{
closed = 1;
nodes = (
"176 0 LINE",
"80 0 LINE",
"80 384 LINE",
"176 384 LINE"
);
}
);
width = 467;
}
);
unicode = 03C0;
},
{
color = 4;
glyphname = "ka-deva";
lastChange = "2014-11-19 08:04:18 +0000";
layers = (
{
anchors = (
{
name = bottom;
position = "{241, 5}";
},
{
name = top;
position = "{327, 447}";
}
);
background = {
paths = (
{
closed = 1;
nodes = (
"599 291 OFFCURVE",
"539 345 OFFCURVE",
"452 345 CURVE SMOOTH",
"380 345 OFFCURVE",
"347 308 OFFCURVE",
"320 290 CURVE",
"334 205 LINE",
"350 217 OFFCURVE",
"402 262 OFFCURVE",
"448 262 CURVE SMOOTH",
"493 262 OFFCURVE",
"512 236 OFFCURVE",
"512 200 CURVE SMOOTH",
"512 154 OFFCURVE",
"487 134 OFFCURVE",
"458 107 CURVE",
"519 46 LINE",
"566 85 OFFCURVE",
"599 125 OFFCURVE",
"599 199 CURVE SMOOTH"
);
},
{
closed = 1;
nodes = (
"23 466 LINE",
"23 396 LINE",
"645 396 LINE",
"645 466 LINE"
);
},
{
closed = 1;
nodes = (
"306 0 LINE",
"391 0 LINE",
"391 466 LINE",
"306 466 LINE"
);
},
{
closed = 1;
nodes = (
"151 245 OFFCURVE",
"190 265 OFFCURVE",
"236 265 CURVE SMOOTH",
"288 265 OFFCURVE",
"314 240 OFFCURVE",
"330 223 CURVE",
"346 304 LINE",
"319 320 OFFCURVE",
"286 345 OFFCURVE",
"222 345 CURVE SMOOTH",
"139 345 OFFCURVE",
"67 295 OFFCURVE",
"67 197 CURVE SMOOTH",
"67 103 OFFCURVE",
"139 50 OFFCURVE",
"222 50 CURVE SMOOTH",
"284 50 OFFCURVE",
"319 72 OFFCURVE",
"346 90 CURVE",
"330 170 LINE",
"314 158 OFFCURVE",
"288 129 OFFCURVE",
"236 129 CURVE SMOOTH",
"190 129 OFFCURVE",
"151 149 OFFCURVE",
"151 197 CURVE SMOOTH"
);
}
);
};
layerId = "CFA4B904-E3F1-48B6-A7F6-47DC1FF2A3E1";
name = Bold;
paths = (
{
closed = 1;
nodes = (
"540 288 OFFCURVE",
"487 340 OFFCURVE",
"403 340 CURVE SMOOTH",
"333 340 OFFCURVE",
"294 305 OFFCURVE",
"264 287 CURVE",
"267 203 LINE",
"284 215 OFFCURVE",
"346 262 OFFCURVE",
"394 262 CURVE SMOOTH",
"437 262 OFFCURVE",
"449 239 OFFCURVE",
"442 207 CURVE SMOOTH",
"433 157 OFFCURVE",
"392 129 OFFCURVE",
"367 109 CURVE",
"417 48 LINE",
"463 81 OFFCURVE",
"509 126 OFFCURVE",
"521 192 CURVE SMOOTH"
);
},
{
closed = 1;
nodes = (
"-10 466 LINE",
"-24 396 LINE",
"629 396 LINE",
"643 466 LINE"
);
},
{
closed = 1;
nodes = (
"199 0 LINE",
"281 0 LINE",
"372 466 LINE",
"290 466 LINE"
);
},
{
closed = 1;
nodes = (
"91 242 OFFCURVE",
"138 265 OFFCURVE",
"186 265 CURVE SMOOTH",
"236 265 OFFCURVE",
"256 242 OFFCURVE",
"269 225 CURVE",
"295 297 LINE",
"271 313 OFFCURVE",
"242 340 OFFCURVE",
"176 340 CURVE SMOOTH",
"95 340 OFFCURVE",
"22 293 OFFCURVE",
"5 204 CURVE SMOOTH",
"-13 111 OFFCURVE",
"46 55 OFFCURVE",
"131 55 CURVE SMOOTH",
"191 55 OFFCURVE",
"229 75 OFFCURVE",
"259 93 CURVE",
"254 172 LINE",
"236 160 OFFCURVE",
"203 129 OFFCURVE",
"149 129 CURVE SMOOTH",
"105 129 OFFCURVE",
"72 146 OFFCURVE",
"81 190 CURVE SMOOTH"
);
}
);
width = 619;
}
);
unicode = 0915;
},
{
color = 4;
glyphname = "kha-deva";
lastChange = "2014-11-19 09:10:21 +0000";
layers = (
{
anchors = (
{
name = bottom;
position = "{438, 5}";
},
{
name = top;
position = "{524, 447}";
}
);
background = {
paths = (
{
closed = 1;
nodes = (
"80 424 OFFCURVE",
"159 406 OFFCURVE",
"141 313 CURVE SMOOTH",
"123 220 OFFCURVE",
"11 213 OFFCURVE",
"12 210 CURVE SMOOTH",
"13 213 OFFCURVE",
"27 148 OFFCURVE",
"30 148 CURVE",
"91 148 OFFCURVE",
"195 192 OFFCURVE",
"216 297 CURVE SMOOTH",
"237 407 OFFCURVE",
"160 447 OFFCURVE",
"160 447 CURVE",
"79 424 LINE"
);
},
{
closed = 1;
nodes = (
"118 -25 LINE",
"117 -25 OFFCURVE",
"195 28 OFFCURVE",
"195 28 CURVE",
"34 254 LINE",
"-31 205 LINE"
);
},
{
closed = 1;
nodes = (
"-10 466 LINE",
"-24 396 LINE",
"291 396 LINE",
"305 466 LINE"
);
},
{
closed = 1;
nodes = (
"211 466 LINE",
"197 396 LINE",
"646 396 LINE",
"660 466 LINE"
);
},
{
closed = 1;
nodes = (
"305 242 OFFCURVE",
"342 265 OFFCURVE",
"390 265 CURVE SMOOTH",
"450 265 OFFCURVE",
"466 222 OFFCURVE",
"479 205 CURVE",
"507 281 LINE",
"492 304 OFFCURVE",
"453 345 OFFCURVE",
"387 345 CURVE SMOOTH",
"306 345 OFFCURVE",
"232 298 OFFCURVE",
"214 204 CURVE SMOOTH",
"195 106 OFFCURVE",
"259 53 OFFCURVE",
"344 53 CURVE SMOOTH",
"414 53 OFFCURVE",
"444 80 OFFCURVE",
"474 98 CURVE",
"470 182 LINE",
"451 165 OFFCURVE",
"417 129 OFFCURVE",
"363 129 CURVE SMOOTH",
"319 129 OFFCURVE",
"286 146 OFFCURVE",
"295 190 CURVE SMOOTH"
);
},
{
closed = 1;
nodes = (
"395 0 LINE",
"480 0 LINE",
"571 466 LINE",
"486 466 LINE"
);
}
);
};
guideLines = (
{
angle = 90;
position = "{526, 204}";
}
);
layerId = "CFA4B904-E3F1-48B6-A7F6-47DC1FF2A3E1";
name = Bold;
paths = (
{
closed = 1;
nodes = (
"80 424 OFFCURVE",
"159 406 OFFCURVE",
"141 313 CURVE SMOOTH",
"123 220 OFFCURVE",
"11 213 OFFCURVE",
"12 210 CURVE SMOOTH",
"13 213 OFFCURVE",
"27 148 OFFCURVE",
"30 148 CURVE",
"91 148 OFFCURVE",
"195 192 OFFCURVE",
"216 297 CURVE SMOOTH",
"237 407 OFFCURVE",
"160 447 OFFCURVE",
"160 447 CURVE",
"79 424 LINE"
);
},
{
closed = 1;
nodes = (
"118 -25 LINE",
"117 -25 OFFCURVE",
"188 23 OFFCURVE",
"188 23 CURVE",
"34 254 LINE",
"-31 205 LINE"
);
},
{
closed = 1;
nodes = (
"-10 466 LINE",
"-24 396 LINE",
"291 396 LINE",
"305 466 LINE"
);
},
{
closed = 1;
nodes = (
"211 466 LINE",
"197 396 LINE",
"646 396 LINE",
"660 466 LINE"
);
},
{
closed = 1;
nodes = (
"305 242 OFFCURVE",
"342 265 OFFCURVE",
"390 265 CURVE SMOOTH",
"450 265 OFFCURVE",
"466 222 OFFCURVE",
"479 205 CURVE",
"507 281 LINE",
"492 304 OFFCURVE",
"453 345 OFFCURVE",
"387 345 CURVE SMOOTH",
"306 345 OFFCURVE",
"232 298 OFFCURVE",
"214 204 CURVE SMOOTH",
"195 106 OFFCURVE",
"259 53 OFFCURVE",
"344 53 CURVE SMOOTH",
"414 53 OFFCURVE",
"444 80 OFFCURVE",
"474 98 CURVE",
"470 182 LINE",
"451 165 OFFCURVE",
"417 129 OFFCURVE",
"363 129 CURVE SMOOTH",
"319 129 OFFCURVE",
"286 146 OFFCURVE",
"295 190 CURVE SMOOTH"
);
},
{
closed = 1;
nodes = (
"395 0 LINE",
"480 0 LINE",
"571 466 LINE",
"486 466 LINE"
);
}
);
width = 636;
}
);
unicode = 0916;
},
{
color = 4;
glyphname = "ga-deva";
lastChange = "2014-11-19 08:04:18 +0000";
layers = (
{
anchors = (
{
name = bottom;
position = "{274, 5}";
},
{
name = top;
position = "{360, 447}";
}
);
background = {
paths = (
{
closed = 1;
nodes = (
"354 0 LINE",
"410 0 LINE",
"410 456 LINE",
"354 456 LINE"
);
},
{
closed = 1;
nodes = (
"133 151 LINE",
"188 151 LINE",
"188 456 LINE",
"133 456 LINE"
);
},
{
closed = 1;
nodes = (
"13 456 LINE",
"13 408 LINE",
"508 408 LINE",
"508 456 LINE"
);
},
{
closed = 1;
nodes = (
"75 215 LINE",
"75 181 LINE",
"150 90 LINE",
"150 90 OFFCURVE",
"188 90 OFFCURVE",
"188 90 CURVE",
"188 215 LINE"
);
}
);
};
layerId = "CFA4B904-E3F1-48B6-A7F6-47DC1FF2A3E1";
name = Bold;
paths = (
{
closed = 1;
nodes = (
"-10 466 LINE",
"-24 396 LINE",
"482 396 LINE",
"496 466 LINE"
);
},
{
closed = 1;
nodes = (
"231 0 LINE",
"316 0 LINE",
"407 466 LINE",
"322 466 LINE"
);
},
{
closed = 1;
nodes = (
"-2 240 LINE",
"-9 198 LINE",
"54 75 LINE",
"53 75 OFFCURVE",
"113 78 OFFCURVE",
"113 78 CURVE",
"145 240 LINE"
);
},
{
closed = 1;
nodes = (
"48 180 LINE",
"133 180 LINE",
"189 466 LINE",
"104 466 LINE"
);
}
);
width = 472;
}
);
unicode = 0917;
},
{
color = 4;
glyphname = "gha-deva";
lastChange = "2014-11-19 08:04:18 +0000";
layers = (
{
anchors = (
{
name = bottom;
position = "{303, 5}";
},
{
name = top;
position = "{389, 447}";
}
);
background = {
paths = (
{
closed = 1;
nodes = (
"250 277 LINE",
"250 277 OFFCURVE",
"151 281 OFFCURVE",
"151 354 CURVE SMOOTH",
"151 426 OFFCURVE",
"230 456 OFFCURVE",
"230 456 CURVE SMOOTH",
"124 456 LINE SMOOTH",
"124 456 OFFCURVE",
"64 422 OFFCURVE",
"64 354 CURVE SMOOTH",
"64 279 OFFCURVE",
"127 249 OFFCURVE",
"143 237 CURVE"
);
},
{
closed = 1;
nodes = (
"144 305 OFFCURVE",
"88 255 OFFCURVE",
"88 191 CURVE SMOOTH",
"88 109 OFFCURVE",
"158 58 OFFCURVE",
"254 58 CURVE SMOOTH",
"339 58 OFFCURVE",
"394 104 OFFCURVE",
"394 105 CURVE",
"394 201 LINE",
"394 201 OFFCURVE",
"341 139 OFFCURVE",
"251 139 CURVE SMOOTH",
"213 139 OFFCURVE",
"176 154 OFFCURVE",
"176 184 CURVE SMOOTH",
"176 210 OFFCURVE",
"211 229 OFFCURVE",
"278 237 CURVE",
"258 313 LINE"
);
},
{
closed = 1;
nodes = (
"3 466 LINE",
"3 396 LINE",
"534 396 LINE",
"534 466 LINE"
);
},
{
closed = 1;
nodes = (
"367 0 LINE",
"452 0 LINE",
"452 466 LINE",
"367 466 LINE"
);
}
);
};
layerId = "CFA4B904-E3F1-48B6-A7F6-47DC1FF2A3E1";
name = Bold;
paths = (
{
closed = 1;
nodes = (
"195 277 LINE",
"194 277 OFFCURVE",
"99 281 OFFCURVE",
"112 347 CURVE SMOOTH",
"126 423 OFFCURVE",
"215 456 OFFCURVE",
"215 456 CURVE SMOOTH",
"107 458 LINE SMOOTH",
"107 458 OFFCURVE",
"43 425 OFFCURVE",
"30 361 CURVE SMOOTH",
"15 282 OFFCURVE",
"74 251 OFFCURVE",
"88 239 CURVE"
);
},
{
closed = 1;
nodes = (
"91 294 OFFCURVE",
"34 258 OFFCURVE",
"23 198 CURVE SMOOTH",
"6 112 OFFCURVE",
"66 61 OFFCURVE",
"164 61 CURVE SMOOTH",
"247 61 OFFCURVE",
"307 104 OFFCURVE",
"308 105 CURVE",
"325 203 LINE",
"325 203 OFFCURVE",
"258 139 OFFCURVE",
"166 139 CURVE SMOOTH",
"130 139 OFFCURVE",
"98 151 OFFCURVE",
"103 177 CURVE SMOOTH",
"109 207 OFFCURVE",
"152 229 OFFCURVE",
"220 237 CURVE",
"208 310 LINE"
);
},
{
closed = 1;
nodes = (
"-10 466 LINE",
"-24 396 LINE",
"511 396 LINE",
"525 466 LINE"
);
},
{
closed = 1;
nodes = (
"260 0 LINE",
"345 0 LINE",
"436 466 LINE",
"351 466 LINE"
);
}
);
width = 501;
}
);
unicode = 0918;
},
{
color = 4;
glyphname = "nga-deva";
lastChange = "2014-11-19 08:49:06 +0000";
layers = (
{
anchors = (
{
name = bottom;
position = "{153, -35}";
},
{
name = top;
position = "{333, 447}";
}
);
background = {
paths = (
{
closed = 1;
nodes = (
"465 207 LINE",
"465 266 LINE",
"404 266 LINE",
"404 207 LINE"
);
},
{
closed = 1;
nodes = (
"7 456 LINE",
"7 408 LINE",
"531 408 LINE",
"531 456 LINE"
);
},
{
closed = 1;
nodes = (
"311 171 OFFCURVE",
"340 153 OFFCURVE",
"340 116 CURVE SMOOTH",
"340 73 OFFCURVE",
"299 52 OFFCURVE",
"255 52 CURVE SMOOTH",
"196 52 OFFCURVE",
"147 81 OFFCURVE",
"99 128 CURVE",
"65 91 LINE",
"117 38 OFFCURVE",
"180 0 OFFCURVE",
"256 0 CURVE SMOOTH",
"337 0 OFFCURVE",
"394 46 OFFCURVE",
"394 120 CURVE SMOOTH",
"394 181 OFFCURVE",
"341 220 OFFCURVE",
"269 216 CURVE SMOOTH",
"217 213 OFFCURVE",
"164 212 OFFCURVE",
"164 256 CURVE SMOOTH",
"164 284 OFFCURVE",
"187 294 OFFCURVE",
"237 294 CURVE SMOOTH",
"299 294 OFFCURVE",
"316 289 OFFCURVE",
"351 285 CURVE",
"361 292 LINE",
"361 456 LINE",
"305 456 LINE",
"305 343 LINE",
"284 345 OFFCURVE",
"272 346 OFFCURVE",
"239 346 CURVE SMOOTH",
"162 346 OFFCURVE",
"111 322 OFFCURVE",
"111 259 CURVE SMOOTH",
"111 162 OFFCURVE",
"213 161 OFFCURVE",
"251 165 CURVE SMOOTH"
);
}
);
};
components = (
{
name = "nukta-deva";
transform = "{1, 0, 0, 1, 571, 307}";
}
);
layerId = "CFA4B904-E3F1-48B6-A7F6-47DC1FF2A3E1";
name = Bold;
paths = (
{
closed = 1;
nodes = (
"256 154 OFFCURVE",
"262 136 OFFCURVE",
"259 123 CURVE SMOOTH",
"254 96 OFFCURVE",
"223 75 OFFCURVE",
"177 75 CURVE SMOOTH",
"115 75 OFFCURVE",
"77 92 OFFCURVE",
"38 139 CURVE",
"-21 87 LINE",
"20 38 OFFCURVE",
"75 -3 OFFCURVE",
"165 -3 CURVE SMOOTH",
"259 -3 OFFCURVE",
"324 43 OFFCURVE",
"338 113 CURVE SMOOTH",
"352 186 OFFCURVE",
"305 230 OFFCURVE",
"209 225 CURVE SMOOTH",
"159 222 OFFCURVE",
"126 223 OFFCURVE",
"131 247 CURVE SMOOTH",
"135 269 OFFCURVE",
"156 279 OFFCURVE",
"208 279 CURVE SMOOTH",
"268 279 OFFCURVE",
"294 272 OFFCURVE",
"328 268 CURVE",
"338 275 LINE",
"372 456 LINE",
"296 456 LINE",
"272 348 LINE",
"251 350 OFFCURVE",
"239 351 OFFCURVE",
"204 351 CURVE SMOOTH",
"129 351 OFFCURVE",
"66 325 OFFCURVE",
"53 257 CURVE SMOOTH",
"37 175 OFFCURVE",
"106 144 OFFCURVE",
"197 150 CURVE SMOOTH"
);
},
{
closed = 1;
nodes = (
"-10 466 LINE",
"-24 396 LINE",
"517 396 LINE",
"531 466 LINE"
);
}
);
width = 507;
}
);
unicode = 0919;
},
{
color = 4;
glyphname = "ca-deva";
lastChange = "2014-11-19 08:04:26 +0000";
layers = (
{
anchors = (
{
name = bottom;
position = "{308, 5}";
},
{
name = top;
position = "{394, 447}";
}
);
background = {
paths = (
{
closed = 1;
nodes = (
"155 271 OFFCURVE",
"123 255 OFFCURVE",
"123 197 CURVE SMOOTH",
"123 109 OFFCURVE",
"193 58 OFFCURVE",
"278 58 CURVE SMOOTH",
"374 58 OFFCURVE",
"409 101 OFFCURVE",
"409 102 CURVE",
"409 201 LINE",
"409 201 OFFCURVE",
"376 139 OFFCURVE",
"286 139 CURVE SMOOTH",
"248 139 OFFCURVE",
"211 154 OFFCURVE",
"211 197 CURVE SMOOTH",
"211 230 OFFCURVE",
"225 261 OFFCURVE",
"292 269 CURVE",
"183 279 LINE"
);
},
{
closed = 1;
nodes = (
"18 466 LINE",
"18 396 LINE",
"539 396 LINE",
"539 466 LINE"
);
},
{
closed = 1;
nodes = (
"372 0 LINE",
"457 0 LINE",
"457 466 LINE",
"372 466 LINE"
);
},
{
closed = 1;
nodes = (
"52 306 LINE",
"52 234 LINE",
"309 234 LINE",
"309 306 LINE"
);
}
);
};
layerId = "CFA4B904-E3F1-48B6-A7F6-47DC1FF2A3E1";
name = Bold;
paths = (
{
closed = 1;
nodes = (
"101 272 OFFCURVE",
"69 258 OFFCURVE",
"59 204 CURVE SMOOTH",
"41 115 OFFCURVE",
"101 61 OFFCURVE",
"188 61 CURVE SMOOTH",
"282 61 OFFCURVE",
"322 101 OFFCURVE",
"322 102 CURVE",
"341 204 LINE",
"341 204 OFFCURVE",
"293 139 OFFCURVE",
"201 139 CURVE SMOOTH",
"165 139 OFFCURVE",
"133 151 OFFCURVE",
"141 190 CURVE SMOOTH",
"148 227 OFFCURVE",
"172 261 OFFCURVE",
"240 269 CURVE",
"131 280 LINE"
);
},
{
closed = 1;
nodes = (
"-10 466 LINE",
"-24 396 LINE",
"516 396 LINE",
"530 466 LINE"
);
},
{
closed = 1;
nodes = (
"265 0 LINE",
"350 0 LINE",
"441 466 LINE",
"356 466 LINE"
);
},
{
closed = 1;
nodes = (
"5 306 LINE",
"-9 234 LINE",
"248 234 LINE",
"262 306 LINE"
);
}
);
width = 506;
}
);
unicode = 091A;
},
{
color = 4;
glyphname = "cha-deva";
lastChange = "2014-11-19 08:04:26 +0000";
layers = (
{
anchors = (
{
name = bottom;
position = "{185, -45}";
},
{
name = top;
position = "{433, 447}";
}
);
background = {
paths = (
{
closed = 1;
nodes = (
"605 408 LINE",
"605 456 LINE",
"23 456 LINE",
"23 408 LINE"
);
},
{
closed = 1;
nodes = (
"497 121 OFFCURVE",
"422 58 OFFCURVE",
"301 58 CURVE SMOOTH",
"233 58 OFFCURVE",
"165 85 OFFCURVE",
"165 154 CURVE SMOOTH",
"165 187 OFFCURVE",
"190 230 OFFCURVE",
"288 226 CURVE",
"293 226 LINE",
"293 275 LINE",
"284 275 LINE SMOOTH",
"180 274 OFFCURVE",
"173 323 OFFCURVE",
"173 344 CURVE SMOOTH",
"173 378 OFFCURVE",
"190 400 OFFCURVE",
"236 408 CURVE",
"284 456 LINE",
"249 456 OFFCURVE",
"195 444 OFFCURVE",
"164 424 CURVE SMOOTH",
"131 403 OFFCURVE",
"119 373 OFFCURVE",
"119 344 CURVE SMOOTH",
"119 305 OFFCURVE",
"137 275 OFFCURVE",
"182 252 CURVE",
"141 232 OFFCURVE",
"111 204 OFFCURVE",
"111 153 CURVE SMOOTH",
"111 64 OFFCURVE",
"188 6 OFFCURVE",
"301 6 CURVE SMOOTH",
"405 6 OFFCURVE",
"548 57 OFFCURVE",
"548 220 CURVE SMOOTH",
"548 298 OFFCURVE",
"504 349 OFFCURVE",
"447 349 CURVE SMOOTH",
"390 349 OFFCURVE",
"353 298 OFFCURVE",
"353 228 CURVE SMOOTH",
"353 137 OFFCURVE",
"405 84 OFFCURVE",
"407 69 CURVE",
"407 69 OFFCURVE",
"467 94 OFFCURVE",
"457 94 CURVE SMOOTH",
"457 94 OFFCURVE",
"404 140 OFFCURVE",
"404 228 CURVE SMOOTH",
"404 266 OFFCURVE",
"421 294 OFFCURVE",
"447 294 CURVE SMOOTH",
"469 294 OFFCURVE",
"497 273 OFFCURVE",
"497 216 CURVE SMOOTH"
);
},
{
closed = 1;
nodes = (
"428 333 LINE",
"478 333 LINE",
"478 456 LINE",
"428 456 LINE"
);
}
);
};
layerId = "CFA4B904-E3F1-48B6-A7F6-47DC1FF2A3E1";
name = Bold;
paths = (
{
closed = 1;
nodes = (
"592 396 LINE",
"606 466 LINE",
"-10 466 LINE",
"-24 396 LINE"
);
},
{
closed = 1;
nodes = (
"407 124 OFFCURVE",
"325 64 OFFCURVE",
"202 64 CURVE SMOOTH",
"129 64 OFFCURVE",
"87 96 OFFCURVE",
"95 140 CURVE SMOOTH",
"105 188 OFFCURVE",
"149 223 OFFCURVE",
"227 219 CURVE",
"229 219 LINE",
"241 282 LINE",
"229 282 LINE SMOOTH",
"135 282 OFFCURVE",
"138 320 OFFCURVE",
"142 337 CURVE SMOOTH",
"149 375 OFFCURVE",
"174 399 OFFCURVE",
"221 407 CURVE",
"264 456 LINE",
"228 456 OFFCURVE",
"153 446 OFFCURVE",
"116 428 CURVE SMOOTH",
"81 405 OFFCURVE",
"65 376 OFFCURVE",
"60 351 CURVE SMOOTH",
"50 298 OFFCURVE",
"86 261 OFFCURVE",
"106 254 CURVE",
"78 243 OFFCURVE",
"24 207 OFFCURVE",
"12 145 CURVE SMOOTH",
"-7 47 OFFCURVE",
"81 -14 OFFCURVE",
"196 -14 CURVE SMOOTH",
"328 -14 OFFCURVE",
"472 54 OFFCURVE",
"498 192 CURVE SMOOTH",
"518 295 OFFCURVE",
"468 349 OFFCURVE",
"403 349 CURVE SMOOTH",
"348 349 OFFCURVE",
"285 301 OFFCURVE",
"268 218 CURVE SMOOTH",
"253 140 OFFCURVE",
"282 81 OFFCURVE",
"289 69 CURVE",
"286 66 OFFCURVE",
"371 96 OFFCURVE",
"369 99 CURVE SMOOTH",
"367 96 OFFCURVE",
"331 137 OFFCURVE",
"343 201 CURVE SMOOTH",
"351 243 OFFCURVE",
"372 274 OFFCURVE",
"400 274 CURVE SMOOTH",
"420 274 OFFCURVE",
"433 256 OFFCURVE",
"425 214 CURVE SMOOTH"
);
},
{
closed = 1;
nodes = (
"371 333 LINE",
"451 333 LINE",
"477 466 LINE",
"397 466 LINE"
);
}
);
width = 582;
}
);
unicode = 091B;
},
{
color = 4;
glyphname = "ja-deva";
lastChange = "2014-11-19 08:04:26 +0000";
layers = (
{
anchors = (
{
name = bottom;
position = "{383, 5}";
},
{
name = top;
position = "{469, 447}";
}
);
background = {
paths = (
{
closed = 1;
nodes = (
"13 466 LINE",
"13 396 LINE",
"605 396 LINE",
"605 466 LINE"
);
},
{
closed = 1;
nodes = (
"437 0 LINE",
"522 0 LINE",
"522 466 LINE",
"437 466 LINE"
);
},
{
closed = 1;
nodes = (
"268 294 LINE",
"264 223 LINE",
"472 223 LINE",
"472 294 LINE"
);
},
{
closed = 1;
nodes = (
"382 186 OFFCURVE",
"374 231 OFFCURVE",
"326 265 CURVE SMOOTH",
"315 273 OFFCURVE",
"291 286 OFFCURVE",
"278 294 CURVE",
"235 294 LINE",
"235 226 LINE",
"286 226 OFFCURVE",
"299 197 OFFCURVE",
"299 164 CURVE SMOOTH",
"299 130 OFFCURVE",
"277 107 OFFCURVE",
"241 107 CURVE SMOOTH",
"189 107 OFFCURVE",
"155 153 OFFCURVE",
"120 254 CURVE",
"47 225 LINE",
"84 104 OFFCURVE",
"142 25 OFFCURVE",
"241 25 CURVE SMOOTH",
"318 25 OFFCURVE",
"382 67 OFFCURVE",
"382 156 CURVE SMOOTH"
);
}
);
};
layerId = "CFA4B904-E3F1-48B6-A7F6-47DC1FF2A3E1";
name = Bold;
paths = (
{
closed = 1;
nodes = (
"-10 466 LINE",
"-24 396 LINE",
"591 396 LINE",
"605 466 LINE"
);
},
{
closed = 1;
nodes = (
"340 0 LINE",
"425 0 LINE",
"516 466 LINE",
"431 466 LINE"
);
},
{
closed = 1;
nodes = (
"208 292 LINE",
"200 223 LINE",
"418 223 LINE",
"432 292 LINE"
);
},
{
closed = 1;
nodes = (
"308 183 OFFCURVE",
"306 229 OFFCURVE",
"262 261 CURVE SMOOTH",
"255 271 OFFCURVE",
"237 284 OFFCURVE",
"225 292 CURVE",
"185 292 LINE",
"175 226 LINE",
"226 226 OFFCURVE",
"231 200 OFFCURVE",
"225 171 CURVE SMOOTH",
"218 133 OFFCURVE",
"186 107 OFFCURVE",
"148 107 CURVE SMOOTH",
"98 107 OFFCURVE",
"76 150 OFFCURVE",
"61 251 CURVE",
"-14 228 LINE",
"1 107 OFFCURVE",
"47 27 OFFCURVE",
"144 27 CURVE SMOOTH",
"219 27 OFFCURVE",
"286 71 OFFCURVE",
"301 149 CURVE SMOOTH"
);
}
);
width = 581;
}
);
unicode = 091C;
},
{
color = 4;
glyphname = "jha-deva";
lastChange = "2014-11-19 08:04:26 +0000";
layers = (
{
anchors = (
{
name = bottom;
position = "{401, 5}";
},
{
name = top;
position = "{487, 447}";
}
);
background = {
paths = (
{
closed = 1;
nodes = (
"16 456 LINE",
"16 408 LINE",
"625 408 LINE",
"625 456 LINE"
);
},
{
closed = 1;
nodes = (
"514 237 OFFCURVE",
"491 184 OFFCURVE",
"408 184 CURVE SMOOTH",
"383 184 OFFCURVE",
"328 203 OFFCURVE",
"293 211 CURVE",
"281 168 LINE",
"317 159 OFFCURVE",
"369 136 OFFCURVE",
"419 136 CURVE SMOOTH",
"483 136 OFFCURVE",
"514 186 OFFCURVE",
"514 186 CURVE",
"514 237 LINE"
);
},
{
closed = 1;
nodes = (
"471 0 LINE",
"527 0 LINE",
"527 456 LINE",
"471 456 LINE"
);
},
{
closed = 1;
nodes = (
"141 53 LINE",
"141 53 OFFCURVE",
"236 -97 OFFCURVE",
"236 -97 CURVE SMOOTH",
"236 -97 OFFCURVE",
"284 -75 OFFCURVE",
"284 -75 CURVE",
"192 59 LINE"
);
},
{
closed = 1;
nodes = (
"89 189 OFFCURVE",
"138 163 OFFCURVE",
"187 163 CURVE SMOOTH",
"214 163 OFFCURVE",
"240 169 OFFCURVE",
"260 169 CURVE SMOOTH",
"302 169 OFFCURVE",
"319 146 OFFCURVE",
"319 116 CURVE SMOOTH",
"319 77 OFFCURVE",
"275 59 OFFCURVE",
"240 59 CURVE SMOOTH",
"220 59 OFFCURVE",
"205 59 OFFCURVE",
"188 65 CURVE",
"135 134 LINE",
"108 136 OFFCURVE",
"83 121 OFFCURVE",
"83 96 CURVE SMOOTH",
"83 36 OFFCURVE",
"177 9 OFFCURVE",
"234 9 CURVE SMOOTH",
"314 9 OFFCURVE",
"373 50 OFFCURVE",
"373 115 CURVE SMOOTH",
"373 185 OFFCURVE",
"329 222 OFFCURVE",
"262 222 CURVE SMOOTH",
"241 222 OFFCURVE",
"218 216 OFFCURVE",
"197 216 CURVE SMOOTH",
"164 216 OFFCURVE",
"142 223 OFFCURVE",
"142 256 CURVE SMOOTH",
"142 284 OFFCURVE",
"166 294 OFFCURVE",
"216 294 CURVE SMOOTH",
"278 294 OFFCURVE",
"295 289 OFFCURVE",
"330 285 CURVE",
"340 292 LINE",
"340 456 LINE",
"284 456 LINE",
"284 341 LINE",
"258 344 OFFCURVE",
"250 345 OFFCURVE",
"217 345 CURVE SMOOTH",
"144 345 OFFCURVE",
"89 323 OFFCURVE",
"89 260 CURVE SMOOTH"
);
}
);
};
layerId = "CFA4B904-E3F1-48B6-A7F6-47DC1FF2A3E1";
name = Bold;
paths = (
{
closed = 1;
nodes = (
"218 152 OFFCURVE",
"224 136 OFFCURVE",
"221 123 CURVE SMOOTH",
"216 96 OFFCURVE",
"186 70 OFFCURVE",
"120 70 CURVE SMOOTH",
"102 70 OFFCURVE",
"94 71 OFFCURVE",
"83 75 CURVE",
"45 138 LINE",
"20 138 OFFCURVE",
"-14 131 OFFCURVE",
"-22 93 CURVE",
"-32 42 OFFCURVE",
"37 -3 OFFCURVE",
"127 -3 CURVE SMOOTH",
"221 -3 OFFCURVE",
"286 43 OFFCURVE",
"300 113 CURVE SMOOTH",
"314 186 OFFCURVE",
"265 227 OFFCURVE",
"175 223 CURVE SMOOTH",
"126 221 OFFCURVE",
"93 223 OFFCURVE",
"98 247 CURVE SMOOTH",
"102 269 OFFCURVE",
"123 279 OFFCURVE",
"175 279 CURVE SMOOTH",
"238 279 OFFCURVE",
"259 272 OFFCURVE",
"293 268 CURVE",
"303 275 LINE",
"337 456 LINE",
"261 456 LINE",
"237 348 LINE",
"216 350 OFFCURVE",
"206 351 OFFCURVE",
"171 351 CURVE SMOOTH",
"96 351 OFFCURVE",
"33 325 OFFCURVE",
"20 257 CURVE SMOOTH",
"4 175 OFFCURVE",
"68 142 OFFCURVE",
"159 148 CURVE SMOOTH"
);
},
{
closed = 1;
nodes = (
"-10 466 LINE",
"-24 396 LINE",
"411 396 LINE",
"425 466 LINE"
);
},
{
closed = 1;
nodes = (
"24 47 LINE",
"100 -119 LINE",
"177 -74 LINE",
"84 59 LINE"
);
},
{
closed = 1;
nodes = (
"380 466 LINE",
"366 396 LINE",
"609 396 LINE",
"623 466 LINE"
);
},
{
closed = 1;
nodes = (
"358 0 LINE",
"443 0 LINE",
"534 466 LINE",
"449 466 LINE"
);
},
{
closed = 1;
nodes = (
"452 239 OFFCURVE",
"409 193 OFFCURVE",
"334 193 CURVE SMOOTH",
"311 193 OFFCURVE",
"259 211 OFFCURVE",
"226 219 CURVE",
"206 156 LINE",
"242 147 OFFCURVE",
"289 123 OFFCURVE",
"341 123 CURVE SMOOTH",
"393 123 OFFCURVE",
"439 162 OFFCURVE",
"439 162 CURVE",
"452 239 LINE"
);
}
);
width = 599;
}
);
unicode = 091D;
},
{
color = 4;
glyphname = "nya-deva";
lastChange = "2014-11-19 08:04:26 +0000";
layers = (
{
anchors = (
{
name = bottom;
position = "{393, 5}";
},
{
name = top;
position = "{479, 447}";
}
);
background = {
paths = (
{
closed = 1;
nodes = (
"294 237 OFFCURVE",
"310 216 OFFCURVE",
"310 190 CURVE SMOOTH",
"310 154 OFFCURVE",
"291 136 OFFCURVE",
"257 136 CURVE SMOOTH",
"195 136 OFFCURVE",
"165 178 OFFCURVE",
"125 279 CURVE",
"48 248 LINE",
"100 106 OFFCURVE",
"160 48 OFFCURVE",
"259 48 CURVE SMOOTH",
"338 48 OFFCURVE",
"386 98 OFFCURVE",
"396 170 CURVE SMOOTH",
"397 174 OFFCURVE",
"399 177 OFFCURVE",
"399 181 CURVE SMOOTH",
"399 271 OFFCURVE",
"342 321 OFFCURVE",
"266 321 CURVE SMOOTH",
"229 321 OFFCURVE",
"202 310 OFFCURVE",
"179 295 CURVE",
"179 295 OFFCURVE",
"215 220 OFFCURVE",
"215 220 CURVE SMOOTH",
"215 220 OFFCURVE",
"238 237 OFFCURVE",
"262 237 CURVE SMOOTH"
);
},
{
closed = 1;
nodes = (
"492 228 OFFCURVE",
"457 210 OFFCURVE",
"427 210 CURVE SMOOTH",
"402 210 OFFCURVE",
"385 217 OFFCURVE",
"359 230 CURVE",
"355 152 LINE",
"381 144 OFFCURVE",
"400 138 OFFCURVE",
"427 138 CURVE SMOOTH",
"450 138 OFFCURVE",
"492 151 OFFCURVE",
"508 164 CURVE",
"508 241 LINE"
);
},
{
closed = 1;
nodes = (
"23 466 LINE",
"23 396 LINE",
"629 396 LINE",
"629 466 LINE"
);
},
{
closed = 1;
nodes = (
"457 0 LINE",
"542 0 LINE",
"542 466 LINE",
"457 466 LINE"
);
}
);
};
layerId = "CFA4B904-E3F1-48B6-A7F6-47DC1FF2A3E1";
name = Bold;
paths = (
{
closed = 1;
nodes = (
"236 241 OFFCURVE",
"251 225 OFFCURVE",
"245 197 CURVE SMOOTH",
"238 157 OFFCURVE",
"211 131 OFFCURVE",
"171 131 CURVE SMOOTH",
"111 131 OFFCURVE",
"91 175 OFFCURVE",
"71 276 CURVE",
"-5 252 LINE",
"19 110 OFFCURVE",
"69 48 OFFCURVE",
"163 48 CURVE SMOOTH",
"236 48 OFFCURVE",
"298 95 OFFCURVE",
"322 164 CURVE SMOOTH",
"323 171 OFFCURVE",
"326 174 OFFCURVE",
"326 174 CURVE SMOOTH",
"344 268 OFFCURVE",
"294 321 OFFCURVE",
"216 321 CURVE SMOOTH",
"181 321 OFFCURVE",
"154 312 OFFCURVE",
"130 299 CURVE",
"132 297 OFFCURVE",
"149 226 OFFCURVE",
"151 228 CURVE SMOOTH",
"153 226 OFFCURVE",
"180 241 OFFCURVE",
"206 241 CURVE SMOOTH"
);
},
{
closed = 1;
nodes = (
"428 230 OFFCURVE",
"388 210 OFFCURVE",
"356 210 CURVE SMOOTH",
"333 210 OFFCURVE",
"318 216 OFFCURVE",
"295 229 CURVE",
"280 153 LINE",
"305 145 OFFCURVE",
"323 138 OFFCURVE",
"352 138 CURVE SMOOTH",
"373 138 OFFCURVE",
"416 149 OFFCURVE",
"435 162 CURVE",
"446 243 LINE"
);
},
{
closed = 1;
nodes = (
"-10 466 LINE",
"-24 396 LINE",
"601 396 LINE",
"615 466 LINE"
);
},
{
closed = 1;
nodes = (
"350 0 LINE",
"435 0 LINE",
"526 466 LINE",
"441 466 LINE"
);
}
);
width = 591;
}
);
unicode = 091E;
},
{
color = 4;
glyphname = "tta-deva";
lastChange = "2014-11-19 08:04:26 +0000";
layers = (
{
anchors = (
{
name = bottom;
position = "{134, -35}";
},
{
name = top;
position = "{303, 447}";
}
);
background = {
paths = (
{
closed = 1;
nodes = (
"339 102 OFFCURVE",
"299 81 OFFCURVE",
"249 81 CURVE SMOOTH",
"189 81 OFFCURVE",
"153 114 OFFCURVE",
"153 163 CURVE SMOOTH",
"153 210 OFFCURVE",
"185 242 OFFCURVE",
"253 242 CURVE SMOOTH",
"290 242 OFFCURVE",
"315 237 OFFCURVE",
"351 233 CURVE",
"360 240 LINE",
"360 456 LINE",
"284 456 LINE",
"284 322 LINE",
"284 322 OFFCURVE",
"259 322 OFFCURVE",
"245 322 CURVE SMOOTH",
"130 322 OFFCURVE",
"69 259 OFFCURVE",
"69 167 CURVE SMOOTH",
"69 65 OFFCURVE",
"143 -2 OFFCURVE",
"248 -2 CURVE SMOOTH",
"321 -2 OFFCURVE",
"376 27 OFFCURVE",
"400 44 CURVE",
"365 118 LINE"
);
},
{
closed = 1;
nodes = (
"22 466 LINE",
"22 396 LINE",
"454 396 LINE",
"454 466 LINE"
);
}
);
};
layerId = "CFA4B904-E3F1-48B6-A7F6-47DC1FF2A3E1";
name = Bold;
paths = (
{
closed = 1;
nodes = (
"250 101 OFFCURVE",
"204 78 OFFCURVE",
"152 78 CURVE SMOOTH",
"94 78 OFFCURVE",
"65 108 OFFCURVE",
"74 156 CURVE SMOOTH",
"85 210 OFFCURVE",
"129 244 OFFCURVE",
"199 244 CURVE SMOOTH",
"234 244 OFFCURVE",
"258 239 OFFCURVE",
"293 235 CURVE",
"301 242 LINE",
"342 456 LINE",
"266 456 LINE",
"237 322 LINE",
"237 322 OFFCURVE",
"212 322 OFFCURVE",
"196 322 CURVE SMOOTH",
"83 322 OFFCURVE",
"13 262 OFFCURVE",
"-4 174 CURVE SMOOTH",
"-25 68 OFFCURVE",
"39 -2 OFFCURVE",
"146 -2 CURVE SMOOTH",
"217 -2 OFFCURVE",
"276 25 OFFCURVE",
"303 42 CURVE",
"278 117 LINE"
);
},
{
closed = 1;
nodes = (
"-10 466 LINE",
"-24 396 LINE",
"421 396 LINE",
"435 466 LINE"
);
}
);
width = 411;
}
);
unicode = 091F;
},
{
color = 4;
glyphname = "ttha-deva";
lastChange = "2014-11-19 08:04:26 +0000";
layers = (
{
anchors = (
{
name = bottom;
position = "{139, -35}";
},
{
name = top;
position = "{303, 447}";
}
);
background = {
paths = (
{
closed = 1;
nodes = (
"3 466 LINE",
"3 396 LINE",
"479 396 LINE",
"479 466 LINE"
);
},
{
closed = 1;
nodes = (
"428 238 OFFCURVE",
"360 297 OFFCURVE",
"310 326 CURVE",
"247 262 LINE",
"283 256 OFFCURVE",
"343 215 OFFCURVE",
"343 154 CURVE SMOOTH",
"343 107 OFFCURVE",
"305 77 OFFCURVE",
"230 77 CURVE SMOOTH",
"165 77 OFFCURVE",
"132 119 OFFCURVE",
"132 169 CURVE SMOOTH",
"132 215 OFFCURVE",
"170 246 OFFCURVE",
"235 246 CURVE SMOOTH",
"333 246 LINE",
"342 244 LINE",
"342 466 LINE",
"263 466 LINE",
"263 320 LINE",
"227 320 LINE SMOOTH",
"118 320 OFFCURVE",
"50 257 OFFCURVE",
"50 167 CURVE SMOOTH",
"50 70 OFFCURVE",
"125 0 OFFCURVE",
"232 0 CURVE SMOOTH",
"367 0 OFFCURVE",
"428 80 OFFCURVE",
"428 156 CURVE SMOOTH"
);
}
);
};
layerId = "CFA4B904-E3F1-48B6-A7F6-47DC1FF2A3E1";
name = Bold;
paths = (
{
closed = 1;
nodes = (
"-10 466 LINE",
"-24 396 LINE",
"482 396 LINE",
"496 466 LINE"
);
},
{
closed = 1;
nodes = (
"388 235 OFFCURVE",
"329 295 OFFCURVE",
"285 324 CURVE",
"216 263 LINE",
"252 257 OFFCURVE",
"302 221 OFFCURVE",
"290 161 CURVE SMOOTH",
"280 108 OFFCURVE",
"231 75 OFFCURVE",
"154 75 CURVE SMOOTH",
"91 75 OFFCURVE",
"66 114 OFFCURVE",
"76 162 CURVE SMOOTH",
"86 214 OFFCURVE",
"135 248 OFFCURVE",
"200 248 CURVE SMOOTH",
"293 248 LINE",
"302 246 LINE",
"345 466 LINE",
"268 466 LINE",
"239 320 LINE",
"200 320 LINE SMOOTH",
"91 320 OFFCURVE",
"15 260 OFFCURVE",
"-2 174 CURVE SMOOTH",
"-22 73 OFFCURVE",
"42 0 OFFCURVE",
"151 0 CURVE SMOOTH",
"284 0 OFFCURVE",
"357 77 OFFCURVE",
"371 149 CURVE SMOOTH"
);
}
);
width = 472;
}
);
unicode = 0920;
},
{
color = 4;
glyphname = "dda-deva";
lastChange = "2014-11-19 08:04:26 +0000";
layers = (
{
anchors = (
{
name = bottom;
position = "{150, -35}";
},
{
name = top;
position = "{329, 447}";
}
);
background = {
paths = (
{
closed = 1;
nodes = (
"19 456 LINE",
"19 408 LINE",
"476 408 LINE",
"476 456 LINE"
);
},
{
closed = 1;
nodes = (
"327 171 OFFCURVE",
"356 153 OFFCURVE",
"356 116 CURVE SMOOTH",
"356 73 OFFCURVE",
"315 52 OFFCURVE",
"271 52 CURVE SMOOTH",
"212 52 OFFCURVE",
"163 81 OFFCURVE",
"115 128 CURVE",
"81 91 LINE",
"133 38 OFFCURVE",
"196 0 OFFCURVE",
"272 0 CURVE SMOOTH",
"353 0 OFFCURVE",
"410 46 OFFCURVE",
"410 120 CURVE SMOOTH",
"410 181 OFFCURVE",
"357 220 OFFCURVE",
"285 216 CURVE SMOOTH",
"233 213 OFFCURVE",
"180 212 OFFCURVE",
"180 256 CURVE SMOOTH",
"180 284 OFFCURVE",
"203 294 OFFCURVE",
"253 294 CURVE SMOOTH",
"315 294 OFFCURVE",
"332 289 OFFCURVE",
"367 285 CURVE",
"377 292 LINE",
"377 456 LINE",
"321 456 LINE",
"321 343 LINE",
"300 345 OFFCURVE",
"288 346 OFFCURVE",
"255 346 CURVE SMOOTH",
"178 346 OFFCURVE",
"127 322 OFFCURVE",
"127 259 CURVE SMOOTH",
"127 162 OFFCURVE",
"229 161 OFFCURVE",
"267 165 CURVE SMOOTH"
);
}
);
};
layerId = "CFA4B904-E3F1-48B6-A7F6-47DC1FF2A3E1";
name = Bold;
paths = (
{
closed = 1;
nodes = (
"253 154 OFFCURVE",
"259 136 OFFCURVE",
"256 123 CURVE SMOOTH",
"251 96 OFFCURVE",
"220 75 OFFCURVE",
"174 75 CURVE SMOOTH",
"112 75 OFFCURVE",
"74 92 OFFCURVE",
"35 139 CURVE",
"-24 87 LINE",
"17 38 OFFCURVE",
"72 -3 OFFCURVE",
"162 -3 CURVE SMOOTH",
"256 -3 OFFCURVE",
"321 43 OFFCURVE",
"335 113 CURVE SMOOTH",
"349 186 OFFCURVE",
"302 230 OFFCURVE",
"206 225 CURVE SMOOTH",
"156 222 OFFCURVE",
"123 223 OFFCURVE",
"128 247 CURVE SMOOTH",
"132 269 OFFCURVE",
"153 279 OFFCURVE",
"205 279 CURVE SMOOTH",
"265 279 OFFCURVE",
"291 272 OFFCURVE",
"325 268 CURVE",
"335 275 LINE",
"369 456 LINE",
"293 456 LINE",
"269 348 LINE",
"248 350 OFFCURVE",
"236 351 OFFCURVE",
"201 351 CURVE SMOOTH",
"126 351 OFFCURVE",
"63 325 OFFCURVE",
"50 257 CURVE SMOOTH",
"34 175 OFFCURVE",
"103 144 OFFCURVE",
"194 150 CURVE SMOOTH"
);
},
{
closed = 1;
nodes = (
"-9 466 LINE",
"-23 396 LINE",
"458 396 LINE",
"472 466 LINE"
);
}
);
width = 448;
}
);
unicode = 0921;
},
{
color = 4;
glyphname = "ddha-deva";
lastChange = "2014-11-19 08:04:26 +0000";
layers = (
{
anchors = (
{
name = bottom;
position = "{136, -35}";
},
{
name = top;
position = "{304, 447}";
}
);
background = {
paths = (
{
closed = 1;
nodes = (
"-4 466 LINE",
"-4 396 LINE",
"450 396 LINE",
"450 466 LINE"
);
},
{
closed = 1;
nodes = (
"389 165 OFFCURVE",
"351 205 OFFCURVE",
"289 205 CURVE SMOOTH",
"240 205 OFFCURVE",
"193 172 OFFCURVE",
"193 111 CURVE SMOOTH",
"193 57 OFFCURVE",
"216 31 OFFCURVE",
"226 18 CURVE",
"226 18 OFFCURVE",
"319 31 OFFCURVE",
"319 31 CURVE SMOOTH",
"319 31 OFFCURVE",
"264 50 OFFCURVE",
"264 96 CURVE SMOOTH",
"264 116 OFFCURVE",
"269 133 OFFCURVE",
"289 133 CURVE SMOOTH",
"303 133 OFFCURVE",
"314 124 OFFCURVE",
"314 106 CURVE SMOOTH",
"314 87 OFFCURVE",
"294 70 OFFCURVE",
"239 69 CURVE SMOOTH",
"169 67 OFFCURVE",
"138 116 OFFCURVE",
"138 161 CURVE SMOOTH",
"138 211 OFFCURVE",
"172 247 OFFCURVE",
"228 247 CURVE SMOOTH",
"265 247 OFFCURVE",
"300 242 OFFCURVE",
"336 238 CURVE",
"345 245 LINE",
"345 466 LINE",
"269 466 LINE",
"269 326 LINE",
"243 328 OFFCURVE",
"237 328 OFFCURVE",
"223 328 CURVE SMOOTH",
"114 328 OFFCURVE",
"54 254 OFFCURVE",
"54 167 CURVE SMOOTH",
"54 67 OFFCURVE",
"130 -5 OFFCURVE",
"235 -5 CURVE SMOOTH",
"306 -5 OFFCURVE",
"389 25 OFFCURVE",
"389 114 CURVE SMOOTH"
);
}
);
};
layerId = "CFA4B904-E3F1-48B6-A7F6-47DC1FF2A3E1";
name = Bold;
paths = (
{
closed = 1;
nodes = (
"-10 466 LINE",
"-24 396 LINE",
"442 396 LINE",
"456 466 LINE"
);
},
{
closed = 1;
nodes = (
"329 162 OFFCURVE",
"296 205 OFFCURVE",
"232 205 CURVE SMOOTH",
"185 205 OFFCURVE",
"135 175 OFFCURVE",
"124 118 CURVE SMOOTH",
"113 60 OFFCURVE",
"133 34 OFFCURVE",
"139 23 CURVE",
"137 21 OFFCURVE",
"236 32 OFFCURVE",
"234 33 CURVE SMOOTH",
"230 32 OFFCURVE",
"181 47 OFFCURVE",
"189 89 CURVE SMOOTH",
"194 113 OFFCURVE",
"206 133 OFFCURVE",
"228 133 CURVE SMOOTH",
"240 133 OFFCURVE",
"247 127 OFFCURVE",
"244 113 CURVE SMOOTH",
"240 90 OFFCURVE",
"212 67 OFFCURVE",
"155 66 CURVE SMOOTH",
"87 64 OFFCURVE",
"64 109 OFFCURVE",
"73 154 CURVE SMOOTH",
"84 212 OFFCURVE",
"132 250 OFFCURVE",
"190 250 CURVE SMOOTH",
"225 250 OFFCURVE",
"259 245 OFFCURVE",
"294 241 CURVE",
"302 248 LINE",
"344 466 LINE",
"268 466 LINE",
"237 326 LINE",
"212 328 OFFCURVE",
"206 328 OFFCURVE",
"190 328 CURVE SMOOTH",
"83 328 OFFCURVE",
"12 257 OFFCURVE",
"-4 174 CURVE SMOOTH",
"-24 70 OFFCURVE",
"40 -5 OFFCURVE",
"147 -5 CURVE SMOOTH",
"216 -5 OFFCURVE",
"301 22 OFFCURVE",
"318 107 CURVE SMOOTH"
);
}
);
width = 432;
}
);
unicode = 0922;
},
{
color = 4;
glyphname = "nna-deva";
lastChange = "2014-11-19 08:04:26 +0000";
layers = (
{
anchors = (
{
name = bottom;
position = "{392, 5}";
},
{
name = top;
position = "{478, 447}";
}
);
background = {
paths = (
{
closed = 1;
nodes = (
"453 0 LINE",
"509 0 LINE",
"509 456 LINE",
"453 456 LINE"
);
},
{
closed = 1;
nodes = (
"9 456 LINE",
"9 408 LINE",
"607 408 LINE",
"607 456 LINE"
);
},
{
closed = 1;
nodes = (
"301 80 OFFCURVE",
"350 128 OFFCURVE",
"350 224 CURVE SMOOTH",
"350 436 LINE",
"294 436 LINE",
"294 228 LINE SMOOTH",
"294 164 OFFCURVE",
"274 133 OFFCURVE",
"223 133 CURVE SMOOTH",
"172 133 OFFCURVE",
"152 164 OFFCURVE",
"152 228 CURVE SMOOTH",
"152 436 LINE",
"96 436 LINE",
"96 224 LINE SMOOTH",
"96 127 OFFCURVE",
"141 80 OFFCURVE",
"224 80 CURVE SMOOTH"
);
},
{
closed = 1;
nodes = (
"376 216 OFFCURVE",
"322 169 OFFCURVE",
"238 169 CURVE SMOOTH",
"184 169 OFFCURVE",
"167 204 OFFCURVE",
"167 260 CURVE SMOOTH",
"167 456 LINE",
"82 456 LINE",
"82 234 LINE SMOOTH",
"82 154 OFFCURVE",
"140 93 OFFCURVE",
"240 93 CURVE SMOOTH",
"313 93 OFFCURVE",
"376 133 OFFCURVE",
"376 133 CURVE",
"376 216 LINE"
);
},
{
closed = 1;
nodes = (
"321 0 LINE",
"406 0 LINE",
"406 466 LINE",
"321 466 LINE"
);
},
{
closed = 1;
nodes = (
"0 466 LINE",
"0 396 LINE",
"504 396 LINE",
"504 466 LINE"
);
}
);
};
layerId = "CFA4B904-E3F1-48B6-A7F6-47DC1FF2A3E1";
name = Bold;
paths = (
{
closed = 1;
nodes = (
"349 0 LINE",
"434 0 LINE",
"525 466 LINE",
"440 466 LINE"
);
},
{
closed = 1;
nodes = (
"-10 466 LINE",
"-24 396 LINE",
"600 396 LINE",
"614 466 LINE"
);
},
{
closed = 1;
nodes = (
"229 78 OFFCURVE",
"288 128 OFFCURVE",
"307 224 CURVE SMOOTH",
"348 436 LINE",
"259 436 LINE",
"225 263 LINE SMOOTH",
"213 199 OFFCURVE",
"200 161 OFFCURVE",
"149 161 CURVE SMOOTH",
"102 161 OFFCURVE",
"110 193 OFFCURVE",
"122 257 CURVE SMOOTH",
"157 436 LINE",
"68 436 LINE",
"28 230 LINE SMOOTH",
"9 133 OFFCURVE",
"49 78 OFFCURVE",
"144 78 CURVE SMOOTH"
);
}
);
width = 590;
}
);
unicode = 0923;
},
{
color = 4;
glyphname = "ta-deva";
lastChange = "2014-11-19 08:04:26 +0000";
layers = (
{
anchors = (
{
name = bottom;
position = "{254, 5}";
},
{
name = top;
position = "{350, 447}";
}
);
background = {
paths = (
{
closed = 1;
nodes = (
"358 305 OFFCURVE",
"305 305 OFFCURVE",
"221 305 CURVE SMOOTH",
"123 305 OFFCURVE",
"68 272 OFFCURVE",
"68 185 CURVE SMOOTH",
"68 118 OFFCURVE",
"111 43 OFFCURVE",
"147 -17 CURVE",
"217 24 LINE",
"189 73 OFFCURVE",
"155 132 OFFCURVE",
"155 177 CURVE SMOOTH",
"155 215 OFFCURVE",
"176 227 OFFCURVE",
"246 227 CURVE SMOOTH",
"358 227 LINE",
"358 305 LINE"
);
}
);
};
guideLines = (
{
angle = 90;
position = "{370, 92}";
}
);
layerId = "CFA4B904-E3F1-48B6-A7F6-47DC1FF2A3E1";
name = Bold;
paths = (
{
closed = 1;
nodes = (
"-10 466 LINE",
"-24 396 LINE",
"462 396 LINE",
"476 466 LINE"
);
},
{
closed = 1;
nodes = (
"211 0 LINE",
"296 0 LINE",
"387 466 LINE",
"302 466 LINE"
);
},
{
closed = 1;
nodes = (
"337 305 OFFCURVE",
"254 305 OFFCURVE",
"168 305 CURVE SMOOTH",
"72 305 OFFCURVE",
"15 275 OFFCURVE",
"-2 192 CURVE SMOOTH",
"-15 121 OFFCURVE",
"17 41 OFFCURVE",
"41 -19 CURVE",
"116 16 LINE",
"98 65 OFFCURVE",
"71 129 OFFCURVE",
"79 170 CURVE SMOOTH",
"87 212 OFFCURVE",
"116 227 OFFCURVE",
"186 227 CURVE SMOOTH",
"325 227 LINE",
"337 305 LINE"
);
}
);
width = 452;
}
);
unicode = 0924;
},
{
color = 4;
glyphname = "tha-deva";
lastChange = "2014-11-19 08:04:26 +0000";
layers = (
{
anchors = (
{
name = bottom;
position = "{291, 5}";
},
{
name = top;
position = "{377, 447}";
}
);
background = {
paths = (
{
closed = 1;
nodes = (
"354 0 LINE",
"410 0 LINE",
"410 456 LINE",
"354 456 LINE"
);
},
{
closed = 1;
nodes = (
"284 456 LINE",
"284 408 LINE",
"508 408 LINE",
"508 456 LINE"
);
},
{
closed = 1;
nodes = (
"248 402 OFFCURVE",
"217 467 OFFCURVE",
"145 467 CURVE SMOOTH",
"100 467 OFFCURVE",
"50 436 OFFCURVE",
"50 379 CURVE SMOOTH",
"50 340 OFFCURVE",
"73 302 OFFCURVE",
"122 279 CURVE",
"151 321 LINE",
"127 335 OFFCURVE",
"104 351 OFFCURVE",
"104 379 CURVE SMOOTH",
"104 399 OFFCURVE",
"124 414 OFFCURVE",
"143 414 CURVE SMOOTH",
"178 414 OFFCURVE",
"196 380 OFFCURVE",
"196 342 CURVE SMOOTH",
"196 269 OFFCURVE",
"103 230 OFFCURVE",
"71 213 CURVE",
"60 182 LINE",
"87 136 OFFCURVE",
"148 84 OFFCURVE",
"239 84 CURVE SMOOTH",
"311 84 OFFCURVE",
"364 124 OFFCURVE",
"364 127 CURVE",
"364 197 LINE",
"338 160 OFFCURVE",
"285 138 OFFCURVE",
"234 138 CURVE SMOOTH",
"193 138 OFFCURVE",
"152 153 OFFCURVE",
"127 183 CURVE",
"165 211 OFFCURVE",
"248 253 OFFCURVE",
"248 342 CURVE SMOOTH"
);
}
);
};
layerId = "CFA4B904-E3F1-48B6-A7F6-47DC1FF2A3E1";
name = Bold;
paths = (
{
closed = 1;
nodes = (
"153 405 OFFCURVE",
"158 380 OFFCURVE",
"153 357 CURVE SMOOTH",
"139 283 OFFCURVE",
"58 249 OFFCURVE",
"-3 219 CURVE",
"-20 185 LINE",
"-2 139 OFFCURVE",
"62 74 OFFCURVE",
"155 74 CURVE SMOOTH",
"225 74 OFFCURVE",
"284 119 OFFCURVE",
"284 119 CURVE",
"304 227 LINE",
"269 182 OFFCURVE",
"209 156 OFFCURVE",
"156 156 CURVE SMOOTH",
"126 156 OFFCURVE",
"103 165 OFFCURVE",
"88 177 CURVE",
"162 226 OFFCURVE",
"216 266 OFFCURVE",
"230 339 CURVE SMOOTH",
"243 407 OFFCURVE",
"214 478 OFFCURVE",
"133 478 CURVE",
"68 478 OFFCURVE",
"22 437 OFFCURVE",
"12 386 CURVE",
"1 330 OFFCURVE",
"31 303 OFFCURVE",
"59 286 CURVE",
"106 339 LINE",
"94 348 OFFCURVE",
"83 358 OFFCURVE",
"85 372 CURVE",
"89 389 OFFCURVE",
"102 405 OFFCURVE",
"127 405 CURVE"
);
},
{
closed = 1;
nodes = (
"293 466 LINE",
"279 396 LINE",
"499 396 LINE",
"513 466 LINE"
);
},
{
closed = 1;
nodes = (
"248 0 LINE",
"333 0 LINE",
"424 466 LINE",
"339 466 LINE"
);
}
);
width = 489;
}
);
unicode = 0925;
},
{
color = 4;
glyphname = "da-deva";
lastChange = "2014-11-19 08:04:26 +0000";
layers = (
{
anchors = (
{
name = bottom;
position = "{258, -23}";
},
{
name = top;
position = "{306, 447}";
}
);
background = {
paths = (
{
closed = 1;
nodes = (
"312 104 LINE",
"287 91 OFFCURVE",
"265 78 OFFCURVE",
"231 78 CURVE SMOOTH",
"169 78 OFFCURVE",
"134 114 OFFCURVE",
"134 163 CURVE SMOOTH",
"134 210 OFFCURVE",
"169 242 OFFCURVE",
"237 242 CURVE SMOOTH",
"274 242 OFFCURVE",
"299 237 OFFCURVE",
"335 233 CURVE",
"344 240 LINE",
"344 456 LINE",
"268 456 LINE",
"268 322 LINE",
"268 322 OFFCURVE",
"243 322 OFFCURVE",
"229 322 CURVE SMOOTH",
"114 322 OFFCURVE",
"50 259 OFFCURVE",
"50 167 CURVE SMOOTH",
"50 65 OFFCURVE",
"127 -2 OFFCURVE",
"230 -2 CURVE SMOOTH",
"282 -2 OFFCURVE",
"317 17 OFFCURVE",
"346 32 CURVE"
);
},
{
closed = 1;
nodes = (
"6 466 LINE",
"6 396 LINE",
"468 396 LINE",
"468 466 LINE"
);
},
{
closed = 1;
nodes = (
"293 44 OFFCURVE",
"308 30 OFFCURVE",
"321 31 CURVE SMOOTH",
"341 32 OFFCURVE",
"381 58 OFFCURVE",
"381 100 CURVE SMOOTH",
"381 132 OFFCURVE",
"361 163 OFFCURVE",
"317 163 CURVE SMOOTH",
"272 163 OFFCURVE",
"246 130 OFFCURVE",
"246 130 CURVE",
"284 49 LINE"
);
},
{
closed = 1;
nodes = (
"280 56 LINE",
"280 56 OFFCURVE",
"354 -82 OFFCURVE",
"354 -82 CURVE SMOOTH",
"354 -82 OFFCURVE",
"425 -43 OFFCURVE",
"425 -43 CURVE",
"343 88 LINE"
);
}
);
};
layerId = "CFA4B904-E3F1-48B6-A7F6-47DC1FF2A3E1";
name = Bold;
paths = (
{
closed = 1;
nodes = (
"241 104 LINE",
"215 91 OFFCURVE",
"189 76 OFFCURVE",
"153 76 CURVE SMOOTH",
"93 76 OFFCURVE",
"65 108 OFFCURVE",
"74 156 CURVE SMOOTH",
"85 210 OFFCURVE",
"132 244 OFFCURVE",
"202 244 CURVE SMOOTH",
"237 244 OFFCURVE",
"261 239 OFFCURVE",
"296 235 CURVE",
"304 242 LINE",
"345 456 LINE",
"269 456 LINE",
"240 322 LINE",
"240 322 OFFCURVE",
"215 322 OFFCURVE",
"199 322 CURVE SMOOTH",
"86 322 OFFCURVE",
"13 262 OFFCURVE",
"-4 174 CURVE SMOOTH",
"-25 68 OFFCURVE",
"42 -2 OFFCURVE",
"147 -2 CURVE SMOOTH",
"197 -2 OFFCURVE",
"234 16 OFFCURVE",
"266 31 CURVE"
);
},
{
closed = 1;
nodes = (
"-10 466 LINE",
"-24 396 LINE",
"454 396 LINE",
"468 466 LINE"
);
},
{
closed = 1;
nodes = (
"216 46 OFFCURVE",
"229 30 OFFCURVE",
"244 31 CURVE SMOOTH",
"262 32 OFFCURVE",
"304 55 OFFCURVE",
"311 93 CURVE SMOOTH",
"318 129 OFFCURVE",
"302 163 OFFCURVE",
"256 163 CURVE SMOOTH",
"213 163 OFFCURVE",
"182 127 OFFCURVE",
"182 127 CURVE",
"209 51 LINE"
);
},
{
closed = 1;
nodes = (
"205 59 LINE",
"205 59 OFFCURVE",
"249 -80 OFFCURVE",
"251 -78 CURVE SMOOTH",
"253 -80 OFFCURVE",
"328 -41 OFFCURVE",
"328 -41 CURVE",
"269 87 LINE"
);
}
);
width = 444;
}
);
unicode = 0926;
},
{
color = 4;
glyphname = "dha-deva";
lastChange = "2014-11-19 08:04:26 +0000";
layers = (
{
anchors = (
{
name = bottom;
position = "{292, 5}";
},
{
name = top;
position = "{378, 447}";
}
);
background = {
paths = (
{
closed = 1;
nodes = (
"84 486 OFFCURVE",
"43 426 OFFCURVE",
"43 362 CURVE",
"43 279 OFFCURVE",
"116 239 OFFCURVE",
"132 227 CURVE",
"239 267 LINE",
"239 267 OFFCURVE",
"130 291 OFFCURVE",
"130 371 CURVE",
"130 396 OFFCURVE",
"138 417 OFFCURVE",
"165 417 CURVE",
"178 417 OFFCURVE",
"187 409 OFFCURVE",
"187 397 CURVE",
"187 385 OFFCURVE",
"181 375 OFFCURVE",
"168 363 CURVE",
"223 316 LINE",
"244 338 OFFCURVE",
"264 361 OFFCURVE",
"264 396 CURVE",
"264 441 OFFCURVE",
"231 486 OFFCURVE",
"163 486 CURVE"
);
},
{
closed = 1;
nodes = (
"136 284 OFFCURVE",
"77 240 OFFCURVE",
"77 176 CURVE SMOOTH",
"77 94 OFFCURVE",
"147 48 OFFCURVE",
"243 48 CURVE SMOOTH",
"328 48 OFFCURVE",
"383 94 OFFCURVE",
"383 95 CURVE",
"383 191 LINE",
"383 191 OFFCURVE",
"330 129 OFFCURVE",
"240 129 CURVE SMOOTH",
"202 129 OFFCURVE",
"165 139 OFFCURVE",
"165 169 CURVE SMOOTH",
"165 195 OFFCURVE",
"210 204 OFFCURVE",
"277 212 CURVE",
"260 292 LINE"
);
},
{
closed = 1;
nodes = (
"293 466 LINE",
"293 396 LINE",
"523 396 LINE",
"523 466 LINE"
);
},
{
closed = 1;
nodes = (
"356 0 LINE",
"441 0 LINE",
"441 466 LINE",
"356 466 LINE"
);
}
);
};
layerId = "CFA4B904-E3F1-48B6-A7F6-47DC1FF2A3E1";
name = Bold;
paths = (
{
closed = 1;
nodes = (
"69 486 OFFCURVE",
"23 429 OFFCURVE",
"12 376 CURVE",
"-5 286 OFFCURVE",
"61 241 OFFCURVE",
"75 229 CURVE",
"173 266 LINE",
"172 266 OFFCURVE",
"79 288 OFFCURVE",
"94 364 CURVE",
"100 393 OFFCURVE",
"115 417 OFFCURVE",
"144 417 CURVE",
"155 417 OFFCURVE",
"160 412 OFFCURVE",
"159 404 CURVE",
"156 388 OFFCURVE",
"145 377 OFFCURVE",
"130 365 CURVE",
"179 316 LINE",
"203 338 OFFCURVE",
"224 361 OFFCURVE",
"230 389 CURVE",
"239 438 OFFCURVE",
"216 486 OFFCURVE",
"146 486 CURVE"
);
},
{
closed = 1;
nodes = (
"82 277 OFFCURVE",
"19 239 OFFCURVE",
"8 183 CURVE SMOOTH",
"-8 100 OFFCURVE",
"53 50 OFFCURVE",
"151 50 CURVE SMOOTH",
"234 50 OFFCURVE",
"293 85 OFFCURVE",
"293 86 CURVE",
"310 186 LINE",
"310 186 OFFCURVE",
"255 129 OFFCURVE",
"153 129 CURVE SMOOTH",
"117 129 OFFCURVE",
"85 136 OFFCURVE",
"90 162 CURVE SMOOTH",
"95 192 OFFCURVE",
"146 204 OFFCURVE",
"214 212 CURVE",
"208 285 LINE"
);
},
{
closed = 1;
nodes = (
"277 466 LINE",
"263 396 LINE",
"500 396 LINE",
"514 466 LINE"
);
},
{
closed = 1;
nodes = (
"249 0 LINE",
"334 0 LINE",
"425 466 LINE",
"340 466 LINE"
);
}
);
width = 490;
}
);
unicode = 0927;
},
{
color = 4;
glyphname = "na-deva";
lastChange = "2014-11-19 08:04:26 +0000";
layers = (
{
anchors = (
{
name = bottom;
position = "{248, 5}";
},
{
name = top;
position = "{334, 447}";
}
);
background = {
paths = (
{
closed = 1;
nodes = (
"307 0 LINE",
"363 0 LINE",
"363 456 LINE",
"307 456 LINE"
);
},
{
closed = 1;
nodes = (
"6 456 LINE",
"6 408 LINE",
"461 408 LINE",
"461 456 LINE"
);
},
{
closed = 1;
nodes = (
"64 256 LINE",
"64 224 LINE",
"115 117 LINE",
"115 117 OFFCURVE",
"155 117 OFFCURVE",
"155 117 CURVE",
"155 256 LINE"
);
},
{
closed = 1;
nodes = (
"121 256 LINE",
"121 208 LINE",
"341 208 LINE",
"341 256 LINE"
);
}
);
};
layerId = "CFA4B904-E3F1-48B6-A7F6-47DC1FF2A3E1";
name = Bold;
paths = (
{
closed = 1;
nodes = (
"204 0 LINE",
"289 0 LINE",
"380 466 LINE",
"295 466 LINE"
);
},
{
closed = 1;
nodes = (
"-10 466 LINE",
"-24 396 LINE",
"455 396 LINE",
"469 466 LINE"
);
},
{
closed = 1;
nodes = (
"19 270 LINE",
"1 228 LINE",
"35 95 LINE",
"34 95 OFFCURVE",
"94 98 OFFCURVE",
"94 98 CURVE",
"128 270 LINE"
);
},
{
closed = 1;
nodes = (
"67 270 LINE",
"51 192 LINE",
"276 192 LINE",
"292 270 LINE"
);
}
);
width = 445;
}
);
unicode = 0928;
},
{
color = 4;
glyphname = "nnna-deva";
lastChange = "2014-11-19 08:46:02 +0000";
layers = (
{
anchors = (
{
name = bottom;
position = "{238, -45}";
},
{
name = top;
position = "{334, 447}";
}
);
background = {
paths = (
{
closed = 1;
nodes = (
"308 0 LINE",
"393 0 LINE",
"393 466 LINE",
"308 466 LINE"
);
},
{
closed = 1;
nodes = (
"3 466 LINE",
"3 396 LINE",
"462 396 LINE",
"462 466 LINE"
);
},
{
closed = 1;
nodes = (
"61 275 LINE",
"61 233 LINE",
"122 105 LINE",
"122 105 OFFCURVE",
"179 105 OFFCURVE",
"179 105 CURVE",
"179 275 LINE"
);
},
{
closed = 1;
nodes = (
"118 275 LINE",
"118 197 LINE",
"343 197 LINE",
"343 275 LINE"
);
}
);
};
components = (
{
name = "nukta-deva";
transform = "{1, 0, 0, 1, 226, 64}";
}
);
layerId = "CFA4B904-E3F1-48B6-A7F6-47DC1FF2A3E1";
name = Bold;
paths = (
{
closed = 1;
nodes = (
"204 0 LINE",
"289 0 LINE",
"380 466 LINE",
"295 466 LINE"
);
},
{
closed = 1;
nodes = (
"-10 466 LINE",
"-24 396 LINE",
"455 396 LINE",
"469 466 LINE"
);
},
{
closed = 1;
nodes = (
"21 280 LINE",
"3 238 LINE",
"37 105 LINE",
"36 105 OFFCURVE",
"96 108 OFFCURVE",
"96 108 CURVE",
"130 280 LINE"
);
},
{
closed = 1;
nodes = (
"69 280 LINE",
"53 202 LINE",
"278 202 LINE",
"294 280 LINE"
);
}
);
width = 445;
}
);
unicode = 0929;
},
{
color = 4;
glyphname = "pa-deva";
lastChange = "2014-11-19 08:04:26 +0000";
layers = (
{
anchors = (
{
name = bottom;
position = "{265, 5}";
},
{
name = top;
position = "{351, 447}";
}
);
background = {
paths = (
{
closed = 1;
nodes = (
"334 0 LINE",
"390 0 LINE",
"390 456 LINE",
"334 456 LINE"
);
},
{
closed = 1;
nodes = (
"3 456 LINE",
"3 408 LINE",
"488 408 LINE",
"488 456 LINE"
);
},
{
closed = 1;
nodes = (
"370 190 OFFCURVE",
"306 153 OFFCURVE",
"232 153 CURVE SMOOTH",
"178 153 OFFCURVE",
"141 188 OFFCURVE",
"141 244 CURVE SMOOTH",
"141 456 LINE",
"85 456 LINE",
"85 244 LINE SMOOTH",
"85 164 OFFCURVE",
"134 103 OFFCURVE",
"234 103 CURVE SMOOTH",
"297 103 OFFCURVE",
"370 133 OFFCURVE",
"370 133 CURVE",
"370 190 LINE"
);
}
);
};
layerId = "CFA4B904-E3F1-48B6-A7F6-47DC1FF2A3E1";
name = Bold;
paths = (
{
closed = 1;
nodes = (
"319 224 OFFCURVE",
"263 169 OFFCURVE",
"167 169 CURVE SMOOTH",
"115 169 OFFCURVE",
"107 199 OFFCURVE",
"118 257 CURVE SMOOTH",
"157 456 LINE",
"72 456 LINE",
"30 241 LINE SMOOTH",
"14 160 OFFCURVE",
"62 91 OFFCURVE",
"164 91 CURVE SMOOTH",
"235 91 OFFCURVE",
"303 134 OFFCURVE",
"303 134 CURVE",
"319 224 LINE"
);
},
{
closed = 1;
nodes = (
"222 0 LINE",
"307 0 LINE",
"398 466 LINE",
"313 466 LINE"
);
},
{
closed = 1;
nodes = (
"-10 466 LINE",
"-24 396 LINE",
"474 396 LINE",
"488 466 LINE"
);
}
);
width = 464;
}
);
unicode = 092A;
},
{
color = 4;
glyphname = "pha-deva";
lastChange = "2014-11-19 08:04:26 +0000";
layers = (
{
anchors = (
{
name = bottom;
position = "{264, 5}";
},
{
name = top;
position = "{350, 447}";
}
);
background = {
paths = (
{
closed = 1;
nodes = (
"379 216 OFFCURVE",
"325 169 OFFCURVE",
"241 169 CURVE SMOOTH",
"187 169 OFFCURVE",
"170 204 OFFCURVE",
"170 260 CURVE SMOOTH",
"170 456 LINE",
"85 456 LINE",
"85 234 LINE SMOOTH",
"85 154 OFFCURVE",
"143 93 OFFCURVE",
"243 93 CURVE SMOOTH",
"316 93 OFFCURVE",
"379 133 OFFCURVE",
"379 133 CURVE",
"379 216 LINE"
);
},
{
closed = 1;
nodes = (
"324 0 LINE",
"409 0 LINE",
"409 466 LINE",
"324 466 LINE"
);
},
{
closed = 1;
nodes = (
"3 466 LINE",
"3 396 LINE",
"687 396 LINE",
"687 466 LINE"
);
},
{
closed = 1;
nodes = (
"633 291 OFFCURVE",
"579 345 OFFCURVE",
"492 345 CURVE SMOOTH",
"420 345 OFFCURVE",
"387 308 OFFCURVE",
"360 290 CURVE",
"374 206 LINE",
"390 218 OFFCURVE",
"432 267 OFFCURVE",
"488 267 CURVE SMOOTH",
"533 267 OFFCURVE",
"552 236 OFFCURVE",
"552 200 CURVE SMOOTH",
"552 154 OFFCURVE",
"527 134 OFFCURVE",
"498 107 CURVE",
"558 50 LINE",
"602 88 OFFCURVE",
"633 128 OFFCURVE",
"633 199 CURVE SMOOTH"
);
}
);
};
layerId = "CFA4B904-E3F1-48B6-A7F6-47DC1FF2A3E1";
name = Bold;
paths = (
{
closed = 1;
nodes = (
"317 218 OFFCURVE",
"253 169 OFFCURVE",
"167 169 CURVE SMOOTH",
"115 169 OFFCURVE",
"107 201 OFFCURVE",
"118 257 CURVE SMOOTH",
"157 456 LINE",
"72 456 LINE",
"29 237 LINE SMOOTH",
"14 157 OFFCURVE",
"62 93 OFFCURVE",
"164 93 CURVE SMOOTH",
"235 93 OFFCURVE",
"304 136 OFFCURVE",
"304 136 CURVE",
"317 218 LINE"
);
},
{
closed = 1;
nodes = (
"222 0 LINE",
"304 0 LINE",
"395 466 LINE",
"313 466 LINE"
);
},
{
closed = 1;
nodes = (
"-10 466 LINE",
"-24 396 LINE",
"674 396 LINE",
"688 466 LINE"
);
},
{
closed = 1;
nodes = (
"586 293 OFFCURVE",
"533 345 OFFCURVE",
"449 345 CURVE SMOOTH",
"379 345 OFFCURVE",
"340 310 OFFCURVE",
"310 292 CURVE",
"313 208 LINE",
"330 220 OFFCURVE",
"392 267 OFFCURVE",
"440 267 CURVE SMOOTH",
"483 267 OFFCURVE",
"495 244 OFFCURVE",
"488 212 CURVE SMOOTH",
"479 162 OFFCURVE",
"438 134 OFFCURVE",
"413 114 CURVE",
"463 53 LINE",
"509 86 OFFCURVE",
"555 131 OFFCURVE",
"567 197 CURVE SMOOTH"
);
}
);
width = 664;
}
);
unicode = 092B;
},
{
color = 4;
glyphname = "ba-deva";
lastChange = "2014-11-19 08:04:26 +0000";
layers = (
{
anchors = (
{
name = bottom;
position = "{251, 5}";
},
{
name = top;
position = "{337, 447}";
}
);
background = {
paths = (
{
closed = 1;
nodes = (
"3 466 LINE",
"3 396 LINE",
"472 396 LINE",
"472 466 LINE"
);
},
{
closed = 1;
nodes = (
"128 245 OFFCURVE",
"170 268 OFFCURVE",
"216 268 CURVE SMOOTH",
"268 268 OFFCURVE",
"294 240 OFFCURVE",
"310 223 CURVE",
"326 304 LINE",
"299 320 OFFCURVE",
"266 345 OFFCURVE",
"202 345 CURVE SMOOTH",
"119 345 OFFCURVE",
"47 295 OFFCURVE",
"47 197 CURVE SMOOTH",
"47 103 OFFCURVE",
"119 50 OFFCURVE",
"202 50 CURVE SMOOTH",
"264 50 OFFCURVE",
"299 72 OFFCURVE",
"326 90 CURVE",
"310 170 LINE",
"294 158 OFFCURVE",
"268 125 OFFCURVE",
"216 125 CURVE SMOOTH",
"170 125 OFFCURVE",
"128 149 OFFCURVE",
"128 197 CURVE SMOOTH"
);
},
{
closed = 1;
nodes = (
"298 0 LINE",
"383 0 LINE",
"383 466 LINE",
"298 466 LINE"
);
},
{
closed = 1;
nodes = (
"285 90 LINE",
"327 130 LINE",
"158 306 LINE",
"109 270 LINE"
);
}
);
};
layerId = "CFA4B904-E3F1-48B6-A7F6-47DC1FF2A3E1";
name = Bold;
paths = (
{
closed = 1;
nodes = (
"-10 466 LINE",
"-24 396 LINE",
"459 396 LINE",
"473 466 LINE"
);
},
{
closed = 1;
nodes = (
"85 242 OFFCURVE",
"135 268 OFFCURVE",
"183 268 CURVE SMOOTH",
"233 268 OFFCURVE",
"253 243 OFFCURVE",
"267 230 CURVE",
"292 299 LINE",
"268 315 OFFCURVE",
"240 342 OFFCURVE",
"174 342 CURVE SMOOTH",
"93 342 OFFCURVE",
"17 295 OFFCURVE",
"0 204 CURVE SMOOTH",
"-19 109 OFFCURVE",
"42 53 OFFCURVE",
"127 53 CURVE SMOOTH",
"187 53 OFFCURVE",
"225 73 OFFCURVE",
"256 91 CURVE",
"251 172 LINE",
"233 160 OFFCURVE",
"199 125 OFFCURVE",
"145 125 CURVE SMOOTH",
"101 125 OFFCURVE",
"66 146 OFFCURVE",
"75 190 CURVE SMOOTH"
);
},
{
closed = 1;
nodes = (
"208 0 LINE",
"293 0 LINE",
"384 466 LINE",
"299 466 LINE"
);
},
{
closed = 1;
nodes = (
"215 90 LINE",
"262 130 LINE",
"126 306 LINE",
"72 270 LINE"
);
}
);
width = 449;
}
);
unicode = 092C;
},
{
color = 4;
glyphname = "bha-deva";
lastChange = "2014-11-19 08:04:26 +0000";
layers = (
{
anchors = (
{
name = bottom;
position = "{333, 5}";
},
{
name = top;
position = "{419, 447}";
}
);
background = {
paths = (
{
closed = 1;
nodes = (
"399 0 LINE",
"484 0 LINE",
"484 466 LINE",
"399 466 LINE"
);
},
{
closed = 1;
nodes = (
"261 125 LINE",
"261 310 LINE SMOOTH",
"261 422 OFFCURVE",
"221 479 OFFCURVE",
"137 479 CURVE SMOOTH",
"68 479 OFFCURVE",
"23 434 OFFCURVE",
"23 369 CURVE SMOOTH",
"23 317 OFFCURVE",
"57 277 OFFCURVE",
"106 251 CURVE",
"144 311 LINE",
"120 325 OFFCURVE",
"97 341 OFFCURVE",
"97 369 CURVE SMOOTH",
"97 389 OFFCURVE",
"111 403 OFFCURVE",
"130 403 CURVE SMOOTH",
"176 403 OFFCURVE",
"171 329 OFFCURVE",
"171 310 CURVE SMOOTH",
"171 125 LINE"
);
},
{
closed = 1;
nodes = (
"318 466 LINE",
"318 396 LINE",
"568 396 LINE",
"568 466 LINE"
);
},
{
closed = 1;
nodes = (
"230 206 LINE",
"230 128 LINE",
"459 128 LINE",
"459 206 LINE"
);
},
{
closed = 1;
nodes = (
"105 206 LINE",
"105 164 LINE",
"204 41 LINE",
"204 41 OFFCURVE",
"261 41 OFFCURVE",
"261 41 CURVE",
"261 206 LINE"
);
}
);
};
layerId = "CFA4B904-E3F1-48B6-A7F6-47DC1FF2A3E1";
name = Bold;
paths = (
{
closed = 1;
nodes = (
"289 0 LINE",
"374 0 LINE",
"465 466 LINE",
"380 466 LINE"
);
},
{
closed = 1;
nodes = (
"179 125 LINE",
"214 307 LINE SMOOTH",
"236 419 OFFCURVE",
"208 479 OFFCURVE",
"122 479 CURVE SMOOTH",
"55 479 OFFCURVE",
"4 437 OFFCURVE",
"-7 376 CURVE SMOOTH",
"-18 320 OFFCURVE",
"10 279 OFFCURVE",
"54 253 CURVE",
"100 309 LINE",
"77 323 OFFCURVE",
"59 338 OFFCURVE",
"64 362 CURVE SMOOTH",
"69 386 OFFCURVE",
"89 403 OFFCURVE",
"110 403 CURVE SMOOTH",
"154 403 OFFCURVE",
"132 332 OFFCURVE",
"128 313 CURVE SMOOTH",
"92 125 LINE"
);
},
{
closed = 1;
nodes = (
"299 466 LINE",
"285 396 LINE",
"540 396 LINE",
"554 466 LINE"
);
},
{
closed = 1;
nodes = (
"161 206 LINE",
"146 131 LINE",
"375 131 LINE",
"390 206 LINE"
);
},
{
closed = 1;
nodes = (
"42 206 LINE",
"34 164 LINE",
"106 41 LINE",
"105 41 OFFCURVE",
"163 44 OFFCURVE",
"163 44 CURVE",
"195 206 LINE"
);
}
);
width = 530;
}
);
unicode = 092D;
},
{
color = 4;
glyphname = "ma-deva";
lastChange = "2014-11-19 08:04:26 +0000";
layers = (
{
anchors = (
{
name = bottom;
position = "{315, 5}";
},
{
name = top;
position = "{401, 447}";
}
);
background = {
paths = (
{
closed = 1;
nodes = (
"368 0 LINE",
"424 0 LINE",
"424 456 LINE",
"368 456 LINE"
);
},
{
closed = 1;
nodes = (
"131 140 LINE",
"186 140 LINE",
"186 456 LINE",
"131 456 LINE"
);
},
{
closed = 1;
nodes = (
"11 456 LINE",
"11 408 LINE",
"522 408 LINE",
"522 456 LINE"
);
},
{
closed = 1;
nodes = (
"69 204 LINE",
"69 171 LINE",
"148 76 LINE",
"148 76 OFFCURVE",
"186 76 OFFCURVE",
"186 76 CURVE",
"186 204 LINE"
);
},
{
closed = 1;
nodes = (
"154 204 LINE",
"154 156 LINE",
"414 156 LINE",
"414 204 LINE"
);
},
{
closed = 1;
nodes = (
"368 0 LINE",
"424 0 LINE",
"424 456 LINE",
"368 456 LINE"
);
},
{
closed = 1;
nodes = (
"131 140 LINE",
"186 140 LINE",
"186 456 LINE",
"131 456 LINE"
);
},
{
closed = 1;
nodes = (
"11 456 LINE",
"11 408 LINE",
"522 408 LINE",
"522 456 LINE"
);
},
{
closed = 1;
nodes = (
"69 204 LINE",
"69 171 LINE",
"148 76 LINE",
"186 76 LINE",
"186 204 LINE"
);
},
{
closed = 1;
nodes = (
"154 204 LINE",
"154 156 LINE",
"414 156 LINE",
"414 204 LINE"
);
}
);
};
layerId = "CFA4B904-E3F1-48B6-A7F6-47DC1FF2A3E1";
name = Bold;
paths = (
{
closed = 1;
nodes = (
"272 0 LINE",
"357 0 LINE",
"448 466 LINE",
"363 466 LINE"
);
},
{
closed = 1;
nodes = (
"-10 466 LINE",
"-24 396 LINE",
"523 396 LINE",
"537 466 LINE"
);
},
{
closed = 1;
nodes = (
"4 216 LINE",
"-3 174 LINE",
"69 51 LINE",
"68 51 OFFCURVE",
"129 54 OFFCURVE",
"129 54 CURVE",
"160 216 LINE"
);
},
{
closed = 1;
nodes = (
"99 216 LINE",
"84 138 LINE",
"337 138 LINE",
"352 216 LINE"
);
},
{
closed = 1;
nodes = (
"60 138 LINE",
"145 138 LINE",
"209 466 LINE",
"124 466 LINE"
);
}
);
width = 513;
}
);
unicode = 092E;
},
{
color = 4;
glyphname = "ya-deva";
lastChange = "2014-11-19 08:04:26 +0000";
layers = (
{
anchors = (
{
name = bottom;
position = "{250, 5}";
},
{
name = top;
position = "{336, 447}";
}
);
background = {
paths = (
{
closed = 1;
nodes = (
"326 179 OFFCURVE",
"273 156 OFFCURVE",
"222 156 CURVE SMOOTH",
"188 156 OFFCURVE",
"161 169 OFFCURVE",
"142 184 CURVE",
"184 225 OFFCURVE",
"206 253 OFFCURVE",
"206 306 CURVE SMOOTH",
"206 356 OFFCURVE",
"172 414 OFFCURVE",
"118 456 CURVE",
"20 456 LINE",
"80 414 OFFCURVE",
"124 356 OFFCURVE",
"120 307 CURVE SMOOTH",
"116 258 OFFCURVE",
"79 234 OFFCURVE",
"47 217 CURVE",
"34 182 LINE",
"61 128 OFFCURVE",
"136 73 OFFCURVE",
"227 73 CURVE SMOOTH",
"299 73 OFFCURVE",
"352 115 OFFCURVE",
"352 115 CURVE",
"352 224 LINE"
);
},
{
closed = 1;
nodes = (
"-24 466 LINE",
"-24 396 LINE",
"483 396 LINE",
"483 466 LINE"
);
},
{
closed = 1;
nodes = (
"314 0 LINE",
"399 0 LINE",
"399 466 LINE",
"314 466 LINE"
);
}
);
};
layerId = "CFA4B904-E3F1-48B6-A7F6-47DC1FF2A3E1";
name = Bold;
paths = (
{
closed = 1;
nodes = (
"253 182 OFFCURVE",
"193 156 OFFCURVE",
"140 156 CURVE SMOOTH",
"108 156 OFFCURVE",
"85 167 OFFCURVE",
"70 180 CURVE",
"122 223 OFFCURVE",
"148 250 OFFCURVE",
"157 299 CURVE SMOOTH",
"168 353 OFFCURVE",
"143 412 OFFCURVE",
"97 454 CURVE",
"4 458 LINE",
"56 416 OFFCURVE",
"87 359 OFFCURVE",
"74 314 CURVE SMOOTH",
"60 261 OFFCURVE",
"16 236 OFFCURVE",
"-19 219 CURVE",
"-36 188 LINE",
"-19 134 OFFCURVE",
"47 76 OFFCURVE",
"140 76 CURVE SMOOTH",
"210 76 OFFCURVE",
"269 121 OFFCURVE",
"269 121 CURVE",
"288 227 LINE"
);
},
{
closed = 1;
nodes = (
"-40 466 LINE",
"-54 396 LINE",
"458 396 LINE",
"472 466 LINE"
);
},
{
closed = 1;
nodes = (
"207 0 LINE",
"292 0 LINE",
"383 466 LINE",
"298 466 LINE"
);
}
);
width = 464;
}
);
unicode = 092F;
},
{
color = 4;
glyphname = "ra-deva";
lastChange = "2014-11-19 08:04:26 +0000";
layers = (
{
anchors = (
{
name = bottom;
position = "{61, -50}";
},
{
name = top;
position = "{180, 447}";
}
);
background = {
paths = (
{
closed = 1;
nodes = (
"9 456 LINE",
"9 408 LINE",
"328 408 LINE",
"328 456 LINE"
);
},
{
closed = 1;
nodes = (
"114 427 OFFCURVE",
"185 403 OFFCURVE",
"185 306 CURVE SMOOTH",
"185 209 OFFCURVE",
"71 206 OFFCURVE",
"71 206 CURVE SMOOTH",
"71 206 OFFCURVE",
"93 157 OFFCURVE",
"93 157 CURVE",
"132 157 OFFCURVE",
"239 191 OFFCURVE",
"239 304 CURVE SMOOTH",
"239 412 OFFCURVE",
"166 443 OFFCURVE",
"166 443 CURVE",
"114 427 LINE"
);
},
{
closed = 1;
nodes = (
"3 456 LINE",
"3 408 LINE",
"320 408 LINE",
"320 456 LINE"
);
},
{
closed = 1;
nodes = (
"114 427 OFFCURVE",
"185 403 OFFCURVE",
"185 306 CURVE SMOOTH",
"185 209 OFFCURVE",
"71 206 OFFCURVE",
"71 206 CURVE SMOOTH",
"71 206 OFFCURVE",
"93 157 OFFCURVE",
"93 157 CURVE",
"132 157 OFFCURVE",
"239 191 OFFCURVE",
"239 304 CURVE SMOOTH",
"239 412 OFFCURVE",
"166 443 OFFCURVE",
"166 443 CURVE",
"114 427 LINE"
);
},
{
closed = 1;
nodes = (
"41 212 OFFCURVE",
"211 -13 OFFCURVE",
"211 -13 CURVE SMOOTH",
"211 -13 OFFCURVE",
"258 19 OFFCURVE",
"258 19 CURVE",
"82 244 LINE",
"41 212 LINE"
);
}
);
};
layerId = "CFA4B904-E3F1-48B6-A7F6-47DC1FF2A3E1";
name = Bold;
paths = (
{
closed = 1;
nodes = (
"101 424 OFFCURVE",
"174 406 OFFCURVE",
"156 313 CURVE SMOOTH",
"138 220 OFFCURVE",
"32 213 OFFCURVE",
"33 210 CURVE SMOOTH",
"34 213 OFFCURVE",
"48 148 OFFCURVE",
"51 148 CURVE",
"112 148 OFFCURVE",
"216 192 OFFCURVE",
"237 297 CURVE SMOOTH",
"258 407 OFFCURVE",
"191 447 OFFCURVE",
"191 447 CURVE",
"100 424 LINE"
);
},
{
closed = 1;
nodes = (
"112 -20 LINE",
"111 -20 OFFCURVE",
"194 30 OFFCURVE",
"194 30 CURVE",
"55 254 LINE",
"-15 205 LINE"
);
},
{
closed = 1;
nodes = (
"-10 466 LINE",
"-24 396 LINE",
"339 396 LINE",
"353 466 LINE"
);
}
);
width = 329;
}
);
unicode = 0930;
},
{
color = 4;
glyphname = "rra-deva";
lastChange = "2014-11-19 08:46:30 +0000";
layers = (
{
anchors = (
{
name = bottom;
position = "{101, -50}";
},
{
name = top;
position = "{150, 447}";
}
);
background = {
paths = (
{
closed = 1;
nodes = (
"9 0 LINE",
"68 0 LINE",
"68 58 LINE",
"9 58 LINE"
);
}
);
};
components = (
{
name = "ra-deva";
transform = "{1, 0, 0, 1, 0, 0}";
},
{
name = "nukta-deva";
transform = "{1, 0, 0, 1, 140, 88}";
}
);
layerId = "CFA4B904-E3F1-48B6-A7F6-47DC1FF2A3E1";
name = Bold;
width = 329;
}
);
unicode = 0931;
},
{
color = 4;
glyphname = "la-deva";
lastChange = "2014-11-19 08:04:26 +0000";
layers = (
{
anchors = (
{
name = bottom;
position = "{362, 5}";
},
{
name = top;
position = "{448, 447}";
}
);
background = {
paths = (
{
closed = 1;
nodes = (
"426 0 LINE",
"510 0 LINE",
"510 466 LINE",
"426 466 LINE"
);
},
{
closed = 1;
nodes = (
"8 466 LINE",
"8 396 LINE",
"592 396 LINE",
"592 466 LINE"
);
},
{
closed = 1;
nodes = (
"309 280 OFFCURVE",
"269 314 OFFCURVE",
"204 314 CURVE SMOOTH",
"129 314 OFFCURVE",
"69 263 OFFCURVE",
"69 172 CURVE SMOOTH",
"69 74 OFFCURVE",
"167 -23 OFFCURVE",
"167 -23 CURVE",
"248 13 LINE",
"227 35 OFFCURVE",
"158 111 OFFCURVE",
"158 169 CURVE SMOOTH",
"158 208 OFFCURVE",
"174 228 OFFCURVE",
"214 228 CURVE SMOOTH",
"255 228 OFFCURVE",
"279 181 OFFCURVE",
"279 181 CURVE",
"337 239 LINE"
);
},
{
closed = 1;
nodes = (
"255 118 OFFCURVE",
"341 105 OFFCURVE",
"341 105 CURVE",
"340 115 OFFCURVE",
"338 140 OFFCURVE",
"338 162 CURVE SMOOTH",
"338 207 OFFCURVE",
"363 230 OFFCURVE",
"399 229 CURVE SMOOTH",
"424 228 OFFCURVE",
"446 219 OFFCURVE",
"464 205 CURVE",
"458 297 LINE",
"435 310 OFFCURVE",
"414 312 OFFCURVE",
"395 312 CURVE SMOOTH",
"319 312 OFFCURVE",
"252 271 OFFCURVE",
"252 169 CURVE SMOOTH",
"252 159 OFFCURVE",
"253 128 OFFCURVE",
"255 118 CURVE"
);
}
);
};
layerId = "CFA4B904-E3F1-48B6-A7F6-47DC1FF2A3E1";
name = Bold;
paths = (
{
closed = 1;
nodes = (
"319 0 LINE",
"403 0 LINE",
"494 466 LINE",
"410 466 LINE"
);
},
{
closed = 1;
nodes = (
"-10 466 LINE",
"-24 396 LINE",
"569 396 LINE",
"583 466 LINE"
);
},
{
closed = 1;
nodes = (
"253 274 OFFCURVE",
"220 311 OFFCURVE",
"153 311 CURVE SMOOTH",
"80 311 OFFCURVE",
"16 262 OFFCURVE",
"0 179 CURVE SMOOTH",
"-20 77 OFFCURVE",
"57 -22 OFFCURVE",
"57 -22 CURVE",
"139 10 LINE",
"121 32 OFFCURVE",
"70 108 OFFCURVE",
"81 162 CURVE SMOOTH",
"89 205 OFFCURVE",
"113 230 OFFCURVE",
"157 230 CURVE SMOOTH",
"196 230 OFFCURVE",
"206 185 OFFCURVE",
"206 185 CURVE",
"274 233 LINE"
);
},
{
closed = 1;
nodes = (
"174 121 OFFCURVE",
"253 108 OFFCURVE",
"253 105 CURVE",
"253 112 OFFCURVE",
"256 137 OFFCURVE",
"259 155 CURVE SMOOTH",
"269 204 OFFCURVE",
"301 232 OFFCURVE",
"342 231 CURVE SMOOTH",
"365 230 OFFCURVE",
"384 223 OFFCURVE",
"400 209 CURVE",
"405 292 LINE",
"385 305 OFFCURVE",
"364 309 OFFCURVE",
"343 309 CURVE SMOOTH",
"269 309 OFFCURVE",
"201 274 OFFCURVE",
"182 176 CURVE SMOOTH",
"180 162 OFFCURVE",
"176 131 OFFCURVE",
"175 124 CURVE"
);
}
);
width = 559;
}
);
unicode = 0932;
},
{
color = 4;
glyphname = "lla-deva";
lastChange = "2014-11-19 08:04:26 +0000";
layers = (
{
anchors = (
{
name = bottom;
position = "{341, -5}";
},
{
name = top;
position = "{431, 447}";
}
);
background = {
paths = (
{
closed = 1;
nodes = (
"416 280 LINE",
"469 280 LINE",
"469 456 LINE",
"416 456 LINE"
);
},
{
closed = 1;
nodes = (
"6 456 LINE",
"6 408 LINE",
"623 408 LINE",
"623 456 LINE"
);
},
{
closed = 1;
nodes = (
"274 135 OFFCURVE",
"245 82 OFFCURVE",
"189 82 CURVE SMOOTH",
"148 82 OFFCURVE",
"127 123 OFFCURVE",
"127 167 CURVE SMOOTH",
"127 213 OFFCURVE",
"150 250 OFFCURVE",
"193 250 CURVE SMOOTH",
"240 250 OFFCURVE",
"267 193 OFFCURVE",
"289 153 CURVE",
"320 199 LINE",
"297 242 OFFCURVE",
"261 302 OFFCURVE",
"194 302 CURVE SMOOTH",
"111 302 OFFCURVE",
"73 239 OFFCURVE",
"73 167 CURVE SMOOTH",
"73 95 OFFCURVE",
"112 33 OFFCURVE",
"190 33 CURVE SMOOTH",
"254 33 OFFCURVE",
"288 63 OFFCURVE",
"332 148 CURVE SMOOTH",
"358 198 OFFCURVE",
"382 250 OFFCURVE",
"438 250 CURVE SMOOTH",
"477 250 OFFCURVE",
"503 215 OFFCURVE",
"503 166 CURVE SMOOTH",
"503 121 OFFCURVE",
"481 81 OFFCURVE",
"437 81 CURVE SMOOTH",
"390 81 OFFCURVE",
"355 150 OFFCURVE",
"338 184 CURVE",
"310 134 LINE",
"333 91 OFFCURVE",
"369 31 OFFCURVE",
"436 31 CURVE SMOOTH",
"514 31 OFFCURVE",
"556 95 OFFCURVE",
"556 167 CURVE SMOOTH",
"556 239 OFFCURVE",
"515 300 OFFCURVE",
"437 300 CURVE SMOOTH",
"380 300 OFFCURVE",
"340 271 OFFCURVE",
"297 185 CURVE SMOOTH"
);
},
{
closed = 0;
nodes = (
"481 275 LINE",
"481 461 LINE",
"405 461 LINE",
"405 347 LINE"
);
}
);
};
layerId = "CFA4B904-E3F1-48B6-A7F6-47DC1FF2A3E1";
name = Bold;
paths = (
{
closed = 1;
nodes = (
"361 280 LINE",
"436 280 LINE",
"472 466 LINE",
"397 466 LINE"
);
},
{
closed = 1;
nodes = (
"-10 466 LINE",
"-24 396 LINE",
"618 396 LINE",
"632 466 LINE"
);
},
{
closed = 1;
nodes = (
"273 135 LINE",
"308 185 OFFCURVE",
"345 240 OFFCURVE",
"388 240 CURVE SMOOTH",
"425 240 OFFCURVE",
"432 208 OFFCURVE",
"425 173 CURVE SMOOTH",
"415 124 OFFCURVE",
"386 101 OFFCURVE",
"350 101 CURVE SMOOTH",
"310 101 OFFCURVE",
"296 161 OFFCURVE",
"286 195 CURVE",
"230 125 LINE",
"250 71 OFFCURVE",
"279 21 OFFCURVE",
"351 21 CURVE SMOOTH",
"439 21 OFFCURVE",
"490 82 OFFCURVE",
"505 160 CURVE SMOOTH",
"522 246 OFFCURVE",
"492 320 OFFCURVE",
"399 320 CURVE SMOOTH",
"332 320 OFFCURVE",
"287 284 OFFCURVE",
"228 198 CURVE"
);
},
{
closed = 1;
nodes = (
"276 144 OFFCURVE",
"233 200 OFFCURVE",
"233 204 CURVE",
"198 157 OFFCURVE",
"161 102 OFFCURVE",
"118 102 CURVE SMOOTH",
"81 102 OFFCURVE",
"74 134 OFFCURVE",
"81 169 CURVE SMOOTH",
"90 218 OFFCURVE",
"120 241 OFFCURVE",
"156 241 CURVE SMOOTH",
"196 241 OFFCURVE",
"209 181 OFFCURVE",
"220 147 CURVE",
"275 217 LINE",
"256 271 OFFCURVE",
"226 321 OFFCURVE",
"154 321 CURVE SMOOTH",
"66 321 OFFCURVE",
"16 260 OFFCURVE",
"0 182 CURVE SMOOTH",
"-16 96 OFFCURVE",
"13 22 OFFCURVE",
"103 22 CURVE SMOOTH",
"173 22 OFFCURVE",
"218 58 OFFCURVE",
"276 141 CURVE"
);
}
);
width = 608;
}
);
unicode = 0933;
},
{
color = 4;
glyphname = "va-deva";
lastChange = "2014-11-19 08:04:31 +0000";
layers = (
{
anchors = (
{
name = bottom;
position = "{242, 5}";
},
{
name = top;
position = "{328, 447}";
}
);
background = {
paths = (
{
closed = 1;
nodes = (
"21 466 LINE",
"21 396 LINE",
"480 396 LINE",
"480 466 LINE"
);
},
{
closed = 1;
nodes = (
"149 245 OFFCURVE",
"188 265 OFFCURVE",
"234 265 CURVE SMOOTH",
"286 265 OFFCURVE",
"312 240 OFFCURVE",
"328 223 CURVE",
"344 304 LINE",
"317 320 OFFCURVE",
"284 345 OFFCURVE",
"220 345 CURVE SMOOTH",
"137 345 OFFCURVE",
"65 295 OFFCURVE",
"65 197 CURVE SMOOTH",
"65 103 OFFCURVE",
"137 50 OFFCURVE",
"220 50 CURVE SMOOTH",
"282 50 OFFCURVE",
"317 72 OFFCURVE",
"344 90 CURVE",
"328 170 LINE",
"312 158 OFFCURVE",
"286 129 OFFCURVE",
"234 129 CURVE SMOOTH",
"188 129 OFFCURVE",
"149 149 OFFCURVE",
"149 197 CURVE SMOOTH"
);
},
{
closed = 1;
nodes = (
"306 0 LINE",
"391 0 LINE",
"391 466 LINE",
"306 466 LINE"
);
}
);
};
layerId = "CFA4B904-E3F1-48B6-A7F6-47DC1FF2A3E1";
name = Bold;
paths = (
{
closed = 1;
nodes = (
"-10 466 LINE",
"-24 396 LINE",
"450 396 LINE",
"464 466 LINE"
);
},
{
closed = 1;
nodes = (
"89 242 OFFCURVE",
"136 265 OFFCURVE",
"184 265 CURVE SMOOTH",
"234 265 OFFCURVE",
"254 242 OFFCURVE",
"267 225 CURVE",
"293 300 LINE",
"270 316 OFFCURVE",
"241 343 OFFCURVE",
"175 343 CURVE SMOOTH",
"94 343 OFFCURVE",
"18 297 OFFCURVE",
"0 204 CURVE SMOOTH",
"-19 107 OFFCURVE",
"43 52 OFFCURVE",
"128 52 CURVE SMOOTH",
"188 52 OFFCURVE",
"226 72 OFFCURVE",
"257 90 CURVE",
"252 172 LINE",
"234 160 OFFCURVE",
"201 129 OFFCURVE",
"147 129 CURVE SMOOTH",
"103 129 OFFCURVE",
"70 146 OFFCURVE",
"79 190 CURVE SMOOTH"
);
},
{
closed = 1;
nodes = (
"199 0 LINE",
"284 0 LINE",
"375 466 LINE",
"290 466 LINE"
);
}
);
width = 440;
}
);
unicode = 0935;
},
{
color = 4;
glyphname = "sha-deva";
lastChange = "2014-11-19 08:04:31 +0000";
layers = (
{
anchors = (
{
name = bottom;
position = "{379, 5}";
},
{
name = top;
position = "{465, 447}";
}
);
background = {
paths = (
{
closed = 1;
nodes = (
"312 414 OFFCURVE",
"259 466 OFFCURVE",
"195 466 CURVE SMOOTH",
"136 466 OFFCURVE",
"92 425 OFFCURVE",
"92 368 CURVE SMOOTH",
"92 329 OFFCURVE",
"115 297 OFFCURVE",
"164 268 CURVE",
"193 311 LINE",
"169 326 OFFCURVE",
"145 343 OFFCURVE",
"145 368 CURVE SMOOTH",
"145 398 OFFCURVE",
"167 413 OFFCURVE",
"195 413 CURVE SMOOTH",
"231 413 OFFCURVE",
"256 379 OFFCURVE",
"259 329 CURVE SMOOTH",
"264 233 OFFCURVE",
"162 193 OFFCURVE",
"127 174 CURVE",
"169 137 LINE",
"232 175 OFFCURVE",
"312 223 OFFCURVE",
"312 332 CURVE SMOOTH"
);
},
{
closed = 1;
nodes = (
"65 155 OFFCURVE",
"96 130 OFFCURVE",
"140 131 CURVE",
"273 -15 LINE",
"273 -15 OFFCURVE",
"311 21 OFFCURVE",
"311 21 CURVE",
"105 239 LINE",
"78 230 OFFCURVE",
"65 211 OFFCURVE",
"65 191 CURVE SMOOTH"
);
},
{
closed = 1;
nodes = (
"344 456 LINE",
"344 408 LINE",
"590 408 LINE",
"590 456 LINE"
);
},
{
closed = 1;
nodes = (
"436 0 LINE",
"492 0 LINE",
"492 456 LINE",
"436 456 LINE"
);
}
);
};
layerId = "CFA4B904-E3F1-48B6-A7F6-47DC1FF2A3E1";
name = Bold;
paths = (
{
closed = 1;
nodes = (
"311 423 OFFCURVE",
"262 479 OFFCURVE",
"186 479 CURVE SMOOTH",
"129 479 OFFCURVE",
"70 446 OFFCURVE",
"57 380 CURVE SMOOTH",
"47 326 OFFCURVE",
"70 293 OFFCURVE",
"114 264 CURVE",
"162 320 LINE",
"140 338 OFFCURVE",
"131 348 OFFCURVE",
"134 365 CURVE SMOOTH",
"139 389 OFFCURVE",
"158 403 OFFCURVE",
"181 403 CURVE SMOOTH",
"205 403 OFFCURVE",
"220 382 OFFCURVE",
"216 355 CURVE SMOOTH",
"203 256 OFFCURVE",
"93 202 OFFCURVE",
"54 183 CURVE",
"101 116 LINE",
"171 157 OFFCURVE",
"272 222 OFFCURVE",
"293 331 CURVE SMOOTH"
);
},
{
closed = 1;
nodes = (
"-16 158 OFFCURVE",
"4 123 OFFCURVE",
"61 117 CURVE",
"152 -23 LINE",
"151 -23 OFFCURVE",
"224 34 OFFCURVE",
"224 34 CURVE",
"54 251 LINE",
"21 246 OFFCURVE",
"-3 224 OFFCURVE",
"-8 198 CURVE SMOOTH"
);
},
{
closed = 1;
nodes = (
"353 466 LINE",
"339 396 LINE",
"586 396 LINE",
"600 466 LINE"
);
},
{
closed = 1;
nodes = (
"335 0 LINE",
"420 0 LINE",
"511 466 LINE",
"426 466 LINE"
);
}
);
width = 577;
}
);
unicode = 0936;
},
{
color = 4;
glyphname = "ssa-deva";
lastChange = "2014-11-19 08:04:31 +0000";
layers = (
{
anchors = (
{
name = bottom;
position = "{275, 5}";
},
{
name = top;
position = "{361, 447}";
}
);
background = {
paths = (
{
closed = 1;
nodes = (
"342 0 LINE",
"398 0 LINE",
"398 456 LINE",
"342 456 LINE"
);
},
{
closed = 1;
nodes = (
"3 456 LINE",
"3 408 LINE",
"496 408 LINE",
"496 456 LINE"
);
},
{
closed = 1;
nodes = (
"370 190 OFFCURVE",
"306 153 OFFCURVE",
"232 153 CURVE SMOOTH",
"178 153 OFFCURVE",
"141 188 OFFCURVE",
"141 244 CURVE SMOOTH",
"141 341 LINE SMOOTH",
"141 384 OFFCURVE",
"121 456 OFFCURVE",
"121 456 CURVE SMOOTH",
"85 456 LINE",
"85 244 LINE SMOOTH",
"85 164 OFFCURVE",
"134 103 OFFCURVE",
"234 103 CURVE SMOOTH",
"297 103 OFFCURVE",
"370 133 OFFCURVE",
"370 133 CURVE",
"370 190 LINE"
);
},
{
closed = 1;
nodes = (
"324 146 LINE",
"355 178 LINE",
"149 430 LINE",
"111 402 LINE"
);
}
);
};
layerId = "CFA4B904-E3F1-48B6-A7F6-47DC1FF2A3E1";
name = Bold;
paths = (
{
closed = 1;
nodes = (
"317 218 OFFCURVE",
"253 169 OFFCURVE",
"167 169 CURVE SMOOTH",
"115 169 OFFCURVE",
"107 201 OFFCURVE",
"118 257 CURVE SMOOTH",
"128 310 LINE",
"139 364 OFFCURVE",
"112 399 OFFCURVE",
"105 453 CURVE",
"72 456 LINE",
"29 237 LINE SMOOTH",
"14 157 OFFCURVE",
"62 93 OFFCURVE",
"164 93 CURVE SMOOTH",
"235 93 OFFCURVE",
"304 136 OFFCURVE",
"304 136 CURVE",
"317 218 LINE"
);
},
{
closed = 1;
nodes = (
"232 0 LINE",
"317 0 LINE",
"408 466 LINE",
"323 466 LINE"
);
},
{
closed = 1;
nodes = (
"-10 466 LINE",
"-24 396 LINE",
"483 396 LINE",
"497 466 LINE"
);
},
{
closed = 1;
nodes = (
"137 338 OFFCURVE",
"191 253 OFFCURVE",
"246 168 CURVE",
"298 207 LINE",
"139 459 LINE",
"81 423 LINE"
);
}
);
width = 473;
}
);
unicode = 0937;
},
{
color = 4;
glyphname = "sa-deva";
lastChange = "2014-11-19 08:04:31 +0000";
layers = (
{
anchors = (
{
name = bottom;
position = "{360, 5}";
},
{
name = top;
position = "{446, 447}";
}
);
background = {
paths = (
{
closed = 1;
nodes = (
"133 427 OFFCURVE",
"204 403 OFFCURVE",
"204 306 CURVE SMOOTH",
"204 209 OFFCURVE",
"90 206 OFFCURVE",
"90 206 CURVE SMOOTH",
"90 206 OFFCURVE",
"112 157 OFFCURVE",
"112 157 CURVE",
"151 157 OFFCURVE",
"258 191 OFFCURVE",
"258 304 CURVE SMOOTH",
"258 412 OFFCURVE",
"185 443 OFFCURVE",
"185 443 CURVE",
"133 427 LINE"
);
},
{
closed = 1;
nodes = (
"60 212 OFFCURVE",
"232 -18 OFFCURVE",
"232 -18 CURVE SMOOTH",
"232 -18 OFFCURVE",
"279 14 OFFCURVE",
"279 14 CURVE",
"101 244 LINE",
"60 212 LINE"
);
},
{
closed = 1;
nodes = (
"431 0 LINE",
"487 0 LINE",
"487 456 LINE",
"431 456 LINE"
);
},
{
closed = 1;
nodes = (
"451 237 OFFCURVE",
"408 216 OFFCURVE",
"325 216 CURVE SMOOTH",
"289 216 OFFCURVE",
"233 220 OFFCURVE",
"187 239 CURVE",
"163 192 LINE",
"221 172 OFFCURVE",
"272 162 OFFCURVE",
"314 162 CURVE SMOOTH",
"400 162 OFFCURVE",
"451 180 OFFCURVE",
"451 180 CURVE",
"451 237 LINE"
);
},
{
closed = 1;
nodes = (
"28 456 LINE",
"28 408 LINE",
"585 408 LINE",
"585 456 LINE"
);
},
{
closed = 1;
nodes = (
"431 0 LINE",
"487 0 LINE",
"487 456 LINE",
"431 456 LINE"
);
},
{
closed = 1;
nodes = (
"139 427 OFFCURVE",
"210 403 OFFCURVE",
"210 306 CURVE SMOOTH",
"210 209 OFFCURVE",
"96 206 OFFCURVE",
"96 206 CURVE SMOOTH",
"96 206 OFFCURVE",
"118 157 OFFCURVE",
"118 157 CURVE",
"157 157 OFFCURVE",
"264 191 OFFCURVE",
"264 304 CURVE SMOOTH",
"264 412 OFFCURVE",
"191 443 OFFCURVE",
"191 443 CURVE",
"139 427 LINE"
);
},
{
closed = 1;
nodes = (
"66 212 OFFCURVE",
"238 -18 OFFCURVE",
"238 -18 CURVE SMOOTH",
"238 -18 OFFCURVE",
"285 14 OFFCURVE",
"285 14 CURVE",
"107 244 LINE",
"66 212 LINE"
);
},
{
closed = 1;
nodes = (
"437 0 LINE",
"493 0 LINE",
"493 456 LINE",
"437 456 LINE"
);
},
{
closed = 1;
nodes = (
"457 237 OFFCURVE",
"414 216 OFFCURVE",
"331 216 CURVE SMOOTH",
"295 216 OFFCURVE",
"239 220 OFFCURVE",
"193 239 CURVE",
"169 192 LINE",
"227 172 OFFCURVE",
"278 162 OFFCURVE",
"320 162 CURVE SMOOTH",
"406 162 OFFCURVE",
"457 180 OFFCURVE",
"457 180 CURVE",
"457 237 LINE"
);
},
{
closed = 1;
nodes = (
"28 456 LINE",
"28 408 LINE",
"591 408 LINE",
"591 456 LINE"
);
},
{
closed = 1;
nodes = (
"437 0 LINE",
"493 0 LINE",
"493 456 LINE",
"437 456 LINE"
);
}
);
};
layerId = "CFA4B904-E3F1-48B6-A7F6-47DC1FF2A3E1";
name = Bold;
paths = (
{
closed = 1;
nodes = (
"-10 466 LINE",
"-24 396 LINE",
"567 396 LINE",
"581 466 LINE"
);
},
{
closed = 1;
nodes = (
"316 0 LINE",
"401 0 LINE",
"492 466 LINE",
"407 466 LINE"
);
},
{
closed = 1;
nodes = (
"397 250 OFFCURVE",
"347 223 OFFCURVE",
"273 223 CURVE SMOOTH",
"208 223 OFFCURVE",
"200 232 OFFCURVE",
"167 247 CURVE",
"100 191 LINE",
"153 161 OFFCURVE",
"213 148 OFFCURVE",
"257 148 CURVE SMOOTH",
"321 148 OFFCURVE",
"383 170 OFFCURVE",
"383 170 CURVE",
"397 250 LINE"
);
},
{
closed = 1;
nodes = (
"111 424 OFFCURVE",
"178 406 OFFCURVE",
"160 313 CURVE SMOOTH",
"142 220 OFFCURVE",
"32 213 OFFCURVE",
"33 210 CURVE SMOOTH",
"34 213 OFFCURVE",
"48 147 OFFCURVE",
"51 147 CURVE",
"112 147 OFFCURVE",
"216 192 OFFCURVE",
"237 297 CURVE SMOOTH",
"258 407 OFFCURVE",
"196 447 OFFCURVE",
"196 447 CURVE",
"110 424 LINE"
);
},
{
closed = 1;
nodes = (
"112 -20 LINE",
"111 -20 OFFCURVE",
"194 30 OFFCURVE",
"194 30 CURVE",
"55 254 LINE",
"-15 205 LINE"
);
}
);
width = 557;
}
);
unicode = 0938;
},
{
color = 4;
glyphname = "ha-deva";
lastChange = "2014-11-19 08:04:31 +0000";
layers = (
{
anchors = (
{
name = bottom;
position = "{124, -60}";
},
{
name = top;
position = "{310, 447}";
}
);
background = {
paths = (
{
closed = 1;
nodes = (
"6 466 LINE",
"6 396 LINE",
"476 396 LINE",
"476 466 LINE"
);
},
{
closed = 1;
nodes = (
"205 198 OFFCURVE",
"171 213 OFFCURVE",
"171 242 CURVE SMOOTH",
"171 265 OFFCURVE",
"197 272 OFFCURVE",
"247 272 CURVE SMOOTH",
"301 272 OFFCURVE",
"322 267 OFFCURVE",
"357 263 CURVE",
"367 270 LINE",
"367 466 LINE",
"291 466 LINE",
"291 342 LINE",
"275 345 OFFCURVE",
"253 346 OFFCURVE",
"240 346 CURVE SMOOTH",
"147 346 OFFCURVE",
"89 317 OFFCURVE",
"89 246 CURVE SMOOTH",
"89 201 OFFCURVE",
"110 176 OFFCURVE",
"141 143 CURVE",
"206 198 LINE"
);
},
{
closed = 1;
nodes = (
"92 -27 OFFCURVE",
"185 -80 OFFCURVE",
"336 -80 CURVE",
"352 -8 LINE",
"245 -8 OFFCURVE",
"168 18 OFFCURVE",
"168 78 CURVE SMOOTH",
"168 121 OFFCURVE",
"204 144 OFFCURVE",
"260 144 CURVE",
"291 142 OFFCURVE",
"313 136 OFFCURVE",
"313 111 CURVE SMOOTH",
"313 95 OFFCURVE",
"306 86 OFFCURVE",
"299 77 CURVE",
"363 34 LINE",
"379 53 OFFCURVE",
"395 77 OFFCURVE",
"395 111 CURVE SMOOTH",
"395 182 OFFCURVE",
"334 219 OFFCURVE",
"254 219 CURVE SMOOTH",
"215 219 OFFCURVE",
"188 208 OFFCURVE",
"162 195 CURVE SMOOTH",
"120 174 OFFCURVE",
"92 132 OFFCURVE",
"92 80 CURVE SMOOTH"
);
}
);
};
layerId = "CFA4B904-E3F1-48B6-A7F6-47DC1FF2A3E1";
name = Bold;
paths = (
{
closed = 1;
nodes = (
"-10 466 LINE",
"-24 396 LINE",
"446 396 LINE",
"460 466 LINE"
);
},
{
closed = 1;
nodes = (
"134 198 OFFCURVE",
"105 210 OFFCURVE",
"110 235 CURVE SMOOTH",
"115 262 OFFCURVE",
"146 272 OFFCURVE",
"198 272 CURVE SMOOTH",
"250 272 OFFCURVE",
"270 267 OFFCURVE",
"304 263 CURVE",
"314 270 LINE",
"351 466 LINE",
"275 466 LINE",
"247 341 LINE",
"232 344 OFFCURVE",
"210 346 OFFCURVE",
"195 346 CURVE SMOOTH",
"104 346 OFFCURVE",
"44 320 OFFCURVE",
"31 253 CURVE SMOOTH",
"22 204 OFFCURVE",
"40 178 OFFCURVE",
"64 145 CURVE",
"136 198 LINE"
);
},
{
closed = 1;
nodes = (
"-20 -24 OFFCURVE",
"66 -80 OFFCURVE",
"217 -80 CURVE",
"242 -8 LINE",
"134 -8 OFFCURVE",
"64 15 OFFCURVE",
"75 71 CURVE SMOOTH",
"84 118 OFFCURVE",
"128 145 OFFCURVE",
"186 145 CURVE",
"215 143 OFFCURVE",
"237 138 OFFCURVE",
"233 117 CURVE SMOOTH",
"229 97 OFFCURVE",
"216 88 OFFCURVE",
"207 79 CURVE",
"263 32 LINE",
"283 51 OFFCURVE",
"302 74 OFFCURVE",
"308 104 CURVE SMOOTH",
"323 179 OFFCURVE",
"268 217 OFFCURVE",
"186 217 CURVE SMOOTH",
"149 217 OFFCURVE",
"119 208 OFFCURVE",
"87 197 CURVE SMOOTH",
"44 175 OFFCURVE",
"11 135 OFFCURVE",
"2 87 CURVE SMOOTH"
);
}
);
width = 436;
}
);
unicode = 0939;
},
{
color = 4;
glyphname = "khha-deva";
lastChange = "2014-11-19 08:48:43 +0000";
layers = (
{
anchors = (
{
name = bottom;
position = "{481, 5}";
},
{
name = top;
position = "{567, 447}";
}
);
components = (
{
name = "nukta-deva";
transform = "{1, 0, 0, 1, 173, 101}";
}
);
layerId = "CFA4B904-E3F1-48B6-A7F6-47DC1FF2A3E1";
name = Bold;
paths = (
{
closed = 1;
nodes = (
"123 424 OFFCURVE",
"202 406 OFFCURVE",
"184 313 CURVE SMOOTH",
"166 220 OFFCURVE",
"54 213 OFFCURVE",
"55 210 CURVE SMOOTH",
"56 213 OFFCURVE",
"70 148 OFFCURVE",
"73 148 CURVE",
"134 148 OFFCURVE",
"238 192 OFFCURVE",
"259 297 CURVE SMOOTH",
"280 407 OFFCURVE",
"203 447 OFFCURVE",
"203 447 CURVE",
"122 424 LINE"
);
},
{
closed = 1;
nodes = (
"161 -25 LINE",
"160 -25 OFFCURVE",
"238 28 OFFCURVE",
"238 28 CURVE",
"77 254 LINE",
"12 205 LINE"
);
},
{
closed = 1;
nodes = (
"23 466 LINE",
"9 396 LINE",
"334 396 LINE",
"348 466 LINE"
);
},
{
closed = 1;
nodes = (
"254 466 LINE",
"240 396 LINE",
"689 396 LINE",
"703 466 LINE"
);
},
{
closed = 1;
nodes = (
"348 242 OFFCURVE",
"385 265 OFFCURVE",
"433 265 CURVE SMOOTH",
"493 265 OFFCURVE",
"509 222 OFFCURVE",
"522 205 CURVE",
"550 281 LINE",
"535 304 OFFCURVE",
"496 345 OFFCURVE",
"430 345 CURVE SMOOTH",
"349 345 OFFCURVE",
"275 298 OFFCURVE",
"257 204 CURVE SMOOTH",
"238 106 OFFCURVE",
"302 53 OFFCURVE",
"387 53 CURVE SMOOTH",
"457 53 OFFCURVE",
"487 80 OFFCURVE",
"517 98 CURVE",
"513 182 LINE",
"494 165 OFFCURVE",
"460 129 OFFCURVE",
"406 129 CURVE SMOOTH",
"362 129 OFFCURVE",
"329 146 OFFCURVE",
"338 190 CURVE SMOOTH"
);
},
{
closed = 1;
nodes = (
"438 0 LINE",
"523 0 LINE",
"614 466 LINE",
"529 466 LINE"
);
}
);
width = 679;
}
);
unicode = 0959;
},
{
color = 4;
glyphname = "ghha-deva";
lastChange = "2014-11-19 08:48:43 +0000";
layers = (
{
anchors = (
{
name = bottom;
position = "{266, -35}";
},
{
name = top;
position = "{360, 447}";
}
);
background = {
paths = (
{
closed = 1;
nodes = (
"3 466 LINE",
"3 396 LINE",
"488 396 LINE",
"488 466 LINE"
);
},
{
closed = 1;
nodes = (
"318 0 LINE",
"403 0 LINE",
"403 466 LINE",
"318 466 LINE"
);
},
{
closed = 1;
nodes = (
"48 266 LINE",
"48 224 LINE",
"128 111 LINE",
"128 111 OFFCURVE",
"185 111 OFFCURVE",
"185 111 CURVE",
"185 266 LINE"
);
},
{
closed = 1;
nodes = (
"110 206 LINE",
"185 206 LINE",
"185 466 LINE",
"110 466 LINE"
);
}
);
};
components = (
{
name = "nukta-deva";
transform = "{1, 0, 0, 1, 248, 94}";
}
);
layerId = "CFA4B904-E3F1-48B6-A7F6-47DC1FF2A3E1";
name = Bold;
paths = (
{
closed = 1;
nodes = (
"-10 466 LINE",
"-24 396 LINE",
"482 396 LINE",
"496 466 LINE"
);
},
{
closed = 1;
nodes = (
"231 0 LINE",
"316 0 LINE",
"407 466 LINE",
"322 466 LINE"
);
},
{
closed = 1;
nodes = (
"5 276 LINE",
"-2 234 LINE",
"61 111 LINE",
"60 111 OFFCURVE",
"120 114 OFFCURVE",
"120 114 CURVE",
"152 276 LINE"
);
},
{
closed = 1;
nodes = (
"55 216 LINE",
"140 216 LINE",
"189 466 LINE",
"104 466 LINE"
);
}
);
width = 472;
}
);
unicode = 095A;
},
